<svg width="1200" height="1200" viewBox="0 0 1200 1200" fill="none" xmlns="http://www.w3.org/2000/svg">
<rect width="1200" height="1200" rx="190" fill="#FDF567"/>
<path d="M861.077 600.929C914.578 603.913 965.5 603.913 1019 600.929V617.635C986.771 617.635 983.548 634.34 983.548 664.171V732.783C960.343 775.143 886.861 803.184 811.445 803.184C683.817 803.184 571.66 722.044 571.66 599.736C571.66 479.815 680.594 396.885 817.246 396.885C895.24 396.885 955.831 424.926 964.855 430.296C966.789 442.825 977.102 497.117 977.102 550.217H955.831C955.831 457.144 882.993 424.329 814.023 424.329C715.402 424.329 661.257 490.554 661.257 587.804C661.257 637.92 675.438 775.143 817.89 775.143C856.565 775.143 883.638 764.404 909.421 750.085V672.524C909.421 633.147 908.132 617.635 861.077 617.635V600.929Z" fill="#0A100D"/>
<path d="M508.744 671.843C512.047 708.742 508.744 759.925 504.781 790.872H181.773V775.994C214.14 775.994 223.388 752.783 223.388 723.621V452.233C223.388 425.452 214.14 413.549 181.773 413.549V396.885H493.552C496.855 415.929 500.818 470.683 498.836 501.631H481.001C482.323 462.351 455.24 423.071 410.983 423.071H300.672V564.716H383.901C421.552 564.716 434.763 555.789 434.763 526.627H452.598C450.616 565.907 450.616 596.259 452.598 635.539H434.763C434.763 606.972 421.552 597.449 383.901 597.449H300.672V726.001C300.672 743.26 309.259 766.471 335.02 766.471H401.075C453.258 766.471 491.57 719.455 491.57 671.843H508.744Z" fill="#0A100D"/>
</svg>
