<svg width="1200" height="1200" viewBox="0 0 1200 1200" fill="none" xmlns="http://www.w3.org/2000/svg">
<g clip-path="url(#clip0_660_48)">
<path d="M983.284 0H216.716C97.0272 0 0 97.0272 0 216.716V983.284C0 1102.97 97.0272 1200 216.716 1200H983.284C1102.97 1200 1200 1102.97 1200 983.284V216.716C1200 97.0272 1102.97 0 983.284 0Z" fill="#CCFF33"/>
<path d="M766.497 395.664C782.174 392.933 822.658 393.752 838.061 397.167C860.688 402.084 889.452 413.693 906.765 424.893C946.431 450.297 978.055 490.862 992.915 535.114C1000.69 558.47 1003.41 578.821 1002.59 606.137C1002.51 608.782 1002.4 611.355 1002.25 613.862V805.164H907.959V773.91C888.359 786.829 867.123 795.701 842.15 801.719C822.932 806.364 787.762 807.594 767.72 804.453C723.828 797.349 681.297 775.361 643.404 739.988L632.222 729.468L636.992 723.05C647.494 709.253 667.941 677.57 676.526 661.862L685.661 645.2L699.428 659.54C716.467 677.432 732.55 689.725 750.138 698.328C769.356 707.755 778.085 709.803 797.846 709.665C817.338 709.665 829.476 706.8 845.834 698.465C867.912 687.403 884.544 670.603 895.315 648.477C904.174 630.173 906.628 619.522 906.628 599.988C906.628 581.142 904.174 570.216 896.132 552.87C881.953 522.686 856.467 501.788 823.064 492.637C809.571 488.949 784.628 489.223 770.855 493.183C734.186 503.701 696.294 536.207 664.395 584.83C659.35 592.342 649.535 609.552 642.586 622.8C628.407 650.25 617.5 668.143 603.326 687.265C553.842 754.328 496.18 793.934 433.202 804.316C413.845 807.594 377.449 806.226 358.229 801.719C318.97 792.435 287.344 774.818 259.264 746.818C242.088 729.743 233.227 718.131 223.276 700.107C204.6 666.507 196.285 630.722 197.785 591.795C199.966 537.982 219.732 492.774 258.037 454.394C289.799 422.434 325.649 403.723 370.497 395.664C377.449 394.435 389.173 394.026 407.303 394.299C430.34 394.708 435.657 395.255 447.516 398.259C488.683 408.776 524.535 428.99 557.251 460.267L568.292 470.921L557.251 485.945C556.634 486.781 556.005 487.629 555.363 488.489L464.03 626.435C442.187 659.426 397.735 668.465 364.744 646.62L349.32 636.406L441.486 497.204C437.646 495.666 433.756 494.33 429.794 493.183C415.073 489.086 391.081 489.086 375.541 493.183C344.87 501.515 317.198 524.871 303.566 553.963C296.887 568.303 294.024 582.372 294.024 599.988C293.888 619.522 297.023 632.495 306.02 650.525C311.472 661.588 314.471 665.552 326.194 677.295C338.326 689.45 341.462 691.773 354.14 698.053C372.678 707.206 383.311 709.803 403.213 709.803C426.932 709.803 445.062 703.653 469.19 687.54C481.049 679.618 504.223 657.629 515.81 643.152C529.169 626.626 545.254 601.904 554.66 583.191C609.052 475.428 682.932 410.142 766.497 395.664Z" fill="#020202"/>
</g>
<defs>
<clipPath id="clip0_660_48">
<rect width="1200" height="1200" fill="white"/>
</clipPath>
</defs>
</svg>
