<svg width="1200" height="1200" viewBox="0 0 1200 1200" fill="none" xmlns="http://www.w3.org/2000/svg">
<path d="M983.284 0H216.716C97.0272 0 0 97.0272 0 216.716V983.284C0 1102.97 97.0272 1200 216.716 1200H983.284C1102.97 1200 1200 1102.97 1200 983.284V216.716C1200 97.0272 1102.97 0 983.284 0Z" fill="#01CFFD"/>
<path d="M639.735 226C683.362 280.439 674.892 288.124 710.754 321.487C720.499 330.364 727.968 341.497 732.522 353.93C736.698 365.799 739.278 378.181 740.195 390.745C741.12 404.049 746.659 416.596 755.838 426.178L803.177 474.935C803.825 475.599 804.323 476.4 804.633 477.28C804.943 478.159 805.059 479.097 804.972 480.027C804.885 480.957 804.598 481.856 804.131 482.662C803.663 483.468 803.026 484.16 802.266 484.69L788.467 494.4C784.896 496.968 780.53 498.148 776.168 497.726C771.807 497.302 767.741 495.306 764.718 492.1C745.023 470.609 701.647 444.884 683.521 442.791L665.784 441.548C654.827 440.795 644.248 437.195 635.073 431.096C625.897 424.997 618.436 416.606 613.414 406.736L602.029 384.256C575.411 434.876 585.43 476.937 635.683 509.425C737.167 580.615 781.887 645.178 794.273 734.43C798.635 763.914 797.725 793.948 791.587 823.108C771.936 912.221 707.863 961.713 602.029 974C527.072 971.653 461.039 949.22 421.716 866.134C400.79 821.842 400.836 769.979 423.56 726.63C448.607 679.024 491.437 653.001 557.606 654.75C611.046 656.936 654.673 676.655 675.211 737.582C683.035 759.674 683.187 783.798 675.643 805.988C661.754 844.966 628.055 863.81 577.733 865.812C651.28 841.606 669.313 759.97 612.367 724.996C586.978 709.443 555.442 709.213 528.665 722.397C507.808 732.705 491.527 748.052 484.219 773.293C476.097 801.898 479.48 832.587 493.632 858.686C507.784 884.784 531.561 904.182 559.792 912.658C567.976 915.062 576.359 916.71 584.837 917.582C616.239 921.329 647.897 913.126 673.64 894.573C697.434 876.925 714.352 852.075 720.819 816.342C730.268 764.065 722.458 703.598 685.731 665.656C606.583 583.261 504.301 610.366 406.255 673.088C389.633 613.011 385.375 548.679 436.562 465.294C449.13 518.583 460.925 560.597 482.101 590.601C483.23 592.308 484.842 593.632 486.727 594.399C488.612 595.167 490.681 595.342 492.666 594.904C501.774 592.603 502.867 577.186 487.52 513.912C480.649 486.275 478.341 457.682 480.689 429.285C486.564 362.559 516.415 314.24 607.084 281.613C628.283 274.043 637.549 253.841 639.735 226Z" fill="white"/>
</svg>
