<svg width="1200" height="1200" viewBox="0 0 1200 1200" fill="none" xmlns="http://www.w3.org/2000/svg">
<path d="M983.284 0H216.716C97.0272 0 0 97.0272 0 216.716V983.284C0 1102.97 97.0272 1200 216.716 1200H983.284C1102.97 1200 1200 1102.97 1200 983.284V216.716C1200 97.0272 1102.97 0 983.284 0Z" fill="#0095FC"/>
<g clip-path="url(#clip0_660_67)">
<path d="M759.002 604.411L722.306 796.811L692.52 792.768L725.244 605.877L680.908 325.342H701.766L759.002 604.411ZM706.158 605.877L681.822 791.313L635.724 785.067L628.383 325.342H668.976L706.158 605.877Z" fill="white"/>
<path d="M441.804 340.791L356.885 605.882L424.655 785.36L377.424 805.629L270.293 605.882L392.107 318L441.804 340.791ZM462.542 350.309L392.107 605.882L449.333 774.785L441.034 778.332L378.899 605.882L453.813 346.299L462.542 350.309Z" fill="white"/>
<path d="M581.421 648.475L596.092 873.193L556.511 870.671L524.183 646.998L542.731 389.971H581.421V648.475ZM509.511 646.998L544.524 869.91L530.733 869.029L487.498 648.475L517.469 389.971H532.34L509.511 646.998ZM471.35 648.475L518.603 868.269L503.634 867.321L453.738 648.475L490.425 389.971H507.024L471.35 648.475Z" fill="white"/>
<path d="M930.708 658.753L820.636 882.007L775.673 860.824L863.19 657.289L798.105 420.827L836.785 400.25L930.708 658.753ZM844.115 657.289L764.183 855.416L745.789 846.757L805.965 658.753L767.803 436.965L785.954 427.293L844.115 657.289Z" fill="white"/>
</g>
<defs>
<clipPath id="clip0_660_67">
<rect width="665" height="564" fill="white" transform="translate(268 318)"/>
</clipPath>
</defs>
</svg>
