<svg width="1200" height="1200" viewBox="0 0 1200 1200" fill="none" xmlns="http://www.w3.org/2000/svg">
<path d="M983.284 0H216.716C97.0272 0 0 97.0272 0 216.716V983.284C0 1102.97 97.0272 1200 216.716 1200H983.284C1102.97 1200 1200 1102.97 1200 983.284V216.716C1200 97.0272 1102.97 0 983.284 0Z" fill="#FFCF51"/>
<mask id="mask0_660_63" style="mask-type:luminance" maskUnits="userSpaceOnUse" x="307" y="325" width="585" height="550">
<path d="M892 325H307V874.296H892V325Z" fill="white"/>
</mask>
<g mask="url(#mask0_660_63)">
<path d="M733.54 779.842C732.9 781.528 732.26 783.25 731.585 784.904C730.236 788.243 728.789 791.517 727.237 794.725C726.528 796.175 725.787 797.592 725.081 799.01C723.326 802.283 721.508 805.489 719.585 808.595C718.811 809.809 718.001 811.058 717.193 812.272C716.383 813.453 715.573 814.667 714.732 815.848C714.158 816.658 713.584 817.469 712.977 818.279C712.236 819.325 711.461 820.372 710.654 821.382C702.159 832.319 692.214 841.835 681.124 849.663C678.528 851.487 675.867 853.242 673.137 854.859C672.799 855.062 672.461 855.266 672.123 855.469C671.113 856.076 670.102 856.65 669.091 857.224C669.058 857.257 668.99 857.257 668.957 857.29C668.281 857.661 667.608 858.067 666.867 858.405C665.856 858.976 664.81 859.517 663.766 860.023C662.283 860.767 660.8 861.476 659.281 862.148C659.146 862.217 658.979 862.286 658.844 862.352C657.394 863.027 655.911 863.634 654.428 864.241C654.192 864.343 653.923 864.444 653.686 864.546C652.472 865.051 651.226 865.524 649.979 865.963C648.798 866.403 647.619 866.806 646.438 867.213C646.202 867.279 645.966 867.38 645.733 867.449C644.922 867.718 644.112 867.987 643.272 868.224C643.203 868.257 643.101 868.257 643.036 868.292C642.225 868.528 641.451 868.765 640.641 869.001C640.102 869.168 639.564 869.303 639.023 869.44C638.012 869.742 637.002 870.012 635.955 870.248C635.922 870.248 635.889 870.283 635.856 870.283C634.675 870.553 633.395 870.857 632.214 871.127L629.081 871.767C627.496 872.071 625.878 872.341 624.261 872.612C622.506 872.915 620.72 873.151 618.932 873.354C617.147 873.59 615.326 873.758 613.505 873.892C611.687 874.03 609.866 874.164 608.045 874.23C606.966 874.23 605.889 874.299 604.843 874.299C600.394 874.299 595.977 873.892 591.597 873.184L606.529 860.767C609.899 857.122 613.236 853.478 616.507 849.732C618.092 847.944 619.641 846.12 621.193 844.299C622.777 842.442 624.326 840.553 625.878 838.628C627.024 837.243 628.136 835.862 629.248 834.445C632.654 830.056 635.991 825.601 639.157 821.012C640.542 819.02 641.923 816.963 643.272 814.903C659.822 813.286 674.315 806.23 681.967 790.91C690.563 773.665 684.395 755.711 672.632 741.74L658.877 776.197C658.339 777.546 657.191 778.592 655.776 778.963C654.766 779.235 653.719 779.032 652.709 778.727C646.405 776.837 636.227 772.822 631.844 770.663C626.754 768.131 629.081 765.464 629.55 763.374L641.349 730.806C640.742 730.773 640.171 730.773 639.63 730.773C638.619 730.773 637.641 730.806 636.697 730.875C635.485 730.944 634.304 731.042 633.159 731.213C632.283 731.347 631.44 731.482 630.597 731.652C630.259 731.718 629.921 731.787 629.586 731.888C628.776 732.056 628.001 732.259 627.227 732.495C626.282 732.765 625.373 733.069 624.497 733.44C623.585 733.778 622.709 734.149 621.866 734.552C621.193 734.857 620.553 735.195 619.91 735.566C619.608 735.733 619.303 735.904 619.001 736.107C618.328 736.478 617.721 736.881 617.079 737.321C616.104 737.997 615.159 738.738 614.247 739.515C613.742 739.952 613.236 740.424 612.764 740.897C612.294 741.336 611.822 741.842 611.382 742.314C610.946 742.786 610.539 743.259 610.135 743.731C609.699 744.305 609.259 744.846 608.856 745.453C608.452 745.994 608.081 746.533 607.708 747.107C607.474 747.477 607.238 747.848 607.035 748.222C606.831 748.56 606.631 748.895 606.461 749.232C605.889 750.279 605.348 751.394 604.879 752.506C604.607 753.149 604.371 753.789 604.137 754.429C603.967 754.904 603.766 755.442 603.629 755.948C603.461 756.456 603.327 756.928 603.192 757.433C603.058 757.84 602.989 758.211 602.887 758.614C602.789 758.985 602.72 759.392 602.618 759.795C602.517 760.202 602.451 760.573 602.382 760.976C602.215 761.921 602.047 762.866 601.945 763.846C601.945 763.912 601.912 763.981 601.945 764.047C601.811 765.027 601.742 765.972 601.709 766.95C601.676 767.691 601.641 768.436 601.641 769.177C601.641 770.358 601.676 771.539 601.775 772.753C601.811 773.363 601.877 773.97 601.945 774.577C602.146 776.401 602.451 778.221 602.822 780.078C603.091 781.325 603.396 782.575 603.766 783.824C604.912 787.807 608.721 793.712 609.394 797.222C609.663 798.773 609.056 799.617 608.383 800.866C606.595 803.16 604.777 805.423 602.923 807.683C602.248 808.493 601.608 809.303 600.935 810.078C600.292 810.888 599.619 811.698 598.911 812.476C598.304 813.184 597.697 813.893 597.09 814.601C595.337 816.626 593.552 818.617 591.731 820.608C589.776 822.734 587.82 824.791 585.799 826.851C583.945 828.773 582.058 830.663 580.136 832.486C579.529 833.093 578.889 833.7 578.282 834.274C577.068 835.422 575.855 836.535 574.642 837.65C574.507 837.751 574.406 837.886 574.271 837.988C573.563 838.628 572.855 839.27 572.113 839.91C570.496 841.363 568.81 842.813 567.125 844.23C566.787 844.5 566.45 844.771 566.114 845.041C564.563 846.356 562.945 847.639 561.327 848.921C560.956 849.223 560.585 849.495 560.215 849.797H560.181C557.282 852.061 554.349 854.219 551.349 856.312L549.799 855.804C548.821 854.423 547.81 853.038 546.866 851.621C546.462 851.014 546.057 850.407 545.653 849.797C545.484 849.561 545.349 849.325 545.181 849.089C544.507 848.042 543.799 846.963 543.158 845.884C541.507 843.217 539.956 840.484 538.507 837.716C537.934 836.603 537.361 835.491 536.788 834.343C536.585 833.904 536.383 833.464 536.147 833.027C535.507 831.676 534.9 830.292 534.293 828.91C533.72 827.592 533.181 826.244 532.675 824.928C531.529 822.025 530.518 819.122 529.675 816.186C529.372 815.208 529.102 814.264 528.866 813.286C528.597 812.338 528.361 811.361 528.125 810.416C527.889 809.471 527.653 808.526 527.45 807.581C527.147 806.164 526.844 804.747 526.608 803.363C526.338 801.946 526.136 800.561 525.934 799.177C525.799 798.268 525.698 797.323 525.597 796.411C525.496 795.5 525.394 794.588 525.327 793.679C525.125 791.179 525.023 788.683 525.023 786.186C525.023 785.107 525.057 784.06 525.125 783.014C525.091 782.811 525.125 782.608 525.125 782.407C525.192 781.528 525.226 780.616 525.327 779.707C525.496 777.647 525.765 775.59 526.102 773.53C526.237 772.654 526.405 771.808 526.608 770.932C526.743 770.155 526.911 769.381 527.114 768.636C527.282 767.829 527.484 767.019 527.72 766.208C527.99 765.195 528.293 764.184 528.597 763.171C528.967 761.957 529.405 760.776 529.844 759.559C530.147 758.683 530.45 757.873 530.821 757.03C531.024 756.489 531.26 755.948 531.496 755.409C531.833 754.566 532.237 753.687 532.642 752.844C532.878 752.339 533.113 751.866 533.349 751.358C533.383 751.292 533.417 751.257 533.45 751.191C533.754 750.548 534.057 749.908 534.394 749.301C534.664 748.76 534.967 748.186 535.271 747.648C535.743 746.769 536.215 745.926 536.72 745.05C559.709 705.665 611.047 696.486 630.259 655.484C647.921 617.824 645.933 580.263 643.371 540.104C643.203 537.945 641.956 535.92 642.327 533.659C642.36 533.625 642.396 533.625 642.429 533.625C642.967 533.625 645.697 535.549 646.337 536.122C672.563 558.361 684.631 617.959 678.899 650.422C676.573 663.55 665.114 685.08 675.598 695.981C677.957 698.412 680.484 699.422 683.079 699.422C683.519 699.422 683.991 699.389 684.428 699.321C684.562 699.321 684.697 699.288 684.798 699.288C685.202 699.222 685.642 699.12 686.081 698.983C686.518 698.884 686.921 698.747 687.328 698.579C687.899 698.343 688.473 698.107 689.047 697.802C689.619 697.5 690.16 697.195 690.698 696.824C691.236 696.486 691.777 696.083 692.316 695.676C692.854 695.272 693.395 694.833 693.933 694.393C694.169 694.157 694.439 693.921 694.675 693.685C694.944 693.449 695.216 693.18 695.449 692.943C696.191 692.235 696.932 691.457 697.608 690.614C698.113 690.076 698.553 689.535 698.957 688.994C699.193 688.725 699.393 688.456 699.597 688.186C700.036 687.612 700.44 687.071 700.81 686.497C701.181 685.923 701.552 685.349 701.923 684.811C702.261 684.237 702.596 683.696 702.9 683.158C703.675 681.806 704.282 680.491 704.754 679.31C709.709 666.789 709.676 654.27 707.99 641.175C724.373 658.049 735.699 681.606 740.552 704.654C746.045 730.908 742.777 754.835 733.609 779.842H733.54Z" fill="#1B386A"/>
<path d="M512.75 757.164C510.93 762.698 509.649 768.265 508.941 774.003C510.121 775.42 511.436 776.804 512.986 778.087C513.087 778.153 513.155 778.254 513.256 778.356C513.357 778.458 513.458 778.559 513.526 778.625C513.694 778.828 513.863 778.999 513.997 779.133C514.335 779.435 514.705 779.671 515.278 779.671C515.481 779.671 515.683 779.639 515.953 779.57C514.267 772.316 513.054 764.755 512.75 757.164ZM601.873 774.577C602.043 776.398 602.346 778.221 602.749 780.078C602.379 778.221 602.076 776.398 601.873 774.577ZM529.604 816.186C530.447 819.122 531.458 822.025 532.604 824.928C531.492 822.058 530.481 819.122 529.604 816.186Z" fill="#1B386A"/>
<path d="M617.38 603.344C621.964 622.682 612.459 641.883 600.02 656.159C579.088 680.152 547.908 687.005 526.369 711.841C515.38 724.53 512.043 740.83 512.751 757.164C513.054 764.755 514.268 772.316 515.953 779.572C515.683 779.638 515.481 779.671 515.279 779.671C514.706 779.671 514.335 779.435 513.998 779.133C513.863 778.998 513.695 778.828 513.526 778.627C513.459 778.559 513.357 778.457 513.256 778.355C513.155 778.254 513.088 778.155 512.987 778.086C511.436 776.804 510.122 775.419 508.942 774.002C505.47 769.819 503.077 765.093 499.537 760.674C498.391 761.855 497.043 762.832 496.268 764.384C492.324 772.349 495.391 786.894 497.785 795.296C502.639 812.272 512.549 828.536 521.919 843.318C521.852 843.387 521.751 843.42 521.582 843.42C520.504 843.42 517.571 841.53 514.975 839.709C514.403 839.27 513.83 838.863 513.324 838.492C512.009 837.515 510.931 836.704 510.492 836.334C469.268 804.274 446.111 745.216 459.762 693.956C479.414 620.051 530.818 583.739 570.492 524.007C580.065 509.597 599.515 473.252 599.515 456.48V441.057C599.987 440.956 600.325 440.889 600.594 440.889C601.099 440.889 601.267 441.091 601.368 441.361C601.401 441.496 601.437 441.665 601.47 441.833C601.539 442.002 601.572 442.171 601.706 442.34C611.786 456.21 618.089 479.461 620.314 496.402C623.313 519.114 625.639 556.336 610.437 574.964C602.884 584.245 579.964 597.845 577.807 608.035C577.47 609.724 577.301 611.243 577.301 612.625C577.301 620.252 582.426 623.322 588.897 623.322C594.661 623.322 601.539 620.894 606.828 617.148C607.806 616.439 608.718 615.731 609.561 614.954C610.841 613.806 611.986 612.592 612.898 611.276L617.38 603.344Z" fill="#1B386A"/>
<path d="M453.393 789.426C451.708 785.713 450.157 781.967 448.742 778.155C437.82 748.356 436 717.746 443.483 689.603C457.573 636.588 487.202 601.221 515.854 567.068C529.607 550.634 543.831 533.693 556.438 514.66C568 497.28 582.664 466.402 582.664 456.48V437.886C582.664 432.959 585.529 428.369 590.08 426.479C594.056 424.826 597.459 424.016 600.596 424.016C607.706 424.016 613.809 428.032 616.641 434.275C628.033 451.047 634.641 475.986 637.033 494.175C638.08 502.241 638.786 509.868 639.123 517.089C640.17 516.853 641.282 516.752 642.359 516.752C644.147 516.752 649.505 516.752 657.157 523.231C683.416 545.504 696.091 592.277 697 628.318C698.079 627.406 699.258 626.632 700.573 625.989C702.899 624.877 705.426 624.303 707.887 624.303C712.336 624.303 716.72 626.091 719.988 629.397C737.719 647.656 751.202 673.808 756.967 701.177C762.764 728.781 760.337 755.612 749.348 785.645C748.472 788.009 747.527 790.303 746.585 792.599C796.843 797.424 844.843 804.441 889.877 813.318C891.225 808.729 892 803.903 892 798.874V512.905C892 494.681 882.225 477.875 866.417 468.865L625.1 331.617C609.291 322.607 589.843 322.809 574.202 332.157L331.64 477.133C316.371 486.279 307 502.781 307 520.599V799.38C307 801.945 307.236 804.408 307.607 806.872C353.685 799.045 402.494 793.137 453.36 789.426H453.393Z" fill="#1B386A"/>
<path d="M398.01 351.998H436.774C446.078 351.998 453.628 359.557 453.628 368.872V450.032H381.156V368.872C381.156 359.557 388.707 351.998 398.01 351.998Z" fill="#1B386A"/>
</g>
</svg>
