<svg width="1200" height="1200" viewBox="0 0 1200 1200" fill="none" xmlns="http://www.w3.org/2000/svg">
<path d="M983.284 0H216.716C97.0272 0 0 97.0272 0 216.716V983.284C0 1102.97 97.0272 1200 216.716 1200H983.284C1102.97 1200 1200 1102.97 1200 983.284V216.716C1200 97.0272 1102.97 0 983.284 0Z" fill="#522714"/>
<path d="M600 791.475C314.165 791.475 481.232 423.105 600 289C718.768 423.105 890.755 791.475 600 791.475ZM600 791.475C454.132 750.076 539.223 587.258 600 511.024M600 791.475C745.869 750.076 660.778 587.258 600 511.024M600 511.024C578.812 483.759 499.632 422.215 352.426 394.17C270.458 530.5 207.197 910 600 910C992.803 910 929.542 530.5 847.574 394.17C700.368 422.215 621.189 483.759 600 511.024Z" stroke="#FBD3B1" stroke-width="30.18"/>
</svg>
