<svg width="512" height="512" viewBox="0 0 512 512" fill="none" xmlns="http://www.w3.org/2000/svg">
<path d="M437.268 204C432.09 199.845 426.019 196.905 419.685 194.982C420.482 184.017 419.158 172.22 412.4 163.157C410.601 160.743 408.465 158.6 406.073 156.771C402.387 153.948 403.55 152.58 403.184 148.096C402.621 141.28 401.027 134.499 398.02 128.341C387.064 105.9 362.999 102.404 340.42 102.748C313.416 103.158 286.273 102.923 259.335 104.928C252.832 105.41 246.316 105.813 239.797 105.813C232.937 105.813 233.105 99.7056 229.003 94.6951C221.534 85.5528 210.285 81.2077 198.883 79.5547C184.283 77.4334 169.64 79.2108 154.989 79.2108C144.047 79.2108 133.098 79.1082 122.207 80.3378C95.4 83.373 75.3228 96.5093 69.4345 123.74C64.1683 148.068 62.9249 174.267 61.6223 199.055C60.035 229.263 59.5379 259.756 61.2639 289.971C62.9618 319.609 67.3935 349.239 77.7504 377.171C86.0669 399.59 97.9454 413.955 121.548 421.372C149.949 430.295 183.075 430.602 212.596 432.204C243.207 433.864 273.868 433.814 304.493 432.607C333.187 431.473 362.794 428.839 389.404 417.232C412.057 407.343 419.758 384.625 426.97 362.785C436.157 334.962 442.622 306.048 447.004 277.092C450.654 252.968 459.431 221.802 437.268 204Z" fill="white"/>
<path d="M407.698 213.946C403.565 213.251 399.374 212.673 395.197 212.066C398.415 198.183 404.26 176.321 387.444 170.777C385.236 170.046 382.946 169.438 380.627 168.89C384.021 151.716 383.458 129.971 363.117 125.611C349.126 122.62 332.574 124.588 318.281 124.543C303.382 124.492 288.483 124.8 273.59 125.18C265.465 125.385 217.512 131.383 216.788 120.733C216.268 112.995 213.635 106.733 206.072 103.325C192.943 97.4227 169.194 100.502 154.881 100.436C140.552 100.378 116.436 99.9023 103.512 107.143C88.4297 115.598 89.1832 136.73 87.1567 152.031C83.5811 179.006 82.1542 206.289 81.7293 233.475C81.0495 277.156 81.6715 326.769 97.3531 368.958C103.621 385.802 105.428 392.049 122.858 399.29C136.952 405.141 155.685 405.843 167.862 407.211C207.645 411.681 247.924 413.04 287.927 411.9C318.631 411.022 355.232 409.888 383.538 396.576C393.28 391.997 397.472 381.362 401.107 372.007C409.613 350.145 415.51 327.318 420.453 304.416C425.295 281.976 428.418 259.17 430.511 236.32C431.819 222.065 419.803 215.987 407.698 213.946Z" fill="#181C1D"/>
<path d="M105.735 219.812C100.294 255.228 98.2453 291.719 98.7063 327.939C94.5664 303.166 93.8859 277.434 93.4538 253.407C92.7075 212.212 94.7565 170.068 102.458 129.532C107.578 102.601 175.63 112.526 196.139 113.806C208.551 114.574 203.161 127.579 209.1 133.526C215.053 139.479 224.057 138.389 231.693 138.148C257.25 137.343 282.791 136.473 308.354 136.267C320.663 136.173 332.974 136.319 345.276 136.531C351.34 136.634 357.514 136.363 363.474 137.643C373.795 139.852 370.438 160.596 369.129 166.871C351.735 164.713 332.777 165.745 316.422 165.043C265.391 162.841 214.073 161.78 163.027 164.048C150.301 164.619 133.543 163.624 122.067 169.921C109.882 176.607 107.534 208.138 105.735 219.812Z" fill="#FFC522"/>
<path d="M113.883 250.394C115.441 232.108 117.716 213.728 122.412 195.954C124.211 189.159 125.842 179.474 133.815 178.158C141.012 176.966 148.378 176.608 155.641 176.147C195.05 173.66 234.752 174.435 274.197 175.35C295.021 175.832 315.83 176.637 336.624 177.69C346.016 178.165 355.4 178.743 364.777 179.387C370.043 179.745 375.354 180.045 380.583 180.82C390.319 182.269 385.755 201.439 383.611 210.458C338.241 204.709 291.063 203.553 245.92 203.831C219.939 203.992 194.003 205.813 168.19 208.702C156.035 210.063 141.918 215.958 135.818 227.676C124.978 248.5 121.087 275.767 116.047 298.559C113.992 307.84 112.244 317.173 110.628 326.536C110.563 301.118 111.726 275.673 113.883 250.394Z" fill="#0080FF"/>
<path d="M418.193 243.021C416.197 264.788 412.393 286.366 407.785 307.716C404.333 323.697 399.9 339.452 394.795 354.973C391.233 365.792 388.131 380.28 377.636 386.476C367.089 392.693 351.619 393.914 339.756 395.875C324.389 398.42 308.721 399.306 293.178 400.008C262.788 401.361 232.273 400.41 201.933 398.465C186.01 397.447 116.898 398.522 115.434 375.476C119.984 334.48 127.986 294.178 139.22 254.497C145.451 232.496 151.757 222.241 175.47 219.587C196.564 217.231 217.79 216.141 239.008 215.637C278.082 214.708 317.169 217.246 356.074 220.596C365.531 221.415 374.974 222.329 384.416 223.251C398.913 224.662 420.073 222.526 418.193 243.021Z" fill="#0080FF"/>
<path d="M383.883 370.414C370.322 386.11 344.466 387.295 325.339 389.226C294.049 392.393 262.598 392.137 231.198 391.018C205.604 390.111 180.027 388.619 154.456 387.075C143.448 386.41 131.921 383.316 127.591 372.059C124.892 365.023 126.764 356.831 128.007 349.656C133.727 316.456 140.485 282.993 149.621 250.547C151.976 242.172 155.186 234.324 161.178 227.873C164.432 224.355 168.492 221.882 172.858 219.951C151.318 223.067 145.217 233.336 139.219 254.496C127.985 294.176 119.983 334.479 115.434 375.475C116.897 398.521 186.009 397.446 201.932 398.464C232.272 400.409 262.787 401.36 293.177 400.007C308.721 399.305 324.388 398.42 339.755 395.874C351.619 393.913 367.089 392.692 377.635 386.475C388.131 380.28 391.233 365.79 394.795 354.972C395.322 353.362 395.812 351.739 396.324 350.13C392.834 357.374 389.038 364.446 383.883 370.414Z" fill="#0057FA"/>
<path d="M377.958 238.765C324.3 234.164 265.911 232.752 212.238 234.866C180.83 236.102 178.753 246.569 174.38 261.257C171.417 271.211 169.45 281.751 167.212 296.811C165.383 309.121 172.017 313.992 195.731 315.689C232.675 318.345 315.063 319.668 354.077 319.595C374.051 319.558 382.712 318.6 388.051 302.37C392.667 288.356 397.64 267.232 399.082 261.052C402.841 244.909 400.596 240.703 377.958 238.765Z" fill="#30C8FF"/>
<path d="M384.694 205.746C382.514 205.388 380.335 205.059 378.163 204.767C329.289 198.067 279.165 197.562 229.946 199.252C211.675 199.873 193.389 200.868 175.185 202.544C160.636 203.874 142.614 206.442 133.756 219.629C123.882 234.338 120.942 255.345 117.226 272.292C114.687 283.871 112.384 295.668 110.804 307.554C110.672 313.881 110.613 320.208 110.628 326.535C112.245 317.172 113.993 307.839 116.048 298.557C121.088 275.766 124.978 248.498 135.819 227.675C141.919 215.957 156.035 210.062 168.191 208.701C194.003 205.812 219.94 203.99 245.921 203.83C291.064 203.551 338.242 204.707 383.612 210.456C383.933 209.097 384.314 207.48 384.694 205.746Z" fill="#0057FA"/>
<path d="M380.583 180.82C375.354 180.045 370.043 179.745 364.777 179.387C355.4 178.743 346.016 178.165 336.624 177.69C315.83 176.637 295.021 175.832 274.197 175.35C234.752 174.435 195.05 173.66 155.641 176.147C148.377 176.608 141.012 176.966 133.815 178.158C127.056 179.277 124.861 186.394 123.253 192.677C128.416 187.36 135.189 183.674 143.886 182.73C150.857 181.969 158.018 182.101 165.018 181.948C189.41 181.414 213.826 181.443 238.226 181.596C265.238 181.765 292.249 182.086 319.254 182.796C329.442 183.067 339.639 183.403 349.827 183.894C362.122 184.486 376.882 183.572 386.552 191.025C386.442 185.728 384.972 181.471 380.583 180.82Z" fill="#30C8FF"/>
<path d="M369.883 162.629C341.307 159.638 312.29 159.382 283.619 158.826C249 158.153 214.36 158.043 179.727 158.306C161.551 158.438 137.532 155.402 120.503 163.243C104.098 170.806 102.503 194.563 100.675 209.879C98.2687 230.066 97.2298 250.304 96.7248 270.624C96.3664 285.07 96.3664 299.53 96.7616 313.983C97.3179 318.657 97.9313 323.316 98.7073 327.938C98.2456 291.718 100.294 255.227 105.736 219.812C107.535 208.138 109.883 176.606 122.068 169.921C133.545 163.623 150.302 164.618 163.028 164.048C214.074 161.78 265.392 162.841 316.423 165.043C332.778 165.745 351.736 164.713 369.13 166.871C369.349 165.819 369.627 164.341 369.883 162.629Z" fill="#FFA222"/>
<path d="M363.475 137.645C357.514 136.365 351.341 136.635 345.277 136.533C332.975 136.321 320.665 136.174 308.355 136.269C282.791 136.474 257.25 137.344 231.693 138.15C224.058 138.39 215.054 139.48 209.1 133.527C203.161 127.581 208.551 114.576 196.139 113.808C175.63 112.528 107.578 102.603 102.459 129.533C100.205 141.39 98.4865 153.393 97.1333 165.461C97.9533 162.85 98.7791 160.238 99.6057 157.642C103.665 144.952 105.963 126.498 120.108 121.305C130.282 117.567 142.519 118.057 153.27 117.874C165.595 117.67 178.249 117.385 190.478 119.125C201.721 120.72 198.26 138.683 209.064 142.128C216.612 144.542 225.345 142.985 233.128 142.706C243.127 142.348 253.125 141.982 263.124 141.624C283.378 140.892 303.63 140.417 323.898 140.615C334.635 140.717 345.358 141.09 356.081 141.639C361.106 141.894 365.531 142.114 369.78 144.747C368.793 141.156 366.891 138.377 363.475 137.645Z" fill="#FBE134"/>
</svg>
