<svg width="512" height="512" viewBox="0 0 512 512" fill="none" xmlns="http://www.w3.org/2000/svg">
<path d="M433.841 132.495C415.48 118.149 400.642 118.662 384.883 116.689C337.721 15.5047 162.281 15.5685 115.083 122.22C74.1731 129.396 52.7826 164.048 49.9372 202.943C43.1332 264.966 46.0544 329.28 52.9054 383.695C57.1597 441.463 91.52 462.844 142.534 465.932C209.475 473.211 294.725 470.868 364.424 465.304C389.859 461.644 408.102 465.045 431.659 450.097C458.533 429.489 461.983 396.552 463.924 367.358C467.005 311.789 467.261 248.014 459.462 189.21C457.637 176.28 453.848 149.368 433.841 132.495Z" fill="white"/>
<path d="M436.647 192.426C434.54 177.466 431.106 160.33 418.984 150.112C410.699 143.122 400.621 141.577 390.207 140.408C383.175 139.613 376.124 139.006 369.062 138.465C353.112 92.2753 306.329 66.1321 258.974 63.893C208.381 61.5009 145.76 90.0597 132.569 142.487C115.186 144.947 97.7546 149.352 86.6511 163.938C77.4273 176.045 74.7042 191.208 72.7799 205.926C70.3789 224.317 69.6449 242.923 69.4029 261.453C68.8785 301.129 70.3789 341.238 75.7313 380.584C77.4809 393.418 79.1836 407.388 86.4368 418.486C99.2941 438.16 123.582 440.714 145.007 443.023C194.083 448.32 243.9 448.04 293.171 446.358C316.289 445.567 339.399 444.326 362.445 442.351C371.575 441.562 380.696 440.662 389.79 439.528C399.642 438.293 409.877 437.388 418.191 431.4C427.271 424.86 431.74 414.723 435.256 404.441C439.304 392.169 440.018 378.495 440.943 365.706C442.337 346.351 442.737 326.914 442.759 307.512C442.799 269.221 441.993 230.399 436.647 192.426ZM309.804 135.415C279.311 134.538 248.774 134.672 218.334 135.704C209.726 135.998 201.114 136.368 192.513 136.852C186.643 137.181 183.04 136.403 187.986 130.857C217.417 97.818 284.558 98.1474 313.423 131.576C316.43 135.046 314.687 135.549 309.804 135.415Z" fill="#181C1D"/>
<path d="M148.555 134.821C165.434 95.5779 213.745 78.2659 254.28 76.5825C293.248 74.9641 334.697 96.7357 352.486 131.665C355.038 136.694 355.125 137.479 349.426 137.149C343.563 136.796 337.693 136.486 331.825 136.22C303.142 78.6987 194.228 79.4327 167.784 138.617C162.49 139.07 157.201 139.567 151.914 140.138C147.539 140.611 146.314 140.042 148.555 134.821Z" fill="#FFC522"/>
<path d="M92.0682 179.382C93.7709 175.673 95.9461 172.171 98.6958 169.196C106.097 161.197 116.671 158.039 127.113 156.218C148.108 152.559 169.498 150.908 190.754 149.661C234.301 147.112 278.053 146.978 321.653 148.586C322.935 148.633 371.583 151.007 390.207 153.107C398.745 154.066 407.322 155.364 413.232 162.225C418.129 167.914 420.534 175.633 422.146 182.849C423.733 189.951 423.538 196.837 421.985 205.057C419.492 218.166 415.028 234.032 405.548 240.415C396.395 246.574 384.283 249.628 373.968 253.207C345.553 263.063 316.373 271.485 286.945 277.805C286.576 275.709 286.209 273.684 285.878 271.789C284.231 262.318 280.875 254.731 272.341 249.86C260.955 243.364 245.599 246.17 235.179 252.964C228.109 257.571 225.157 267.24 223.993 277.539C196.542 271.56 169.496 263.62 142.838 254.805C131.18 250.949 119.31 247.002 108.336 241.438C98.9782 236.691 94.0653 223.023 91.2241 210.454C88.3173 197.599 88.6201 186.908 92.0682 179.382Z" fill="#0080FF"/>
<path d="M275.679 306.156C274.261 311.365 270.103 313.656 265.164 314.462C253.696 316.33 236.398 315.521 236.231 304.408C236.05 292.11 236.281 279.227 240.015 267.423C243 258.002 257.151 258.237 264.713 260.349C272.234 262.451 272.96 271.306 274.075 277.71C275.23 284.335 278.032 297.468 275.679 306.156Z" fill="#FFC522"/>
<path d="M426.061 387.077C425.349 391.787 424.512 396.529 423.013 401.063C419.89 410.19 415.824 419.68 406.298 423.589C398.796 426.665 389.558 426.91 381.557 427.791C361.371 430.014 341.096 431.416 320.818 432.469C272.92 434.963 224.742 435.661 176.84 432.89C166.01 432.267 155.182 431.435 144.399 430.259C133.728 429.092 122.477 428.133 112.484 423.97C98.6151 418.194 93.1423 406.23 90.4281 392.394C83.7969 358.629 82.7806 323.271 82.1785 288.965C81.8516 270.583 81.9762 252.168 83.0039 233.804C83.3495 227.496 83.9871 228.419 86.334 233.223C88.481 237.626 91.0049 241.777 94.008 245.507C100.069 253.023 109.177 255.916 117.948 259.378C151.798 272.732 187.703 282.892 223.311 290.42C223.271 296.199 223.489 301.589 223.553 305.729C223.846 325.332 247.869 330.021 265.635 327.439C275.451 326.014 281.164 323.478 285.334 316.108C289.384 308.944 289.675 299.586 288.767 290.421C323.196 283.118 357.283 272.958 390.299 260.834C398.721 257.742 408.698 254.692 415.549 248.638C419.109 245.495 422.073 241.415 424.549 236.827C427.404 231.554 427.63 229.447 428.145 238.165C428.98 252.29 429.5 266.43 429.794 280.567C430.516 315.658 431.237 352.794 426.061 387.077Z" fill="#DADFE9"/>
<path d="M275.679 306.154C276.349 303.673 276.57 300.821 276.564 297.866C272.738 307.177 264.875 310.74 254.366 310.38C249.762 310.225 244.762 309.416 241.721 305.328C238.684 301.248 239.307 293.837 239.237 288.945C239.133 281.718 239.705 274.493 240.079 267.275C240.058 267.327 240.029 267.369 240.015 267.421C236.281 279.225 236.05 292.109 236.231 304.406C236.398 315.519 253.696 316.328 265.164 314.461C270.103 313.654 274.261 311.363 275.679 306.154Z" fill="#FFA222"/>
<path d="M308.702 104.057C286.931 90.4352 259.704 86.364 234.609 89.8096C212.194 92.8832 186.243 104.532 172.8 123.472C169.32 128.38 166.398 133.488 164.249 138.954C165.427 138.85 166.606 138.716 167.784 138.615C194.228 79.4305 303.142 78.6965 331.825 136.219C333.904 136.315 335.978 136.442 338.059 136.548C332.149 123.051 320.696 111.557 308.702 104.057Z" fill="#FFA222"/>
<path d="M254.28 76.5802C221.232 77.9535 183.023 89.7247 160.886 115.297C171.109 106.621 183.612 99.993 194.846 94.8917C217.643 84.5414 243.499 80.1806 268.42 81.5967C302.436 83.5348 329.869 102.246 350.264 127.726C331.446 95.1319 291.748 75.0256 254.28 76.5802Z" fill="#FBE134"/>
<path d="M269.913 279.117C269.596 276.566 269.431 273.567 268.379 271.086C266.625 266.963 260.407 265.81 257.509 270.947C256.585 272.587 255.966 274.609 255.667 276.606C254.623 283.574 250.453 298.537 257.923 303.097C262.491 305.884 270.953 302.855 271.157 297.161C271.376 291.175 270.658 285.044 269.913 279.117Z" fill="#FBE134"/>
<path d="M422.146 182.849C420.882 177.193 419.109 171.24 416.052 166.184C419.815 177.677 420.93 189.015 419.029 201.866C417.493 212.262 415.311 223.731 407.621 231.422C401.071 237.969 390.859 240.613 382.397 243.684C371.86 247.506 361.233 251.076 350.56 254.489C340.444 257.717 330.244 260.7 319.941 263.275C308.17 266.215 293.785 271.559 287.442 257.981C283.7 249.968 281.339 245.947 272.969 242.452C263.206 238.367 251.256 239.994 241.529 243.192C234.633 245.46 229.551 250.352 225.315 256.041C220.966 261.878 219.849 268.879 210.959 268.752C206.507 268.684 201.841 267.287 197.53 266.151C181.876 262.036 166.46 256.798 151.083 251.761C134.439 246.309 108.752 241.455 100.76 224.481C96.6048 215.655 90.746 200.346 89.8923 186.737C88.7472 193.326 89.1584 201.33 91.2235 210.455C94.0647 223.024 98.9776 236.692 108.336 241.439C119.31 247.003 131.179 250.95 142.837 254.806C169.495 263.621 196.542 271.561 223.993 277.54C225.157 267.241 228.109 257.572 235.178 252.965C245.599 246.171 260.955 243.365 272.34 249.861C280.875 254.732 284.231 262.319 285.877 271.79C286.209 273.685 286.575 275.71 286.944 277.806C316.373 271.486 345.552 263.065 373.967 253.208C384.282 249.629 396.394 246.576 405.548 240.416C415.028 234.033 419.492 218.168 421.985 205.058C423.538 196.838 423.733 189.952 422.146 182.849Z" fill="#0057FA"/>
<path d="M359.09 165.267C314.214 164.639 231.763 164.632 208.026 165.314C173.216 166.306 147.579 168.037 131.005 172.073C104.013 178.637 113.756 204.533 125.856 211.114C132.041 214.48 138.648 217.06 143.503 218.913C163.815 226.652 181.845 232.264 202.038 221.954C216.829 214.397 230.47 208.447 247.821 207.645C265.74 206.815 282.053 213.28 297.42 220.714C309.931 226.768 320.752 228.91 334.861 226.481C352.688 223.409 371.047 218.207 387.735 211.817C396.19 208.581 406.381 203.626 406.872 194.228C408.357 165.878 399.713 165.833 359.09 165.267Z" fill="#30C8FF"/>
<path d="M426.061 387.077C430.429 358.164 430.586 327.227 430.099 297.197C429.622 305.607 429.046 314.008 428.333 322.399C426.656 342.058 424.346 361.806 419.819 381.04C417.914 389.121 415.265 396.856 411.512 404.274C406.225 414.711 397.697 418.639 386.648 420.433C343.457 427.442 297.993 426.656 254.39 427.07C228.771 427.312 203.146 427.049 177.543 426.153C150.292 425.196 111.863 428.977 99.784 398.547C89.544 372.756 89.2267 341.669 86.3927 314.451C84.7418 298.6 83.7773 282.457 82.0632 266.467C82.0162 273.967 82.0469 281.467 82.1782 288.964C82.7803 323.271 83.7966 358.629 90.4284 392.394C93.1425 406.23 98.6154 418.194 112.484 423.97C122.477 428.133 133.728 429.092 144.399 430.259C155.182 431.434 166.01 432.267 176.84 432.89C224.743 435.661 272.921 434.962 320.818 432.469C341.096 431.416 361.371 430.014 381.557 427.791C389.558 426.909 398.796 426.665 406.299 423.589C415.823 419.68 419.89 410.19 423.013 401.063C424.511 396.529 425.348 391.788 426.061 387.077Z" fill="#A2ABBD"/>
<path d="M364.01 307.312C353.902 311.033 344.231 315.925 334.677 320.866C311.801 332.701 289.351 346.076 264.604 353.724C216.941 368.451 180.975 327.256 143.745 305.015C120.226 290.955 99.871 291.463 101.334 314.627C102.684 335.984 106.198 359.931 108.954 372.6C115.151 401.048 125.412 403.277 154.631 409.166C182.571 414.799 212.574 415.029 240.956 415.33C273.325 415.669 305.841 413.564 338.193 412.555C356.071 411.998 377.833 413.541 391.251 399.404C399.303 390.918 401.27 375.168 403.328 364.293C405.11 354.879 408.84 334.051 405.699 318.816C401.122 296.642 383.349 300.198 364.01 307.312Z" fill="#F0F2F6"/>
</svg>
