<svg width="512" height="512" viewBox="0 0 512 512" fill="none" xmlns="http://www.w3.org/2000/svg">
<path d="M409.202 110.788C405.277 108.6 401.312 107.032 397.49 105.877C395.903 90.6959 390.366 70.9876 370.357 61.2767C338.621 45.512 303.774 67.749 300.526 97.6504C274.209 96.9237 248.021 97.0225 222.122 98.0315C218.263 62.9607 174.516 43.132 144.893 65.6863C125.537 82.6925 127.35 94.3788 124.817 108.711C91.5054 115.995 70.8681 147.054 67.9348 180.72C59.908 243.458 63.4897 314.237 69.5436 369.426C71.5617 406.534 90.0586 440.683 130.861 448.079C204.218 460.229 292.681 456.303 363.749 449.638C381.373 447.835 401.233 447.726 418.987 433.486C452.557 404.281 447.108 341.178 448.693 299.586C448.907 266.973 447.597 197.45 441.151 162.334C436.53 137.378 425.78 120.037 409.202 110.788Z" fill="white"/>
<path d="M397.981 130.913C392.53 127.872 386.324 126.59 380.06 125.816C376.316 125.353 375.171 124.043 375.126 120.205C374.968 106.318 373.927 88.6221 360.295 82.0065C351.636 77.804 340.702 78.2556 332.887 84.1186C326.596 88.8364 324.183 95.6429 322.969 103.119C321.988 109.126 321.41 115.264 321.186 121.436C281.158 119.698 240.969 119.721 200.976 122.155C200.866 108.025 200.405 88.94 186.124 82.0065C177.462 77.804 166.533 78.2556 158.716 84.1186C152.427 88.8364 150.014 95.6429 148.796 103.119C147.74 109.608 147.142 116.252 146.966 122.931C146.828 128.136 148.123 127.346 142.26 128.402C125.821 131.342 110.223 136.497 100.83 151.798C94.8325 161.568 92.3538 172.816 90.733 184.018C86.3607 214.26 86.2361 245.178 86.7418 275.67C87.2452 305.967 88.5788 336.442 92.4001 366.522C93.5736 375.765 94.6013 385.428 97.7038 394.276C103.816 411.699 117.622 421.863 135.463 425.506C152.935 429.07 171.11 430.264 188.881 431.273C208.801 432.4 228.768 432.741 248.721 432.618C286.266 432.388 323.938 430.767 361.276 426.732C375.316 425.214 392.913 425.201 404.249 415.775C414.329 407.388 418.751 392.997 420.868 380.445C425.407 353.488 425.5 325.565 425.656 298.306C425.891 257.695 423.847 195.411 418.497 166.53C415.99 152.987 410.682 137.997 397.981 130.913Z" fill="#181C1D"/>
<path d="M135.442 264.978C135.357 260.009 135.51 255.044 135.802 250.082C136.273 242.086 135.377 241.705 141.618 240.164C150.478 237.974 187.524 232.751 191.647 243.2C195.125 252.019 193.677 264.397 193.564 273.704C193.557 274.515 193.55 277.095 193.482 279.809C193.293 287.62 191.038 288.302 183.202 289.71C171.584 291.794 157.037 293.191 144.5 290.974C140.452 290.258 136.527 288.158 135.758 282.302C134.976 276.352 135.513 269.094 135.442 264.978Z" fill="#FFC522"/>
<path d="M193.589 355.328C193.674 360.295 193.521 365.259 193.229 370.222C192.759 378.218 193.657 378.599 187.413 380.14C180.899 381.751 159.144 385.001 146.444 382.454C137.742 380.707 136.933 377.588 135.842 371.459C134.426 363.474 135.377 354.053 135.468 346.595C135.48 345.713 135.489 342.715 135.574 339.737C135.774 332.597 139.57 331.712 145.828 330.593C156.729 328.641 170.207 327.291 182.181 328.958C190.316 330.089 192.816 333.001 193.434 339.419C193.972 345.066 193.523 351.531 193.589 355.328Z" fill="#FFC522"/>
<path d="M227.058 264.978C226.973 260.009 227.126 255.044 227.421 250.082C227.888 242.086 226.993 241.705 233.237 240.164C242.096 237.974 279.142 232.751 283.261 243.2C286.741 252.019 285.293 264.395 285.182 273.704C285.067 282.973 284.389 287.993 274.819 289.71C263.411 291.754 249.175 293.139 236.789 291.089C229.548 289.889 228.335 291.107 227.279 281.495C226.642 275.71 227.127 268.911 227.058 264.978Z" fill="#FFC522"/>
<path d="M334.785 109.68C335.7 101.442 336.6 95.0422 343.559 92.6224C347.583 91.2208 358.033 89.88 360.791 103.631C361.974 109.478 362.327 115.997 362.442 122.651C362.478 124.798 361.859 142.705 361.163 147.936C360.071 156.209 358.905 163.865 351.017 165.88C341.395 168.327 337.35 160.765 335.664 151.2C333.423 138.462 333.296 123.253 334.785 109.68Z" fill="#DADFE9"/>
<path d="M160.614 109.681C160.72 108.728 161.557 98.2033 166.122 94.3609C171.273 90.0193 180.341 92.5005 182.768 94.937C185.947 98.1238 187.05 105.584 187.448 108.823C187.987 113.232 188.188 117.908 188.268 122.652C188.414 131.071 188.104 139.58 186.994 147.936C185.761 157.261 183.605 166.589 173.786 166.208C166.932 165.943 163.348 161.728 161.492 151.201C159.25 138.462 159.125 123.253 160.614 109.681Z" fill="#DADFE9"/>
<path d="M101.971 193.917C103.715 175.393 107.846 155.008 124.793 146.327C131.707 142.788 139.661 141.35 147.448 140.226C147.822 144.836 148.375 149.408 149.132 153.905C150.581 162.503 153.116 169.354 160.508 174.566C167.014 179.154 175.123 180.067 182.197 177.637C193.836 173.632 197.251 165.311 199.267 151.118C200.033 145.725 200.502 140.304 200.76 134.867C240.843 132.42 281.118 132.393 321.234 134.14C321.525 140.802 322.215 147.435 323.304 153.905C324.752 162.503 327.288 169.354 334.678 174.566C342.246 179.899 351.978 180.271 359.732 176.177C368.899 171.346 371.526 164.587 373.441 151.118C374.064 146.729 374.504 142.325 374.791 137.905C381.978 138.533 389.581 139.545 394.951 144.22C400.482 149.034 403.032 156.586 404.84 163.46C407.176 172.327 407.968 180.629 408.857 189.622C409.727 198.407 408.396 199.298 401.056 198.893C304.106 193.5 206.664 193.524 109.808 200.551C103.655 201.005 101.333 200.683 101.971 193.917Z" fill="#0080FF"/>
<path d="M376.824 355.327C376.911 360.294 376.758 365.259 376.464 370.221C375.991 378.212 376.887 378.598 370.646 380.139C361.786 382.329 324.74 387.552 320.619 377.103C317.143 368.284 318.587 355.905 318.702 346.594C318.846 335.287 320.626 332.1 329.065 330.592C340.245 328.589 354.14 327.22 366.346 329.097C376.28 330.628 376.309 332.914 376.812 341.277C377.118 346.437 376.77 351.945 376.824 355.327Z" fill="#0080FF"/>
<path d="M318.674 264.978C318.592 260.009 318.745 255.044 319.039 250.082C319.511 242.086 318.606 241.709 324.855 240.164C333.717 237.974 370.756 232.751 374.879 243.2C378.359 252.024 376.911 264.395 376.798 273.704C376.671 283.915 375.427 288.094 366.438 289.71C356.266 291.533 343.856 292.827 332.506 291.636C324.298 290.778 319.444 288.196 318.785 280.34C318.322 274.824 318.738 268.65 318.674 264.978Z" fill="#FFC522"/>
<path d="M412.914 277.484C412.73 259.081 412.309 240.637 411.314 222.234C410.86 213.901 409.619 212.062 399.88 211.526C304.039 206.237 207.729 206.241 111.975 213.101C103.697 213.685 100.381 215.333 99.9881 223.739C98.8074 249.202 99.1367 274.777 100.125 300.221C101.122 325.952 102.321 352.239 106.752 377.524C108.453 387.219 110.847 397.148 118.352 404.119C129.914 414.862 149.302 415.215 164.19 416.687C201.384 420.363 238.971 420.492 276.298 419.441C309.158 418.512 342.229 416.833 374.828 412.409C381.136 411.55 388.185 411.117 393.737 407.774C400.178 403.893 403.241 396.459 405.515 389.629C408.492 380.699 409.488 372.206 410.339 363.185C413.02 334.749 413.191 306.018 412.914 277.484ZM131.449 230.065C143.21 225.251 157.646 225.044 170.156 225.322C177.014 225.477 193.296 224.045 198.453 230.131C207.465 240.768 206.47 256.752 206.313 269.875C206.207 278.488 207.912 295.144 197.83 299.069C182.166 305.165 158.46 307.194 140.456 303.288C130.929 301.214 127.096 300.235 124.191 288.405C121.999 279.468 122.627 268.664 122.733 260.992C122.855 252.21 121.225 234.252 131.449 230.065ZM197.585 390.241C185.821 395.055 171.387 395.259 158.876 394.982C154.77 394.888 147.276 395.368 140.821 394.457C132.328 393.256 127.493 389.867 124.367 377.543C122.154 368.813 122.615 359.01 122.721 350.426C122.827 341.821 121.122 325.153 131.202 321.23C149.057 314.285 177.343 312.618 195.744 319.001C197.004 319.133 198.274 319.706 199.41 320.918C207.748 329.801 206.454 347.969 206.299 359.312C206.176 368.091 207.809 386.052 197.585 390.241ZM223.065 230.065C234.827 225.251 249.262 225.044 261.774 225.322C268.63 225.477 284.921 224.04 290.072 230.131C299.077 240.776 298.089 256.747 297.927 269.875C297.824 278.483 299.531 295.144 289.446 299.069C271.594 306.018 243.295 307.681 224.902 301.3C223.644 301.164 222.374 300.59 221.24 299.383C212.9 290.508 214.194 272.327 214.352 260.992C214.471 252.21 212.841 234.252 223.065 230.065ZM289.195 390.241C277.435 395.057 263.002 395.259 250.494 394.982C243.636 394.827 227.35 396.264 222.195 390.173C213.185 379.533 214.178 363.559 214.34 350.426C214.443 341.816 212.736 325.155 222.821 321.23C240.673 314.285 268.971 312.618 287.362 319.001C288.621 319.139 289.891 319.711 291.022 320.918C299.364 329.789 298.073 347.976 297.917 359.312C297.795 368.093 299.423 386.05 289.195 390.241ZM314.686 230.065C326.445 225.251 340.881 225.044 353.39 225.322C360.244 225.477 376.534 224.04 381.685 230.131C390.695 240.776 389.707 256.742 389.545 269.875C389.437 278.483 391.144 295.144 381.064 299.069C365.444 305.151 341.824 307.184 323.842 303.323C314.745 301.366 310.984 301.112 307.76 289.668C305.177 280.507 305.855 269.03 305.967 260.992C306.09 252.21 304.458 234.252 314.686 230.065ZM380.813 390.241C369.054 395.057 354.623 395.259 342.111 394.982C335.255 394.827 318.968 396.264 313.809 390.173C304.803 379.533 305.796 363.554 305.956 350.426C306.062 341.821 304.357 325.153 314.441 321.23C332.292 314.285 360.589 312.618 378.981 319.001C380.239 319.139 381.504 319.711 382.64 320.918C390.982 329.789 389.691 347.976 389.533 359.312C389.414 368.093 391.041 386.05 380.813 390.241Z" fill="white"/>
<path d="M285.21 355.327C285.293 360.294 285.14 365.259 284.846 370.221C284.373 378.217 285.274 378.594 279.028 380.139C270.168 382.329 233.124 387.553 229.004 377.103C225.523 368.284 226.972 355.906 227.084 346.595C227.218 335.903 228.524 332.185 237.444 330.593C248.408 328.629 261.977 327.274 274.006 328.989C281.123 330.003 284.46 333.46 285.036 339.25C285.603 344.939 285.147 351.496 285.21 355.327Z" fill="#FFC522"/>
<path d="M408.857 189.622C408.563 186.643 408.257 183.75 407.926 180.876C405.278 185.126 400.729 188.428 393.419 190.239C379.52 193.675 364.134 191.36 349.94 191.13C317.969 190.615 285.984 190.845 254.013 191.142C222.646 191.433 191.275 191.84 159.92 192.717C149.586 193.009 139.21 193.858 128.875 193.846C121.163 193.837 112.607 192.44 108.141 185.495C105.876 181.972 105.305 177.551 105.491 173.002C103.616 179.757 102.623 186.967 101.97 193.917C101.332 200.683 103.654 201.005 109.806 200.552C206.662 193.524 304.104 193.501 401.055 198.894C408.396 199.298 409.727 198.406 408.857 189.622Z" fill="#0057FA"/>
<path d="M150.475 160.001C149.922 158.075 149.492 156.043 149.132 153.905C148.375 149.408 147.822 144.836 147.448 140.227C139.661 141.351 131.707 142.788 124.793 146.327C119.085 149.253 114.856 153.524 111.658 158.583C117.434 155.21 123.467 152.499 130.341 150.685C138.293 148.583 144.934 153.877 150.475 160.001Z" fill="#30C8FF"/>
<path d="M394.95 144.221C389.581 139.545 381.977 138.534 374.79 137.906C374.503 142.325 374.064 146.73 373.44 151.119C372.674 156.521 371.766 160.801 370.397 164.355C372.091 162.814 373.61 160.994 374.959 159.049C379.036 153.186 382.128 148.614 390.025 148.724C393.586 148.776 397.038 149.785 400.359 151.25C398.944 148.609 397.206 146.182 394.95 144.221Z" fill="#30C8FF"/>
<path d="M305.236 144.34C311.849 145.601 317.617 148.827 323.12 152.562C322.16 146.515 321.504 140.347 321.233 134.14C281.118 132.393 240.842 132.421 200.759 134.866C200.501 140.304 200.033 145.725 199.266 151.118C198.89 153.766 198.436 156.141 197.917 158.387C198.535 157.554 199.165 156.718 199.834 155.887C204.14 150.541 210.523 148.081 216.974 146.545C231.64 143.058 247.715 143.123 262.715 142.891C276.591 142.673 291.567 141.732 305.236 144.34Z" fill="#30C8FF"/>
<path d="M356.859 146.148C352.572 153.612 346.685 156.355 340.777 148.686C336.415 143.025 335.382 136.044 333.823 129.33C333.891 136.905 334.469 144.405 335.665 151.2C337.351 160.765 341.396 168.326 351.017 165.88C358.906 163.864 360.072 156.209 361.164 147.935C361.493 145.461 361.804 140.165 362.038 135.028C360.517 138.878 358.865 142.649 356.859 146.148Z" fill="#A2ABBD"/>
<path d="M181.228 150.49C174.8 158.63 168.735 154.277 164.064 146.911C161.787 143.325 160.672 139.326 159.81 135.26C160.068 140.787 160.612 146.189 161.494 151.201C163.349 161.728 166.933 165.942 173.787 166.208C183.606 166.589 185.763 157.262 186.995 147.936C187.379 145.039 187.639 142.118 187.846 139.188C186.026 143.148 183.986 146.998 181.228 150.49Z" fill="#A2ABBD"/>
<path d="M354.726 98.89C357.675 100.515 359.747 103.441 361.264 106.501C361.111 105.536 360.977 104.565 360.791 103.631C358.033 89.88 347.583 91.2208 343.559 92.6224C337.823 94.6189 336.217 99.3416 335.312 105.544C339.618 98.7979 345.951 94.0427 354.726 98.89Z" fill="#F0F2F6"/>
<path d="M177.27 98.3972C182.509 99.3262 185.433 103.764 187.42 108.62C187.006 105.29 185.891 98.063 182.768 94.937C180.341 92.5005 171.272 90.0193 166.122 94.3609C163.064 96.9335 161.697 102.458 161.084 106.143C164.605 100.786 169.53 97.0232 177.27 98.3972Z" fill="#F0F2F6"/>
<path d="M261.061 286.968C255.311 287.087 249.457 286.874 243.709 286.671C235.931 286.396 230.188 284.329 226.976 276.387C227.014 278.113 227.096 279.844 227.28 281.495C228.336 291.107 229.549 289.888 236.79 291.088C249.175 293.139 263.411 291.753 274.82 289.71C284.39 287.993 285.067 282.972 285.182 273.703C285.232 269.766 285.499 265.286 285.551 260.754C285.262 264.014 284.85 267.264 284.142 270.526C281.511 282.671 272.482 286.735 261.061 286.968Z" fill="#FFA222"/>
<path d="M170.156 286.968C164.405 287.088 158.552 286.874 152.804 286.672C144.77 286.39 138.881 284.25 135.736 275.642C135.576 275.209 135.461 274.753 135.334 274.309C135.336 276.982 135.423 279.758 135.757 282.302C136.526 288.159 140.452 290.259 144.499 290.973C157.037 293.191 171.583 291.794 183.201 289.71C191.038 288.301 193.293 287.619 193.481 279.809C193.549 277.095 193.556 274.515 193.564 273.703C193.587 271.832 193.665 269.816 193.745 267.744C193.587 268.673 193.434 269.597 193.234 270.526C190.605 282.671 181.576 286.735 170.156 286.968Z" fill="#FFA222"/>
<path d="M193.239 360.886C190.608 373.031 181.579 377.095 170.156 377.328C164.408 377.448 158.554 377.234 152.806 377.031C144.772 376.749 138.883 374.609 135.739 366.002C135.511 365.374 135.327 364.727 135.158 364.078C135.247 366.601 135.423 369.097 135.842 371.458C136.934 377.587 137.742 380.705 146.444 382.453C159.144 385 180.899 381.75 187.414 380.139C193.658 378.598 192.759 378.218 193.23 370.221C193.448 366.51 193.549 362.796 193.57 359.08C193.458 359.682 193.37 360.281 193.239 360.886Z" fill="#FFA222"/>
<path d="M376.039 270.526C373.407 282.671 364.378 286.735 352.958 286.968C347.207 287.088 341.356 286.874 335.606 286.672C327.605 286.39 321.735 284.259 318.581 275.736C318.6 277.277 318.659 278.834 318.786 280.341C319.444 288.196 324.298 290.778 332.506 291.637C343.857 292.827 356.267 291.533 366.439 289.711C375.428 288.095 376.672 283.916 376.799 273.704C376.834 270.696 377.003 267.364 377.107 263.941C376.841 266.133 376.516 268.328 376.039 270.526Z" fill="#FFA222"/>
<path d="M261.062 377.329C255.311 377.449 249.457 377.236 243.709 377.033C235.866 376.758 230.086 374.667 226.887 366.558C227.157 370.326 227.757 373.946 229.004 377.104C233.124 387.553 270.168 382.33 279.028 380.141C285.274 378.596 284.373 378.219 284.846 370.223C285.14 365.26 285.293 360.296 285.21 355.328C285.205 355.018 285.205 354.665 285.21 354.324C284.94 356.509 284.615 358.696 284.143 360.888C281.511 373.032 272.482 377.096 261.062 377.329Z" fill="#FFA222"/>
<path d="M150.407 245.612C145.847 246.149 143.756 248.816 142.827 252.995C141.347 259.662 142.542 264.827 146.136 267.784C148.497 269.724 151.893 270.712 156.242 270.545C162.648 270.301 169.788 270.331 176.098 269.315C181.154 268.501 184.76 265.096 185.976 259.877C186.867 256.043 186.443 252.09 184.922 249.11C183.16 245.664 181.152 244.63 178.367 244.423C176.265 244.265 157.063 244.836 150.407 245.612Z" fill="#FBE134"/>
<path d="M150.407 337.594C145.847 338.13 143.756 340.797 142.827 344.976C141.347 351.644 142.542 356.806 146.136 359.763C148.497 361.703 151.893 362.693 156.242 362.526C162.648 362.279 169.788 362.313 176.098 361.296C181.154 360.482 184.76 357.077 185.976 351.858C186.867 348.025 186.443 344.071 184.922 341.091C183.16 337.646 181.152 336.609 178.367 336.404C176.265 336.243 157.063 336.815 150.407 337.594Z" fill="#FBE134"/>
<path d="M241.694 245.612C237.134 246.149 235.04 248.816 234.112 252.995C232.633 259.662 233.827 264.827 237.421 267.784C239.782 269.724 243.179 270.712 247.527 270.545C253.933 270.301 261.076 270.331 267.384 269.315C272.442 268.501 276.048 265.096 277.261 259.877C278.151 256.043 277.729 252.09 276.205 249.11C274.448 245.664 272.435 244.63 269.653 244.423C267.55 244.265 248.349 244.836 241.694 245.612Z" fill="#FBE134"/>
<path d="M333.931 245.612C329.371 246.149 327.28 248.816 326.351 252.995C324.869 259.662 326.064 264.827 329.655 267.784C332.021 269.724 335.414 270.712 339.763 270.545C346.17 270.301 353.315 270.331 359.62 269.315C364.681 268.501 368.284 265.096 369.497 259.877C370.386 256.043 369.965 252.09 368.441 249.11C366.684 245.664 364.671 244.63 361.889 244.423C359.788 244.265 340.587 244.836 333.931 245.612Z" fill="#FBE134"/>
<path d="M241.694 337.594C237.134 338.13 235.04 340.797 234.112 344.976C232.633 351.644 233.827 356.806 237.421 359.763C239.782 361.703 243.179 362.693 247.527 362.526C253.933 362.279 261.076 362.313 267.384 361.296C272.442 360.482 276.048 357.077 277.261 351.858C278.151 348.025 277.729 344.071 276.205 341.091C274.448 337.646 272.435 336.609 269.653 336.404C267.55 336.243 248.349 336.815 241.694 337.594Z" fill="#FBE134"/>
<path d="M370.646 380.14C376.888 378.599 375.992 378.214 376.465 370.222C376.639 367.266 376.742 364.307 376.794 361.349C374.726 368.55 370.67 373.541 361.606 376.146C352.786 378.686 342.036 378.639 332.997 377.028C321.132 374.909 322.243 361.132 322.647 352.078C322.894 346.504 322.885 337.174 326.398 331.205C320.255 332.964 318.83 336.607 318.703 346.596C318.588 355.907 317.144 368.284 320.62 377.104C324.741 387.553 361.787 382.329 370.646 380.14Z" fill="#0057FA"/>
<path d="M356.549 335.938C351.239 336.315 345.253 336.896 342.621 337.181C337.95 337.686 335.507 340.809 334.696 345.191C333.962 349.17 333.504 356.633 336.217 360.05C339.689 364.427 346.304 364.126 351.41 364.307C355.424 364.45 362.732 364.878 366.137 361.986C369.542 359.094 370.253 354.013 370.53 349.436C371.201 338.871 364.908 335.343 356.549 335.938Z" fill="#30C8FF"/>
<path d="M208.312 353.193C208.604 341.471 209.154 328.287 201.654 318.485C194.349 308.934 178.009 312.135 167.834 312.389C155.603 312.69 135.247 311.041 126.167 321.06C118.34 329.691 121.55 349.381 122.164 359.58C122.277 361.412 122.475 363.195 122.726 364.945C122.519 359.987 122.665 355.032 122.721 350.425C122.827 341.819 121.122 325.151 131.202 321.229C149.057 314.284 177.343 312.616 195.744 318.999C197.005 319.131 198.275 319.705 199.411 320.916C207.748 329.799 206.454 347.968 206.299 359.311C206.238 363.612 206.593 370.124 205.772 376.138C208.477 369.068 208.133 360.465 208.312 353.193Z" fill="#A2ABBD"/>
<path d="M201.654 229.072C194.349 219.524 178.009 222.722 167.834 222.976C155.603 223.277 135.247 221.631 126.167 231.647C118.34 240.278 121.55 259.968 122.164 270.168C122.263 271.795 122.423 273.383 122.629 274.942C122.488 269.913 122.679 265.02 122.733 260.991C122.855 252.209 121.225 234.25 131.449 230.064C143.211 225.25 157.647 225.043 170.156 225.32C177.014 225.476 193.296 224.043 198.453 230.13C207.466 240.767 206.471 256.75 206.313 269.874C206.257 274.363 206.68 281.026 205.685 286.939C208.482 279.836 208.129 271.127 208.312 263.783C208.604 252.059 209.154 238.875 201.654 229.072Z" fill="#A2ABBD"/>
<path d="M299.39 353.193C299.684 341.471 300.231 328.287 292.736 318.485C285.429 308.934 269.089 312.135 258.916 312.389C246.684 312.69 226.327 311.041 217.246 321.06C209.419 329.691 212.63 349.381 213.246 359.58C213.448 362.941 213.89 366.159 214.619 369.206C214.033 362.866 214.264 356.356 214.339 350.425C214.443 341.814 212.735 325.154 222.82 321.229C240.672 314.284 268.97 312.616 287.361 318.999C288.62 319.138 289.89 319.71 291.021 320.916C299.363 329.787 298.072 347.974 297.916 359.311C297.865 363.04 298.119 368.431 297.66 373.713C299.482 367.16 299.232 359.651 299.39 353.193Z" fill="#A2ABBD"/>
<path d="M390.973 353.193C391.267 341.471 391.815 328.287 384.317 318.485C377.012 308.934 360.672 312.135 350.5 312.389C338.268 312.69 317.908 311.041 308.827 321.06C301.003 329.691 304.213 349.381 304.826 359.58C305.033 363.021 305.494 366.312 306.261 369.423C305.645 363.012 305.882 356.419 305.955 350.425C306.061 341.819 304.356 325.151 314.441 321.229C332.291 314.284 360.589 312.616 378.98 318.999C380.238 319.138 381.503 319.71 382.64 320.916C390.981 329.787 389.69 347.974 389.533 359.311C389.481 362.998 389.73 368.304 389.291 373.525C391.058 367.012 390.816 359.588 390.973 353.193Z" fill="#A2ABBD"/>
<path d="M384.318 229.072C377.013 219.524 360.673 222.722 350.501 222.976C338.269 223.277 317.909 221.631 308.828 231.647C301.003 240.278 304.214 259.968 304.827 270.168C305.022 273.371 305.425 276.45 306.09 279.375C305.599 272.846 305.895 266.197 305.968 260.991C306.09 252.209 304.458 234.25 314.686 230.064C326.445 225.25 340.881 225.043 353.391 225.32C360.244 225.476 376.535 224.038 381.686 230.13C390.696 240.774 389.708 256.741 389.546 269.874C389.499 273.642 389.8 278.947 389.306 284.056C391.053 277.557 390.816 270.161 390.974 263.783C391.268 252.059 391.815 238.875 384.318 229.072Z" fill="#A2ABBD"/>
<path d="M292.736 229.072C285.429 219.524 269.089 222.722 258.916 222.976C246.684 223.277 226.327 221.631 217.246 231.647C209.419 240.278 212.63 259.968 213.246 270.168C213.436 273.347 213.834 276.407 214.492 279.312C214.007 272.802 214.278 266.184 214.351 260.991C214.471 252.209 212.841 234.25 223.065 230.064C234.826 225.25 249.262 225.043 261.774 225.32C268.63 225.476 284.921 224.038 290.071 230.13C299.077 240.774 298.089 256.746 297.927 269.874C297.88 273.696 298.188 279.105 297.663 284.284C299.481 277.731 299.231 270.236 299.389 263.783C299.684 252.059 300.232 238.875 292.736 229.072Z" fill="#A2ABBD"/>
<path d="M410.339 363.184C412.905 335.983 413.168 308.515 412.942 281.201C412.377 308.868 410.71 336.55 406.211 363.704C404.129 376.232 401.792 395.806 390.719 403.269C384.577 407.408 374.555 407.359 367.478 408.38C355.013 410.179 342.436 411.284 329.891 412.333C281.417 416.385 232.903 417.241 184.349 413.92C167.997 412.801 150.685 412.119 134.941 407.201C106.719 398.382 107.843 360.206 105.919 336.227C103.374 304.454 101.159 272.558 99.4422 240.688C99.0117 260.535 99.3531 280.415 100.124 300.22C101.121 325.951 102.321 352.238 106.752 377.523C108.452 387.218 110.847 397.147 118.352 404.118C129.913 414.861 149.302 415.214 164.189 416.686C201.384 420.362 238.971 420.491 276.297 419.44C309.157 418.511 342.229 416.832 374.828 412.408C381.136 411.549 388.184 411.117 393.736 407.773C400.178 403.892 403.24 396.458 405.515 389.628C408.492 380.699 409.487 372.206 410.339 363.184Z" fill="#A2ABBD"/>
</svg>
