<svg width="512" height="512" viewBox="0 0 512 512" fill="none" xmlns="http://www.w3.org/2000/svg">
<path d="M458.538 109.113C446.108 94.9386 417.512 87.6644 400.48 103.765C406.611 97.4053 410.296 89.7337 410.879 81.5045C405.15 -3.22531 241.692 35.8391 269.522 157.74C229.298 189.058 190.509 231.873 159.302 273.136C111.275 257.661 53.6735 295.126 43.699 345.089C40.2557 360.905 38.8824 383.328 51.9119 400.35C65.6939 418.939 94.9035 423.655 111.39 406.54C116.555 401.389 119.02 395.733 120.649 391.992C121.082 390.642 121.919 389.28 123.349 388.939C126.305 388.149 130.452 387.145 132.211 389.158C132.204 389.395 132.152 389.863 131.957 390.538C131.108 393.471 130.402 394.364 130.433 394.364C104.786 404.167 94.4171 431.425 109.68 455.15C115.463 466.479 138.364 478.888 161.658 475.089C219.771 471.493 260.199 410.374 242.983 354.797C280.721 323.325 312.424 289.78 340.55 256.195C357.553 235.574 347.92 238.761 374.856 240.534C424.609 240.799 465.783 205.694 470.082 156.651C472.221 136.423 468.35 120.442 458.538 109.113ZM393.784 112.432C391.14 116.841 390.129 120.069 388.485 123.798C388.135 124.097 387.255 124.676 385.672 125.28C383.715 125.851 383.567 126.367 382.558 125.153C381.639 124.024 381.401 117.749 383.739 115.226C385.345 114.37 386.996 113.62 388.595 112.735C393.049 110.317 396.862 107.397 400.077 104.149C397.728 106.444 395.602 109.179 393.784 112.432Z" fill="white"/>
<path d="M116.736 366.87C126.381 363.98 136.649 363.829 145.097 370.005C154.198 376.656 157.148 386.407 154.083 396.962C152.639 401.939 150.487 406.8 146.823 410.551C143.109 414.361 138.521 416.164 133.85 418.484C124.793 422.976 123.539 434.413 128.841 442.359C135.489 452.317 148.549 453.202 159.452 452.155C172.28 450.92 185.024 446.591 195.468 438.931C216.25 423.686 226.475 396.445 223.225 371.155C222.115 362.512 214.768 348.669 222.969 341.287C241.247 327.016 258.139 310.927 274.47 294.492C291.291 277.572 307.605 260.056 322.73 241.597C328.403 234.675 333.995 227.622 338.963 220.174C344.555 211.792 356.054 215.696 364.252 216.792C389.878 220.204 417.775 211.1 433.653 190.054C441.461 179.701 445.826 167.06 447.171 154.233C448.206 144.426 447.926 132.055 441.156 124.237C440.332 123.292 422.609 109.131 413.552 124.268C410.964 128.591 410.064 133.561 406.929 137.667C403.627 141.99 398.895 144.904 393.867 146.815C383.065 150.926 372.924 149.304 365.078 140.159C358.22 132.17 357.724 121.676 360.17 111.855C361.534 106.37 364.465 101.551 368.667 97.7739C371.273 95.4246 374.575 94.1284 377.607 92.4871C387.955 86.871 394.232 76.5677 377.997 64.5141C368.286 57.3127 353.058 58.7993 342.035 61.6146C329.34 64.8483 317.192 71.7625 308.298 81.4336C290.407 100.886 285.624 129.512 292.498 154.562C293.876 159.579 294.426 166.519 290.443 170.644C287.355 173.836 282.851 176.291 279.37 179.08C270.395 186.282 261.834 193.996 253.492 201.917C234.459 219.995 216.477 239.241 199.581 259.33C191.758 268.632 184.171 278.15 176.998 287.968C168.927 299.02 163.153 298.879 153.052 295.346C129.371 287.047 101.725 298.858 84.8458 315.732C75.5654 325.012 69.0058 337.171 66.2122 349.996C63.7521 361.29 62.7599 376.614 70.213 386.349C75.8996 393.783 87.7177 397.624 95.1166 390.234C98.8302 386.527 99.6532 380.8 102.816 376.609C106.286 372.004 111.209 368.526 116.736 366.87Z" fill="#181C1D"/>
<path d="M92.3258 369.542C90.6515 371.812 89.2541 374.201 88.0854 376.769C86.4038 380.49 84.2093 384.189 80.0189 378.36C76.9826 374.117 77.1283 367.32 77.3119 362.353C77.5612 355.73 79.1254 349.086 81.6583 342.967C90.5202 321.562 114.121 305.137 137.517 305.454C143.152 305.534 148.258 306.894 153.361 309.208C163.766 313.923 176.673 308.427 181.694 303.001C185.394 299.005 188.254 293.921 191.537 289.563C206.05 270.304 222.08 252.133 238.706 234.682C254.748 217.841 271.486 201.373 289.76 186.935C292.977 184.395 296.938 182.22 299.764 179.263C303.76 175.077 305.583 169.044 306.119 163.4C306.721 157.022 304.534 151.405 303.327 145.262C302.156 139.327 301.89 133.214 302.288 127.182C303.983 101.487 320.877 79.7821 346.159 73.6674C350.865 72.5265 362.006 70.4945 368.534 73.2935C377.403 77.0962 372.768 80.2481 367.777 82.9737C362.751 85.7113 358.398 89.5423 354.929 94.0699C341.107 112.12 343.614 139.997 361.481 154.251C378.876 168.132 405.809 161.356 418.118 143.772C419.294 142.097 420.317 140.322 421.211 138.48C424.981 130.771 430.832 128.146 433.478 135.825C434.2 137.925 434.431 140.279 434.621 142.394C435.204 148.795 434.657 155.253 433.137 161.488C427.041 186.462 405.75 202.787 380.338 204.645C374.828 205.05 369.221 204.906 363.771 203.965C357.671 202.919 352.574 201.529 346.337 202.564C341.65 203.342 336.756 204.901 332.951 207.82C329.834 210.205 328.005 213.836 325.77 216.999C314.242 233.358 300.652 248.375 287.071 263.027C271.13 280.235 254.552 296.906 237.164 312.653C229.655 319.455 221.976 326.071 213.987 332.306C208.526 336.553 204.227 349.046 208.491 362.685C212.037 374.037 211.95 386.243 208.752 397.668C201.979 421.862 181.061 438.816 155.751 439.705C151.36 439.86 145.621 440.196 141.788 437.708C137.239 434.759 137.336 430.832 142.681 428.421C144.558 427.569 146.4 426.64 148.154 425.556C152.761 422.715 156.687 419.074 159.801 414.651C165.048 407.188 168.371 397.033 168.129 387.837C167.783 374.796 159.695 363.5 148.535 357.132C130.491 346.833 104.49 353.027 92.3258 369.542Z" fill="#DADFE9"/>
<path d="M433.138 161.489C434.657 155.254 435.205 148.796 434.622 142.394C434.431 140.279 434.201 137.925 433.479 135.825C430.833 128.146 424.982 130.771 421.212 138.48C420.318 140.322 419.295 142.098 418.119 143.772C405.809 161.357 378.876 168.133 361.482 154.252C353.81 148.132 348.994 139.496 347.06 130.211C347.178 135.863 348.295 141.361 350.668 145.989C357.782 159.868 371.531 166.291 386.668 167.147C402.284 168.031 413.072 159.284 421.233 148.443C427.665 139.875 428.276 139.697 429.22 149.078C429.589 152.726 429.45 156.317 428.681 159.238C425.638 170.812 419.45 180.903 409.937 187.634C399.732 194.854 385.426 197.557 373.361 197.115C364.847 196.806 354.708 191.607 346.225 192.992C330.776 195.508 325.028 207.735 315.454 219.13C261.942 282.797 237.408 302.465 220.754 316.913C207.788 328.155 197.905 330.798 198.811 349.138C199.187 356.793 202.36 365.438 203.858 372.922C206.114 384.143 204.225 397.397 199.394 407.772C192.962 421.601 173.308 434.527 157.167 435.632C142.197 436.669 148.768 430.481 155.615 424.662C172.511 410.335 183.108 384.916 171.962 365.008C156.301 337.025 115.51 340.494 98.0527 363.385C111.465 351.661 132.957 348.242 148.535 357.131C159.695 363.5 167.783 374.796 168.129 387.837C168.371 397.033 165.048 407.188 159.801 414.65C156.687 419.075 152.762 422.715 148.154 425.556C146.4 426.64 144.558 427.569 142.681 428.42C137.336 430.831 137.239 434.759 141.788 437.708C145.621 440.196 151.36 439.86 155.751 439.705C181.061 438.815 201.979 421.861 208.752 397.668C211.951 386.242 212.037 374.036 208.491 362.684C204.227 349.046 208.526 336.553 213.987 332.305C221.976 326.071 229.655 319.455 237.164 312.653C254.552 296.905 271.13 280.235 287.071 263.027C300.653 248.375 314.242 233.358 325.77 216.999C328.005 213.835 329.834 210.204 332.951 207.819C336.756 204.901 341.65 203.341 346.337 202.563C352.574 201.528 357.671 202.919 363.771 203.965C369.221 204.906 374.827 205.049 380.338 204.645C405.75 202.787 427.042 186.463 433.138 161.489Z" fill="#A2ABBD"/>
<path d="M300.771 188.229C309.031 180.637 315.961 173.195 314.035 161.467C310.484 139.882 306.483 120.625 316.205 99.7166C320.782 89.8835 327.417 82.8513 335.253 77.541C316.114 86.5228 303.724 105.397 302.287 127.181C301.89 133.214 302.155 139.326 303.327 145.262C304.534 151.405 306.721 157.021 306.119 163.4C305.582 169.044 303.76 175.077 299.764 179.263C296.937 182.219 292.977 184.395 289.759 186.935C271.485 201.373 254.747 217.84 238.705 234.682C222.08 252.133 206.05 270.303 191.536 289.563C188.253 293.92 185.393 299.005 181.694 303.001C176.672 308.427 163.766 313.923 153.361 309.208C148.257 306.893 143.151 305.534 137.517 305.454C114.121 305.137 90.5193 321.562 81.6579 342.966C80.8843 344.841 80.2328 346.769 79.6494 348.726C88.8334 332.089 104.148 318.808 122.945 314.426C140.038 310.442 154.619 322.23 171.021 319.939C177.995 318.968 183.507 312.724 187.844 307.81C196.898 297.559 204.831 286.248 213.686 275.804C229.135 257.57 245.653 240.286 262.786 223.633C275.197 211.568 288.033 199.941 300.771 188.229Z" fill="#F0F2F6"/>
</svg>
