<svg width="512" height="512" viewBox="0 0 512 512" fill="none" xmlns="http://www.w3.org/2000/svg">
<path d="M75.8331 385.919C85.6192 417.817 117.96 424.036 131.139 426.571C162.332 432.573 194.072 434.382 221.375 435.605C282.175 439.641 368.554 438.89 415.445 418.702C440.361 409.224 455.594 389.981 460.725 361.5C466.13 331.355 465.887 301.251 466.047 271.625C466.193 244.402 465.77 212.287 461.555 180.439C459.824 167.357 455.57 135.203 427.126 121.245C417.101 92.0115 388.433 82.8793 366.924 81.6119C287.109 72.7349 225.462 73.0125 152.884 77.5635C76.3882 77.8176 50.9904 118.076 48.6055 185.431C44.3748 238.148 45.1575 290.881 50.9783 342.01C50.9031 355.075 60.0474 378.777 75.8331 385.919Z" fill="white"/>
<path d="M79.1419 358.325C82.9705 364.207 88.7775 367.433 96.1553 369.449C97.7309 392.695 113.463 399.708 135.495 403.946C164.054 409.442 193.409 411.288 222.405 412.587C281.46 415.233 350.922 418.587 407.254 397.169C425.829 390.104 434.632 376.395 438.049 357.42C443.096 329.374 442.854 299.888 443.009 271.502C443.164 242.191 442.565 212.546 438.714 183.458C436.024 163.11 430.391 144.152 408.876 139.091C407.124 132.631 404.643 126.396 400.936 120.57C392.406 107.16 375.888 105.941 361.66 104.182C318.342 98.8362 274.324 97.6507 230.723 97.6465C208.03 97.6465 185.342 98.4039 162.707 100.031C144.511 101.341 120.146 101.365 103.81 110.351C75.1177 126.137 73.5607 161.382 71.3264 190.526C67.608 239.021 68.2546 289.04 73.6691 337.498C74.3699 343.755 74.692 351.499 79.1419 358.325Z" fill="#181C1D"/>
<path d="M402.161 202.455C401.606 183.815 401.982 163.765 397.554 145.517C391.609 121.037 375.566 118.219 353.605 115.98C312.833 111.825 271.702 110.15 230.723 110.345C208.047 110.454 185.321 110.922 162.707 112.73C144.177 114.214 113.166 112.989 100.097 128.501C78.9156 153.645 82.7327 200.924 82.3402 231.545C81.8627 268.669 82.6249 306.08 87.0201 342.985C90.6229 362.828 116.306 360.225 131.719 361.989C146.324 363.658 160.941 365.215 175.588 366.396C202.355 368.56 229.191 370.147 256.048 370.441C282.849 370.73 309.762 370.434 336.467 367.941C353.219 366.377 372.454 365.442 388.247 358.908C401.963 353.238 400.226 338.71 400.71 326.186C401.312 310.481 401.852 294.773 402.153 279.06C402.641 253.538 402.928 227.978 402.161 202.455ZM213.917 300.25C213.206 308.632 212.038 313.221 207.099 317.09C200.006 322.643 182.652 320.443 174.403 320.594C157.968 320.9 141.2 321.252 124.826 319.474C112.343 318.122 109.09 312.304 108.22 299.35C107.145 283.286 103.826 257.042 114.626 243.394C121.346 234.904 134.375 236.872 144.173 236.677C160.579 236.348 177.228 235.988 193.604 237.357C200.911 237.969 205.471 241.005 208.411 245.746C212.984 253.129 213.397 263.999 214.237 272.948C214.945 280.467 214.599 292.214 213.917 300.25ZM372.742 208.585C368.107 216.967 361.404 218.648 352.537 219.201C327.888 220.737 303.101 220.737 278.412 220.911C230.554 221.256 182.352 222.099 134.544 219.375C128.056 219.006 122.063 218.895 116.456 215.224C108.013 209.701 107.82 194.772 107.736 186.044C107.554 167.173 107.204 138.873 131.177 137.904C178.139 136.011 225.295 136.617 272.285 136.803C295.291 136.895 318.307 136.98 341.305 137.542C347.223 137.69 353.163 137.761 359.062 138.269C369.786 139.193 372.759 151.776 374.648 160.299C376.91 174.17 379.958 195.544 372.742 208.585Z" fill="white"/>
<path d="M116.753 257.665C119.05 241.992 132.165 244.6 144.173 244.297C156.313 243.989 168.47 244.069 180.611 244.372C184.945 244.485 189.275 244.683 193.604 244.977C202.69 245.593 204.369 253.935 205.538 261.785C206.622 276.249 207.292 291.24 205.004 305.619C203.468 315.288 184.928 312.675 177.659 312.894C166.455 313.234 155.239 313.169 144.034 312.894C135.852 312.696 117.947 315.518 116.689 305.619C114.431 287.827 114.657 271.936 116.753 257.665Z" fill="#FFC522"/>
<path d="M413.41 326.187C415.691 271.41 417.651 215.704 412.544 161.026C412.048 155.68 413.071 153.187 417.994 159.455C426.745 170.608 426.971 189.74 428.102 203.39C430.124 227.88 430.407 252.542 430.275 277.102C430.148 300.597 429.287 324.163 426.7 347.524C424.004 371.863 414.098 382.512 390.568 389.314C344.399 402.668 292.679 401.402 245.108 400.584C219.671 400.154 194.238 398.66 168.936 396C151.253 394.145 120.352 393.875 111.283 377.03C109.124 373.018 110.274 372.002 115.963 372.741C142.699 376.21 169.543 378.792 196.441 380.666C249.621 384.373 303.756 385.21 356.722 378.416C371.351 376.544 387.028 374.437 400.088 367.197C413.989 359.492 412.853 339.534 413.41 326.187Z" fill="#0080FF"/>
<path d="M115.598 173.035C115.899 166.617 117.183 146.455 126.671 145.761C129.648 145.542 132.637 145.465 135.617 145.361C156.692 144.653 177.8 144.606 198.887 144.484C248.186 144.195 297.561 143.903 346.851 145.309C359.079 145.657 364.158 148.134 367.298 162.323C369.032 172.939 374.217 209.369 357.265 211.201C350.386 211.944 343.417 212.067 336.507 212.302C312.815 213.099 289.097 213.25 265.395 213.37C220.112 213.595 174.23 214.813 129.032 211.397C112.065 210.115 115.05 184.708 115.598 173.035Z" fill="#0080FF"/>
<path d="M144.034 312.894C155.238 313.169 166.454 313.235 177.659 312.894C184.928 312.675 203.468 315.288 205.004 305.62C206.467 296.424 206.714 286.974 206.424 277.576C205.375 284.606 203.025 291.276 198.423 296.749C190.259 306.462 172.249 303.91 160.923 304.667C149.326 305.446 137.122 306.294 126.656 300.338C119.563 296.304 116.637 288.757 115.095 280.659C115.076 288.543 115.575 296.85 116.689 305.62C117.947 315.519 135.852 312.696 144.034 312.894Z" fill="#FFA222"/>
<path d="M180.749 252.465C167.141 251.87 135.229 251.362 131.033 255.236C127.294 258.688 127.47 266.852 128.037 271.064C128.556 274.926 132.181 276.16 136.089 276.802C142.348 277.83 169.492 277.898 183.202 276.607C191.732 275.808 195.198 275.147 195.556 269.286C195.693 267.087 194.931 262.424 193.841 259.119C192.01 253.545 187.261 252.74 180.749 252.465Z" fill="#FBE134"/>
<path d="M212.551 308.889C214.86 304.736 216.071 299.696 216.568 295.258C218.155 281.041 216.349 264.489 213.106 250.514C210.309 238.465 199.994 235.234 189.037 234.559C172.741 233.555 156.299 233.755 139.998 234.437C130.127 234.849 120.932 234.571 114.114 242.732C111.129 246.304 109.436 251.28 108.686 256.706C109.864 251.657 111.724 247.066 114.626 243.395C121.345 234.905 134.375 236.873 144.172 236.678C160.579 236.349 177.227 235.989 193.604 237.358C200.911 237.97 205.471 241.006 208.411 245.747C212.983 253.13 213.397 264 214.237 272.949C214.945 280.468 214.599 292.215 213.917 300.252C213.623 303.715 213.233 306.504 212.551 308.889Z" fill="#A2ABBD"/>
<path d="M143.272 134.644C135.229 135.106 124.528 134.019 117.728 139.428C110.13 145.472 108.382 153.323 107.382 162.688C106.597 170.028 105.891 180.576 107.798 189.814C107.763 188.478 107.747 187.199 107.735 186.044C107.554 167.173 107.204 138.873 131.176 137.904C178.138 136.011 225.295 136.617 272.285 136.804C295.291 136.895 318.306 136.98 341.305 137.542C347.222 137.69 353.163 137.761 359.061 138.269C369.786 139.193 372.758 151.776 374.647 160.299C376.801 173.507 379.647 193.502 373.685 206.642C376.23 203.35 377.789 199.401 378.739 193.651C380.818 181.01 379.502 167.757 376.707 155.339C375.139 148.387 372.008 141.099 365.585 137.465C359.656 134.111 351.021 135.066 344.473 134.868C308.318 133.755 272.107 133.76 235.94 133.69C205.121 133.628 174.058 132.876 143.272 134.644Z" fill="#A2ABBD"/>
<path d="M402.552 250.288C401.675 264.754 400.543 279.203 399.022 293.618C397.75 305.714 396.038 317.779 394.125 329.79C392.641 339.084 389.558 346.911 380.957 351.638C366.411 359.639 346.707 359.912 330.677 361.38C306.794 363.565 282.869 364.72 258.889 364.806C231.306 364.9 203.724 363.745 176.21 361.944C161.064 360.952 145.937 359.67 130.826 358.23C121.421 357.337 110.062 357.812 101.644 352.713C95.1156 348.755 93.1943 340.21 91.821 333.294C89.2953 320.542 88.7613 307.287 87.7498 294.356C86.1459 273.858 84.5702 253.364 83.7021 232.815C82.8038 211.632 82.6581 190.331 84.4829 169.182C81.416 190.541 82.5659 213.827 82.3402 231.546C81.8627 268.67 82.6249 306.081 87.0201 342.986C90.6229 362.828 116.306 360.225 131.719 361.989C146.324 363.659 160.941 365.216 175.588 366.396C202.355 368.56 229.191 370.147 256.048 370.442C282.849 370.731 309.762 370.434 336.467 367.942C353.219 366.378 372.454 365.442 388.247 358.908C401.963 353.238 400.226 338.711 400.71 326.187C401.312 310.481 401.852 294.773 402.153 279.061C402.336 269.471 402.467 259.88 402.552 250.288Z" fill="#DADFE9"/>
<path d="M402.07 198.857C401.641 181.247 401.7 162.599 397.554 145.517C391.608 121.037 375.566 118.219 353.605 115.98C312.833 111.825 271.702 110.15 230.723 110.345C208.046 110.454 185.321 110.922 162.707 112.73C144.177 114.214 113.166 112.989 100.096 128.501C97.0649 132.102 94.5904 136.194 92.5 140.588C102.018 130.747 114.06 124.442 128.763 121.58C140.223 119.351 152.206 118.85 163.826 118.04C208.276 114.941 252.976 114.694 297.484 116.564C320.373 117.528 344.963 117.457 367.288 123.116C385.806 127.808 391.897 142.281 395.55 159.155C398.379 172.223 400.452 185.496 402.07 198.857Z" fill="#F0F2F6"/>
<path d="M416.684 167.206C416.449 163.704 416.155 160.268 415.664 156.907C412.783 154.31 412.141 156.681 412.545 161.025C417.651 215.703 415.692 271.41 413.411 326.186C412.853 339.533 413.989 359.491 400.09 367.195C387.03 374.434 371.353 376.541 356.724 378.414C303.758 385.208 249.623 384.371 196.443 380.664C169.545 378.79 142.701 376.208 115.965 372.739C111.647 372.179 109.957 372.635 110.328 374.639C145.952 382.967 183.529 385.074 219.762 386.638C266.052 388.633 312.801 388.919 358.94 384.185C373.576 382.685 392.983 382.189 405.18 372.722C415.827 364.46 417.351 350.711 418.197 338.119C420.841 298.679 419.533 258.648 418.689 219.168C418.314 201.841 417.834 184.501 416.684 167.206Z" fill="#0057FA"/>
<path d="M129.032 211.397C174.229 214.815 220.112 213.596 265.394 213.37C289.096 213.251 312.815 213.1 336.507 212.303C343.417 212.068 350.385 211.945 357.265 211.202C365.292 210.335 368.325 201.694 369.142 191.729C357.712 201.567 341.667 205.024 324.386 205.941C296.874 207.392 269.127 207.507 241.582 207.34C212.885 207.171 183.694 208.937 155.088 206.722C140.829 205.624 123.874 203.558 116.624 189.518C116.008 188.328 115.511 187.082 115.062 185.818C115.015 197.479 117.011 210.49 129.032 211.397Z" fill="#0057FA"/>
<path d="M337.084 152.514C308.568 150.825 279.64 151.32 251.128 151.159C219.437 150.978 187.72 150.83 156.029 151.291C149.961 151.383 143.18 151.296 137.291 152.573C131.762 153.78 127.846 158.057 126.381 162.554C123.444 171.583 129.453 175.92 140.029 176.214C177.983 177.268 297.224 176.64 338.48 176.139C351.448 175.988 358.645 174.319 355.216 163.622C353.514 158.3 347.857 153.144 337.084 152.514Z" fill="#30C8FF"/>
<path d="M372.632 283.16C326.752 284.318 280.823 284.146 234.931 284.146C230.018 284.146 230.018 276.526 234.931 276.526C280.823 276.526 326.752 276.698 372.632 275.541C377.547 275.418 377.535 283.038 372.632 283.16Z" fill="#181C1D"/>
<path d="M372.632 343.777C286.302 347.478 197.72 352.361 111.503 344.76C106.649 344.332 106.604 336.707 111.503 337.14C197.72 344.741 286.302 339.859 372.632 336.157C377.545 335.945 377.524 343.565 372.632 343.777Z" fill="#181C1D"/>
<path d="M372.632 252.186C326.752 253.341 280.823 253.169 234.931 253.169C230.018 253.169 230.018 245.549 234.931 245.549C280.823 245.549 326.752 245.721 372.632 244.566C377.547 244.441 377.535 252.061 372.632 252.186Z" fill="#181C1D"/>
<path d="M372.632 314.137C326.752 315.292 280.823 315.123 234.931 315.123C230.018 315.123 230.018 307.503 234.931 307.503C280.823 307.503 326.752 307.672 372.632 306.517C377.547 306.394 377.535 314.015 372.632 314.137Z" fill="#181C1D"/>
</svg>
