<svg width="1106" height="1106" viewBox="0 0 1106 1106" fill="none" xmlns="http://www.w3.org/2000/svg">
<path d="M2.14812 425.785L86.6953 253.135C88.0017 250.468 91.2328 249.463 93.7358 251.063C135.928 278.024 454.32 484.793 450.158 582.156C446.031 678.714 195.373 829.832 158.322 851.655C155.79 853.146 152.699 851.998 151.469 849.328L71.3496 675.438C70.1313 672.793 71.4128 669.654 74.1419 668.641L245.136 605.131C289.106 587.638 280.995 576.957 245.136 557.414L4.33507 432.421C1.92463 431.17 0.953695 428.224 2.14812 425.785Z" fill="white"/>
<path d="M1103.85 676.678L1019.3 849.328C1017.99 851.995 1014.76 853 1012.26 851.4C970.069 824.439 651.677 617.67 655.838 520.307C659.966 423.749 910.624 272.631 947.674 250.808C950.207 249.317 953.297 250.465 954.527 253.134L1034.65 427.025C1035.87 429.669 1034.58 432.808 1031.85 433.822L860.861 497.332C816.891 514.825 825.002 525.505 860.861 545.048L1101.66 670.042C1104.07 671.293 1105.04 674.239 1103.85 676.678Z" fill="white"/>
<path d="M429.327 1103.85L256.678 1019.31C254.01 1018 253.006 1014.77 254.605 1012.27C281.566 970.074 488.335 651.682 585.699 655.844C682.257 659.971 833.374 910.629 855.197 947.68C856.689 950.212 855.54 953.303 852.871 954.533L678.98 1034.65C676.336 1035.87 673.197 1034.59 672.183 1031.86L608.673 860.866C591.18 816.896 580.5 825.007 560.957 860.866L435.964 1101.67C434.713 1104.08 431.766 1105.05 429.327 1103.85Z" fill="white"/>
<path d="M680.214 2.14812L852.863 86.6953C855.531 88.0017 856.536 91.2328 854.936 93.7358C827.975 135.928 621.206 454.32 523.843 450.158C427.285 446.031 276.167 195.373 254.344 158.322C252.853 155.79 254.001 152.699 256.67 151.469L430.561 71.3496C433.205 70.1313 436.344 71.4128 437.358 74.1419L500.868 245.136C518.361 289.106 529.041 280.995 548.584 245.136L673.577 4.33507C674.829 1.92463 677.775 0.953694 680.214 2.14812Z" fill="white"/>
</svg>
