<svg width="512" height="512" viewBox="0 0 512 512" fill="none" xmlns="http://www.w3.org/2000/svg">
<path d="M92.0756 337.168C104.625 338.01 115.102 328.596 124.479 322.13C131.998 318.659 142.37 320.016 151.126 321.671C151.813 324.246 152.688 326.85 153.739 329.459C144.886 357.909 162.429 383.944 186.803 397.681C198.321 405.845 215.962 415.671 233.262 415.739C252.582 416.731 260.628 402.825 275.851 400.581C283.566 410.233 290.868 420.899 290.96 428.874C288.895 441.079 281.877 458.664 300.25 475.953C307.971 482.698 318.467 486.282 329.182 485.897C357.844 484.631 383.912 444.92 402.264 421.101C413.82 404.685 429.188 384.758 430.822 361.216C432.692 329.597 419.517 295.881 403.169 271.422C440.288 219.479 463.75 161.122 456.575 96.9521C448.458 28.4355 413.369 23.3558 383.028 26.9117C319.415 37.7117 265.654 79.3577 219.055 154.067C186.268 149.982 154.12 149.645 121.155 170.351C102.615 183.371 92.1659 204.295 81.8361 222C60.4835 258.964 33.0067 317.504 79.7264 334.776C83.602 336.364 87.7599 337.168 92.0756 337.168Z" fill="white"/>
<path d="M113.981 301.617C132.087 292.652 154.752 298.449 173.715 303.35C172.732 307.843 172.426 312.085 173.363 315.634C174.473 319.849 176.298 323.957 178.598 327.953C174.331 338.518 172.68 347.257 177.838 358.287C181.979 367.137 192.179 373.401 199.886 378.718C208.779 384.854 218.057 390.292 228.76 392.274C240.708 394.485 249.703 387.663 257.54 379.647C266.559 380.197 274.887 377.397 282.629 372.721C295.738 388.358 314.474 408.848 313.991 429.852C313.486 439.436 306.609 450.941 315.372 458.568C318.945 461.677 323.738 463.03 328.413 462.872C334.358 462.672 338.383 459.132 342.649 455.426C358.19 441.256 371.351 425.04 383.409 407.86C392.489 394.927 406.852 376.328 407.823 359.858C409.596 329.827 394.072 294.31 374.648 271.847C386.983 254.944 398.406 237.395 408.468 219.142C429.239 181.458 437.592 141.968 433.632 99.0705C430.913 69.6579 420.701 43.8934 386.88 49.6276C313.872 62.02 265.765 118.894 230.313 180.05C202.057 172.085 159.136 172.153 134.233 189.321C120.312 198.917 109.994 219.551 101.697 233.672C92.7599 248.879 85.1401 265.208 79.6323 282.066C75.3847 295.053 73.2726 307.236 88.4635 313.456C92.1609 314.971 96.8594 313.769 99.9077 311.478C104.594 307.958 108.757 304.382 113.981 301.617Z" fill="#181C1D"/>
<path d="M235.757 378.245C227.225 380.058 218.871 375.773 209.459 369.839C199.299 363.43 190.129 356.864 188.325 346.904C187.158 340.469 190.004 342.951 193.035 345.84C205.383 357.642 221.432 367.322 236.309 373.522C240.729 375.359 243.116 376.674 235.757 378.245Z" fill="#0080FF"/>
<path d="M275.12 362.267C269.222 366.077 262.679 368.229 255.174 366.602C233.606 360.981 179.334 332.711 187.629 304.915C189.487 298.699 192.432 303.368 195.724 306.784C216.963 328.83 243.436 346.236 272.577 355.569C278.711 357.533 281.835 357.921 275.12 362.267Z" fill="#FFC522"/>
<path d="M276.134 348.647C246.59 339.411 220.049 321.648 198.91 299.037C193.696 293.461 192.925 288.59 195.291 282.268C195.869 280.716 196.458 279.169 197.055 277.621C207.897 294.921 224.978 307.743 242.22 318.324C259.088 328.675 277.112 338.125 296.491 342.586C296.016 343.059 295.56 343.546 295.083 344.014C288.794 350.19 285.343 351.523 276.134 348.647Z" fill="#0080FF"/>
<path d="M394.841 361.159C392.202 376.702 377.451 394.315 368.627 406.888C358.507 421.305 346.677 434.586 333.671 446.448C331.541 448.293 326.385 452.853 323.49 448.861C322.888 448.026 324.881 443.13 325.156 441.951C326.064 437.991 326.475 433.899 326.692 429.851C327.254 405.481 308.133 383.503 292.888 365.286C304.831 355.229 315.292 341.866 324.742 331.803C337.147 318.59 349.092 304.822 360.417 290.547C366.024 283.48 368.954 284.347 373.971 291.798C387.334 311.661 398.489 339.689 394.841 361.159Z" fill="#0080FF"/>
<path d="M350.316 74.9974C357.071 71.7377 364.105 68.8261 371.485 66.3522C383.472 62.3376 404.418 55.7738 412.915 68.7701C421.214 81.4703 421.405 100.525 421.967 115.057C422.082 117.959 422.115 120.833 422.08 123.679C421.96 131.985 419.182 130.567 414.594 125.793C397.322 107.834 376.363 93.8363 353.289 84.4361C344.42 80.823 341.057 79.466 350.316 74.9974Z" fill="#0080FF"/>
<path d="M90.0105 291.377C99.693 258.484 117.771 227.004 139.978 201.11C148.033 191.726 168.205 190.532 179.402 189.308C190.698 188.074 202.377 187.959 213.727 189.57C222.462 190.812 222.746 193.363 218.812 200.779C215.686 206.649 212.664 212.517 209.736 218.352C201.018 235.723 193.212 253.55 186.013 271.596C183.981 276.69 180.453 283.816 177.551 291.231C154.771 285.455 129.408 279.836 107.572 290.645C103.971 292.555 100.636 294.754 97.4401 297.195C89.9099 302.938 87.0543 301.415 90.0105 291.377Z" fill="#0080FF"/>
<path d="M414.49 136.837C395.387 114.848 370.553 98.4947 343.161 88.7207C332.651 84.9673 331.252 84.9035 320.21 92.8955C277.164 124.043 247.615 171.144 223.226 219.733C217.673 230.799 212.251 242.015 207.17 253.398C202.147 264.639 201.674 271.507 207.977 279.884C226.862 304.983 261.138 325.002 291.508 333.459C301.922 336.366 305.786 333.295 314.057 324.588C318.344 320.072 322.566 315.489 326.691 310.813C352.051 282.048 376.181 251.408 394.746 217.734C405.207 198.75 413.215 179.688 417.787 159.643C420.579 147.404 421.995 145.461 414.49 136.837ZM378.527 208.035C364.032 235.561 332.294 251.003 303.06 235.352C279.871 222.931 269.031 201.259 271.863 178.279C274.156 159.662 283.112 145.586 298.016 135.664C317.181 122.896 341.471 123.265 362.913 139.144C383.155 154.131 390.302 185.669 378.527 208.035Z" fill="#DADFE9"/>
<path d="M290.661 160.74C319.229 117.495 382.202 148.104 369.359 196.797C363.522 218.939 340.081 232.143 318.448 227.641C286.665 221.023 276.374 187.053 290.661 160.74Z" fill="#FFC522"/>
<path d="M415.412 73.3496C418.034 85.8053 419.38 103.336 406.257 103.926C396.163 104.382 384.951 93.6275 375.859 89.897C367.663 86.5338 359.902 84.4597 351.598 83.7444C352.138 83.9678 352.698 84.1936 353.289 84.4356C376.363 93.8358 397.323 107.834 414.594 125.793C419.182 130.567 421.96 131.985 422.08 123.678C422.116 120.832 422.082 117.958 421.967 115.056C421.468 102.176 421.233 85.7602 415.412 73.3496Z" fill="#0057FA"/>
<path d="M177.551 291.231C180.453 283.816 183.981 276.69 186.013 271.596C193.212 253.55 201.018 235.723 209.736 218.352C212.664 212.517 215.687 206.649 218.812 200.778C219.821 198.876 220.54 197.3 220.924 195.98C213.087 198.805 206.676 211.336 203.121 217.018C194.889 230.162 188.257 244.214 180.489 257.624C172.895 270.743 163.41 272.596 149.044 273.464C139.397 274.048 129.188 275.287 120.387 279.537C113.277 282.971 105.887 288.436 100.342 295.141C102.661 293.528 105.036 291.993 107.572 290.645C129.409 279.836 154.771 285.455 177.551 291.231Z" fill="#0057FA"/>
<path d="M292.888 365.286C308.133 383.504 327.253 405.482 326.692 429.851C326.475 433.899 326.064 437.991 325.156 441.952C325.036 442.471 324.58 443.718 324.164 445.016C325.396 443.137 326.553 441.15 327.519 438.932C335.017 421.79 325.325 401.101 319.027 385.265C316.464 378.829 313.994 373.135 313.562 366.082C313.042 357.619 319.143 349.64 324.218 343.556C331.214 335.169 339.418 327.779 346.579 319.508C350.987 314.404 366.177 296.935 362.784 287.941C362.041 288.652 361.266 289.477 360.417 290.547C349.093 304.823 337.148 318.591 324.742 331.803C315.292 341.866 304.831 355.23 292.888 365.286Z" fill="#0057FA"/>
<path d="M408.315 78.8035C406.843 60.0007 381.96 67.6109 367.887 73.7045C361.972 76.2585 366.734 77.4813 368.298 77.8558C379.138 80.4592 386.984 89.2693 398.32 91.0521C406.518 92.3405 408.844 85.4991 408.315 78.8035Z" fill="#30C8FF"/>
<path d="M171.217 200.508C162.193 202.102 152.802 204.247 145.653 210.306C137.981 216.804 132.75 224.979 127.835 233.655C123.232 241.766 118.321 249.906 114.283 258.391C109.721 267.989 115.73 264.099 120.883 261.82C127.487 258.904 134.712 257.907 142.485 256.775C149.255 255.792 154.448 254.332 159.284 249.395C167.087 241.425 173.326 231.208 179.269 221.85C180.3 220.228 182.143 217.629 183.865 214.736C190.909 202.902 184.703 198.151 171.217 200.508Z" fill="#30C8FF"/>
<path d="M372.661 320.899C367.842 318.102 361.936 325.026 359.354 327.755C352.155 335.349 345.765 343.783 340.767 352.979C336.62 360.622 334.97 368.72 336.496 377.245C337.69 383.884 340.755 390.23 342.589 396.712C344.01 401.74 344.259 406.851 343.657 411.883C342.54 421.234 340.663 425.99 348.739 416.479C360.726 402.363 373.226 387.17 380.31 370.799C386.285 356.988 387.844 329.723 372.661 320.899Z" fill="#30C8FF"/>
<path d="M255.174 366.602C261.265 367.923 266.717 366.729 271.713 364.205C255.619 364.073 240.438 357.394 226.018 348.471C208.607 337.697 191.966 324.962 187.688 304.748C187.669 304.809 187.648 304.852 187.629 304.915C179.334 332.711 233.605 360.981 255.174 366.602Z" fill="#FFA222"/>
<path d="M319.701 220.858C286.481 214.762 283.779 178.113 296.667 153.221C294.539 155.429 292.523 157.92 290.66 160.742C276.373 187.054 286.664 221.024 318.447 227.642C340.08 232.144 363.52 218.941 369.358 196.798C370.461 192.612 370.969 188.567 371.026 184.681C369.902 191.032 367.75 197.214 363.441 203.665C353.818 218.059 336.287 223.896 319.701 220.858Z" fill="#FFA222"/>
<path d="M325.758 153.217C309.982 156.248 301.287 169.741 304.815 185.494C308.58 202.305 331.243 204.226 344.116 198.951C353.34 195.174 358.512 186.1 357.202 175.813C355.591 163.146 344.686 149.581 325.758 153.217Z" fill="#FBE134"/>
<path d="M242.97 346.197C253.107 352.037 264.207 355.847 275.889 356.712C275.978 356.72 276.091 356.72 276.185 356.726C275.181 356.378 273.972 356.016 272.578 355.569C243.436 346.237 216.964 328.831 195.724 306.785C195.054 306.086 194.398 305.343 193.76 304.645C201.399 323.318 227.194 337.11 242.97 346.197Z" fill="#FBE134"/>
<path d="M194.771 283.896C193.127 289.445 194.157 293.953 198.91 299.037C220.048 321.648 246.589 339.412 276.133 348.647C284.104 351.135 287.765 350.456 292.678 346.234C283.941 348.557 275.28 345.71 265.874 342.436C254.131 338.343 243.009 332.743 232.797 325.782C221.433 318.03 208.455 308.395 200.518 297.976C197.215 293.64 195.068 290.011 194.771 283.896Z" fill="#0057FA"/>
<path d="M209.458 369.84C218.729 375.682 226.97 379.896 235.366 378.293C216.688 373.829 198.684 362.923 188.315 346.82C188.323 346.853 188.32 346.872 188.325 346.905C190.129 356.865 199.298 363.432 209.458 369.84Z" fill="#0057FA"/>
<path d="M197.055 277.621C196.712 278.51 196.38 279.399 196.043 280.288C210.931 306.491 243.875 323.37 270.108 333.974C272.154 334.799 274.706 335.7 277.517 336.554C265.205 331.667 253.45 325.216 242.22 318.325C224.979 307.743 207.897 294.922 197.055 277.621Z" fill="#30C8FF"/>
<path d="M236.31 373.523C221.432 367.323 205.383 357.643 193.036 345.841C191.599 344.47 190.216 343.223 189.271 342.943C201.051 358.11 218.151 368.819 236.67 373.677C236.545 373.626 236.439 373.574 236.31 373.523Z" fill="#30C8FF"/>
<path d="M290.15 136.064C275.033 148.975 268.299 170.283 271.604 189.444C271.338 185.782 271.396 182.05 271.862 178.279C274.156 159.662 283.112 145.586 298.015 135.664C317.181 122.896 341.471 123.265 362.912 139.145C380.02 151.809 387.722 176.285 382.607 197.064C389.963 178.07 385.06 155.61 369.347 139.747C347.889 118.091 313.046 116.51 290.15 136.064Z" fill="#A2ABBD"/>
<path d="M207.977 279.884C226.862 304.983 261.139 325.002 291.508 333.459C301.922 336.366 305.786 333.295 314.057 324.588C318.345 320.073 322.566 315.489 326.691 310.813C352.051 282.048 376.181 251.408 394.747 217.734C396.722 214.145 398.58 210.554 400.377 206.953C385.673 230.382 369.653 253.064 352.675 274.884C336.687 295.43 313.538 329.184 283.897 323.704C265.802 320.357 247.954 307.177 233.674 296.117C225.929 290.119 219.05 283.17 213.18 275.335C208.283 268.807 206.726 261.652 206.818 254.242C202.164 264.969 201.841 271.723 207.977 279.884Z" fill="#A2ABBD"/>
<path d="M228.753 208.953C233.749 201.051 238.829 193.24 243.728 185.54C253.732 169.818 264.391 154.481 276.028 139.921C288.022 124.909 301.507 109.968 318.004 99.7915C322.376 97.096 327.004 94.8761 331.76 92.9549C343.303 88.2913 357.807 98.0629 367.374 104.039C377.249 110.21 386.562 117.417 395.664 124.655C403.717 131.066 411.379 137.377 414.243 147.727C415.986 154.041 414.13 161.981 412.898 168.221C410.93 178.188 408.077 187.998 404.791 197.678C410.384 185.248 414.819 172.654 417.787 159.641C420.579 147.402 421.994 145.459 414.49 136.835C395.386 114.846 370.553 98.4928 343.161 88.7187C332.65 84.9654 331.251 84.9016 320.209 92.8935C280.358 121.732 252.084 164.249 228.753 208.953Z" fill="#F0F2F6"/>
</svg>
