<svg width="512" height="512" viewBox="0 0 512 512" fill="none" xmlns="http://www.w3.org/2000/svg">
<path d="M65.6464 407.056C88.9744 428.928 118.779 429.559 144.649 431.8C172.794 434.222 202.679 435.397 236 435.397C288.007 435.194 352.591 433.03 403.811 426.934C484.377 422.327 475.983 329.661 477.553 268.638C477.494 229.628 476.864 188.214 470.014 148.457C463.629 104.173 435.161 82.5084 397.584 81.9201C314.392 74.853 217.924 74.4791 136.101 82.9479C81.6008 86.2545 44.5245 107.146 38.4568 168.891C31.2343 232.459 34.4777 301.641 42.537 354.767C45.3144 372.044 49.6162 391.755 65.6464 407.056Z" fill="white"/>
<path d="M81.5538 390.386C98.3318 406.398 124.812 406.971 146.62 408.846C197.799 413.246 249.473 412.912 300.77 411.087C324.362 410.25 347.948 408.992 371.471 407.035C380.848 406.254 390.223 405.361 399.569 404.239C409.867 403.004 420.564 402.011 429.223 395.706C438.172 389.192 442.793 379.398 446.483 369.262C450.933 356.613 451.674 342.309 452.655 329.057C454.148 308.977 454.543 288.807 454.517 268.673C454.456 230.084 453.877 190.493 447.309 152.365C444.444 135.716 438.137 117.524 421.584 110.074C412.414 105.946 402.061 105.483 392.172 104.57C382.661 103.688 373.136 103.018 363.604 102.449C313.193 99.4622 262.529 99.0082 212.065 100.786C187.57 101.652 163.059 103.07 138.703 105.841C116.819 108.329 91.078 110.172 76.2851 128.759C66.4074 141.172 63.3477 156.607 61.2922 171.946C58.6888 191.405 57.9266 211.097 57.7478 230.716C57.3836 270.764 58.9188 311.507 65.2858 351.112C67.5676 365.316 70.6906 380.019 81.5538 390.386Z" fill="#181C1D"/>
<path d="M227.698 340.932C230.791 316.009 236.917 291.598 243.895 267.508C248.121 252.919 251.82 234.356 260.269 221.407C264.429 216.496 267.715 213.1 274.735 212.94C282.152 212.771 284.471 216.063 283.229 223.152C275.381 264.222 262.985 305.182 249.696 344.787C247.354 351.546 243.243 355.542 235.987 355.356C227.592 355.137 226.993 347.553 227.698 340.932Z" fill="#FFC522"/>
<path d="M318.353 232.23C319.126 228.295 318.515 226.621 322.226 228.427C332.838 233.761 405.733 273.46 391.866 287.84C371.334 309.128 347.217 325.999 321.394 340.194C316.262 342.946 317.433 327.135 317.574 323.861C317.925 315.867 320.643 312.513 327.215 308.773C338.268 302.757 355.874 296.012 354.218 280.652C352.828 267.762 332.56 261.856 323.249 256.224C317.821 252.649 317.369 247.35 317.285 241.278C317.243 238.222 317.765 235.209 318.353 232.23Z" fill="#FFC522"/>
<path d="M441.448 241.097C441.105 227.299 440.531 213.495 439.618 199.712C439.141 192.564 438.331 192.136 430.175 191.699C314.133 185.405 197.507 185.379 81.5678 193.523C72.226 194.182 71.7251 193.893 71.2856 202.235C70.2771 221.111 70.2181 240.046 70.6625 258.941C71.1399 279.157 72.2098 299.373 74.1009 319.508C75.4369 333.765 76.9066 348.238 80.3661 362.168C81.8099 367.97 83.875 373.626 87.6759 378.344C94.3812 386.672 104.849 390.27 114.985 392.307C136.429 396.613 158.996 397.351 180.793 398.32C230.577 400.526 280.554 399.708 330.312 397.085C350.709 396.008 371.115 394.62 391.435 392.456C399.855 391.561 409.507 391.337 417.337 387.948C426.619 383.931 430.956 374.89 434.234 365.883C435.909 361.132 436.831 356.13 437.609 351.166C440.074 335.446 440.796 318.642 441.323 302.442C441.987 282.003 441.958 261.542 441.448 241.097ZM170.72 284.385C173.458 291.244 188.326 295.983 194.309 299.458C206.553 307.13 208.723 321.117 207.165 334.795C206.495 340.681 206.661 347.928 200.977 351.425C195.556 354.762 190.944 354.623 185.432 351.697C167.938 342.147 150.916 331.589 135.549 318.825C127.047 311.772 103.215 296.894 103.387 284.229C103.589 269.312 121.115 258.338 131.783 250.048C148.272 237.233 165.669 226.429 184.35 217.082C189.912 214.391 194.065 213.399 199.858 216.015C205.404 218.514 206.312 229.208 207.05 234.197C208.908 246.833 206.899 258.668 196.492 266.311C196.123 266.674 195.707 267.014 195.203 267.315C191.181 269.712 168.476 278.776 170.72 284.385ZM295.476 226.525C287.631 267.593 275.231 308.555 261.946 348.158C257.532 360.893 247.799 369.367 233.829 367.812C219.626 366.232 213.577 354.219 214.998 340.931C218.455 313.064 224.979 285.623 233.244 258.8C236.699 247.574 239.669 234.272 244.902 222.988C249.408 213.268 261.739 195.283 283.381 201.438C295.17 204.787 297.443 215.299 295.476 226.525ZM377.019 318.555C361.502 330.885 345.173 341.615 327.808 351.163C321.904 354.322 317.21 355.091 311.253 351.425C305.468 347.864 305.354 339.851 304.978 333.811C303.986 317.953 306.669 305.855 320.801 297.802C324.287 295.909 346.274 286.118 340.51 281.071C333.633 275.05 324.599 271.882 316.836 267.193C304.632 259.142 302.892 245.16 305.583 231.508C306.801 225.336 307.869 218.05 314.162 215.21C319.301 212.884 323.977 215.188 328.64 217.455C346.975 226.679 364.816 237.129 380.691 250.238C391.18 258.897 408.638 269.172 408.847 284.229C409.026 296.612 385.483 311.829 377.019 318.555Z" fill="#DADFE9"/>
<path d="M187.564 229.712C191.867 227.421 193.25 229.107 193.932 232.384C194.365 234.428 194.636 236.502 194.833 238.581C195.487 245.38 194.88 252.372 188.789 256.347C178.05 262.763 159.384 267.927 157.824 282.405C156.23 297.231 178.022 304.685 187.895 310.428C192.789 313.487 193.864 317.191 194.572 322.855C194.699 323.871 194.781 330.466 194.209 335.376C193.544 341.04 191.218 340.412 187.939 338.563C163.106 324.605 140.707 308.067 120.418 287.895C107.248 274.787 170.052 238.99 187.564 229.712Z" fill="#FFC522"/>
<path d="M290.504 139.571C292.623 137.095 296.577 136.3 299.58 137.464C303.013 138.788 305.053 141.928 304.965 145.606C304.878 147.591 304.262 149.425 303.018 150.973C301.68 152.628 299.66 153.456 297.587 153.663C294.055 154.016 290.614 152.069 289.177 148.809C287.842 145.773 288.334 142.107 290.504 139.571Z" fill="#FFC522"/>
<path d="M337.367 139.571C339.486 137.095 343.44 136.3 346.443 137.464C349.876 138.788 351.915 141.928 351.828 145.606C351.741 147.591 351.125 149.425 349.881 150.973C348.543 152.628 346.523 153.456 344.451 153.663C340.918 154.016 337.477 152.069 336.04 148.809C334.705 145.773 335.197 142.107 337.367 139.571Z" fill="#FFC522"/>
<path d="M437.391 172.312C436.45 162.749 435.185 153.142 432.48 143.97C429.973 135.456 425.949 126.889 417.903 122.397C410.18 118.086 400.319 118.015 391.687 117.225C371.814 115.4 351.868 114.379 331.93 113.657C282.416 111.863 232.714 111.921 183.245 114.828C161.443 116.105 139.48 117.714 117.934 121.371C107.11 123.21 95.9064 126.387 88.0698 134.513C82.6042 140.171 79.9442 146.133 77.9688 152.749C76.4004 157.986 75.2499 163.353 74.3727 168.779C72.1853 182.404 73.3967 181.383 86.4731 180.487C200.31 172.716 314.796 172.791 428.709 178.918C435.124 179.264 438.066 179.161 437.391 172.312ZM308.757 156.503C304.66 161.286 297.024 162.822 291.222 160.579C284.594 158.02 280.655 151.955 280.82 144.843C280.996 141.018 282.179 137.474 284.592 134.48C287.174 131.291 291.072 129.682 295.077 129.285C301.899 128.603 308.538 132.366 311.316 138.659C313.901 144.523 312.95 151.606 308.757 156.503ZM355.619 156.503C351.523 161.286 343.887 162.822 338.085 160.579C331.457 158.02 327.518 151.955 327.683 144.843C327.859 141.018 329.042 137.474 331.455 134.48C334.037 131.291 337.935 129.682 341.94 129.285C348.762 128.603 355.401 132.366 358.179 138.659C360.763 144.523 359.813 151.606 355.619 156.503ZM402.402 156.423C398.305 161.206 390.672 162.742 384.869 160.501C378.239 157.94 374.3 151.877 374.467 144.764C374.641 140.938 375.824 137.394 378.238 134.4C380.82 131.21 384.717 129.602 388.722 129.207C395.545 128.522 402.184 132.285 404.962 138.579C407.546 144.443 406.598 151.527 402.402 156.423Z" fill="#0080FF"/>
<path d="M384.229 139.571C386.349 137.095 390.302 136.3 393.305 137.464C396.739 138.788 398.778 141.928 398.691 145.606C398.603 147.591 397.987 149.425 396.744 150.973C395.405 152.628 393.385 153.456 391.313 153.663C387.78 154.016 384.34 152.069 382.902 148.809C381.567 145.773 382.059 142.107 384.229 139.571Z" fill="#FFC522"/>
<path d="M351.036 144.558C350.709 149.212 346.904 151.705 342.419 150.932C338.891 150.325 336.986 147.138 336.595 143.86C336.426 142.427 336.687 141.125 337.16 139.895C335.203 142.416 334.757 145.892 336.041 148.808C337.478 152.068 340.919 154.015 344.451 153.663C346.523 153.456 348.543 152.628 349.882 150.972C351.126 149.425 351.742 147.59 351.828 145.605C351.873 143.763 351.385 142.058 350.453 140.645C350.885 141.776 351.147 142.987 351.036 144.558Z" fill="#FFA222"/>
<path d="M398.691 145.606C398.738 143.649 398.148 141.871 397.097 140.411C397.53 141.352 397.803 142.401 397.772 143.729C397.683 147.37 394.505 149.647 391.147 149.913C388.35 150.136 385.754 148.692 384.428 146.262C383.289 144.162 383.463 141.754 384.254 139.555C384.247 139.56 384.237 139.562 384.23 139.571C382.06 142.106 381.568 145.773 382.904 148.809C384.341 152.069 387.782 154.016 391.314 153.664C393.386 153.457 395.407 152.629 396.745 150.973C397.988 149.425 398.604 147.591 398.691 145.606Z" fill="#FFA222"/>
<path d="M386.873 140.831C385.996 144.034 390.481 145.173 393.456 144.081C395.068 143.491 395.338 142.049 394.767 140.855C393.096 137.362 387.476 138.644 386.873 140.831Z" fill="#FBE134"/>
<path d="M289.178 148.808C290.615 152.067 294.056 154.015 297.588 153.662C299.66 153.455 301.68 152.627 303.019 150.972C304.263 149.424 304.879 147.59 304.966 145.605C304.989 144.673 304.867 143.775 304.629 142.935C304.561 143.843 304.394 144.744 303.962 145.637C302.459 148.733 298.724 150.574 295.377 150.087C292.294 149.638 290.631 146.724 289.794 144.05C289.512 143.14 289.385 142.263 289.35 141.402C288.237 143.704 288.134 146.439 289.178 148.808Z" fill="#FFA222"/>
<path d="M120.418 287.894C140.708 308.065 163.107 324.604 187.94 338.562C191.218 340.41 193.544 341.038 194.21 335.375C194.635 331.711 194.699 327.108 194.649 324.587C192.817 328.978 189.718 332.108 183.784 330.476C174.369 327.889 166.102 320.274 158.541 314.479C145.804 304.716 124.837 292.148 122.426 275.193C118.506 280.28 117.255 284.744 120.418 287.894Z" fill="#FFA222"/>
<path d="M249.49 333.818C246.021 343.141 242.07 349.82 236.167 355.345C243.307 355.458 247.376 351.483 249.697 344.785C262.986 305.18 275.382 264.22 283.23 223.15C284.218 217.503 282.896 214.3 278.585 213.305C281.765 223.107 274.94 242.037 273.343 248.463C269.808 262.748 267.021 277.162 263.153 291.373C259.246 305.711 254.674 319.893 249.49 333.818Z" fill="#FFA222"/>
<path d="M179.633 256.182C172.862 260.373 165.364 263.442 160.357 269.851C156.991 274.162 156.243 280.35 157.887 285.627C157.755 284.587 157.704 283.525 157.824 282.405C159.383 267.927 178.05 262.762 188.789 256.346C194.88 252.371 195.487 245.38 194.833 238.58C194.753 237.743 194.649 236.911 194.539 236.078C194.376 237.153 194.186 238.211 194.019 239.3C192.745 247.471 186.07 252.198 179.633 256.182Z" fill="#FFA222"/>
<path d="M317.285 241.276C317.37 247.348 317.822 252.647 323.249 256.222C332.56 261.854 352.828 267.76 354.218 280.65C354.242 280.883 354.223 281.095 354.242 281.325C354.909 278.439 354.611 275.347 352.84 272.188C348.901 265.156 343.28 261.334 336.276 257.576C331.248 254.876 326.601 252.369 322.33 248.483C319.566 245.962 318.357 242.128 317.485 238.215C317.389 239.232 317.269 240.248 317.285 241.276Z" fill="#FFA222"/>
<path d="M321.394 340.193C347.217 325.997 371.334 309.127 391.866 287.838C394.926 284.663 393.75 280.258 389.961 275.258C387.462 289.823 373.002 298.882 361.422 307.744C354.301 313.193 346.905 318.283 339.499 323.33C333.177 327.645 323.629 333.852 317.44 326.655C317.215 332.213 317.182 342.453 321.394 340.193Z" fill="#FFA222"/>
<path d="M295.787 139.682C293.794 140.526 293.143 142.671 294.481 144.233C295.69 145.651 297.913 146.131 299.724 145.414C300.49 145.108 301.116 144.353 301.431 143.511C302.252 141.338 299.656 138.047 295.787 139.682Z" fill="#FBE134"/>
<path d="M163.857 246.254C170.016 242.952 176.067 239.464 182.225 236.162C186.051 234.107 189.868 232.749 193.721 231.566C192.973 228.859 191.487 227.625 187.563 229.713C177.098 235.256 150.463 250.275 133.527 264.262C143.64 258.279 153.478 251.816 163.857 246.254Z" fill="#FBE134"/>
<path d="M227.697 340.932C227.246 345.185 227.361 349.808 229.701 352.649C231.453 336.671 233.464 320.986 237.168 305.067C240.771 289.589 244.767 274.171 249.562 259.015C253.634 246.139 259.633 225.335 269.739 213.777C265.87 215.087 263.293 217.839 260.268 221.407C251.82 234.356 248.121 252.919 243.894 267.508C236.917 291.597 230.79 316.009 227.697 340.932Z" fill="#FBE134"/>
<path d="M318.322 232.414C324.524 232.875 330.869 237.386 335.938 240.257C343.596 244.599 351.189 249.027 358.733 253.559C367.697 258.945 376.471 264.319 385.149 269.898C367.922 252.917 329.689 232.177 322.226 228.425C318.515 226.619 319.127 228.293 318.352 232.228C318.341 232.292 318.334 232.351 318.322 232.414Z" fill="#FBE134"/>
<path d="M434.004 149.947C434.24 161.68 431.26 171.876 416.205 171.674C389.657 171.316 363.091 169.498 336.535 168.951C295.445 168.106 254.337 168.25 213.255 169.428C187.968 170.157 162.702 171.359 137.453 172.951C130.353 173.4 123.234 173.748 116.145 174.36C107.175 175.134 98.2146 176.425 89.3316 174.245C80.9615 172.19 78.3389 163.415 77.4544 154.748C76.1702 159.355 75.1401 164.038 74.3736 168.782C72.1863 182.406 73.3977 181.386 86.4741 180.489C200.311 172.719 314.797 172.794 428.71 178.921C435.124 179.266 438.066 179.163 437.391 172.314C436.653 164.806 435.684 157.278 434.004 149.947Z" fill="#0057FA"/>
<path d="M311.166 134.291C306.817 127.489 296.768 125.577 289.632 128.609C281.447 132.089 277.938 140.069 280.356 148.594C280.921 150.58 281.8 152.111 282.88 153.341C281.499 150.836 280.749 147.955 280.819 144.844C280.996 141.019 282.179 137.475 284.592 134.481C287.174 131.292 291.071 129.683 295.076 129.286C301.899 128.604 308.538 132.367 311.316 138.66C313.226 142.99 313.193 147.979 311.363 152.27C315.298 147.163 314.773 139.935 311.166 134.291Z" fill="#0057FA"/>
<path d="M327.139 148.594C327.743 150.713 328.698 152.336 329.886 153.603C328.414 151.042 327.607 148.062 327.683 144.842C327.859 141.018 329.042 137.474 331.455 134.48C334.038 131.291 337.935 129.682 341.94 129.285C348.762 128.602 355.401 132.365 358.179 138.659C360.065 142.937 360.048 147.859 358.282 152.118C362.081 147.017 361.521 139.877 357.948 134.289C353.599 127.487 343.551 125.575 336.415 128.607C328.23 132.088 324.723 140.068 327.139 148.594Z" fill="#0057FA"/>
<path d="M383.254 128.609C375.069 132.089 371.56 140.069 373.978 148.594C374.573 150.695 375.523 152.301 376.692 153.564C375.201 150.996 374.393 148 374.468 144.766C374.642 140.94 375.825 137.395 378.238 134.401C380.82 131.212 384.718 129.603 388.723 129.208C395.545 128.524 402.184 132.287 404.962 138.58C406.883 142.938 406.844 147.967 404.979 152.277C408.92 147.169 408.401 139.94 404.788 134.29C400.439 127.489 390.39 125.577 383.254 128.609Z" fill="#0057FA"/>
<path d="M251.976 126.647C203.549 123.698 146.025 129.168 118.222 134.462C108.121 136.385 102.347 141.39 99.3764 146.407C93.0029 157.179 96.7845 161.969 106.18 163.58C112.538 164.664 120.48 163.437 125.786 163.255C141.221 162.726 196.236 159.064 258.485 157.575C265.62 157.401 267.676 144.53 265.383 135.778C263.395 128.159 260.25 127.15 251.976 126.647Z" fill="#30C8FF"/>
<path d="M204.104 214C195.449 204.959 183.438 213.816 174.543 218.235C156.676 227.109 139.976 238.177 124.416 250.628C114.99 258.167 102.981 267.398 101.29 280.179C100.797 283.906 102.678 287.366 104.947 290.263C103.964 288.224 103.357 286.199 103.386 284.231C103.588 269.313 121.114 258.339 131.782 250.049C148.271 237.234 165.667 226.43 184.348 217.083C189.91 214.392 194.064 213.4 199.856 216.016C205.402 218.515 206.31 229.209 207.048 234.198C208.353 243.083 207.671 251.54 203.579 258.455C206.262 255.333 208.403 251.726 209.72 247.587C212.533 238.749 210.903 221.095 204.104 214Z" fill="#A2ABBD"/>
<path d="M409.037 274.717C402.131 262.363 389.669 253.16 378.66 244.635C367.303 235.839 355.01 228.379 342.438 221.476C333.367 216.493 322.08 208.254 311.424 213.202C301.99 217.584 302.287 232.993 302.686 241.361C303.006 248.031 304.874 253.37 308.145 257.838C303.982 250.218 303.751 240.792 305.581 231.51C306.799 225.338 307.867 218.052 314.161 215.211C319.299 212.886 323.975 215.19 328.639 217.457C346.974 226.681 364.814 237.131 380.689 250.239C391.179 258.899 408.636 269.174 408.846 284.231C408.874 286.164 408.272 288.173 407.291 290.2C410.86 285.921 412.677 281.223 409.037 274.717Z" fill="#A2ABBD"/>
<path d="M296.363 211.02C293.54 196.307 276.095 194.24 264.065 199.4C249.311 205.726 242.274 220.068 237.037 234.47C231.35 250.103 227.495 266.515 223.622 282.667C219.189 301.157 214.57 320.344 213.184 339.356C212.723 345.682 213.784 351.078 216.48 354.537C214.97 350.468 214.478 345.791 214.998 340.931C218.455 313.064 224.979 285.623 233.244 258.8C236.699 247.574 239.669 234.273 244.902 222.989C249.408 213.268 261.739 195.284 283.381 201.439C293.611 204.343 296.66 212.65 296.008 222.128C296.675 218.358 297.038 214.531 296.363 211.02Z" fill="#A2ABBD"/>
<path d="M125.741 311.339C124.261 310.21 122.744 309.036 121.209 307.809C121.484 308.077 121.75 308.361 122.027 308.623C123.24 309.777 124.487 310.624 125.741 311.339Z" fill="#A2ABBD"/>
<path d="M71.4691 229.64C71.1235 225.731 70.8977 221.728 70.6743 217.707C70.2938 231.451 70.3432 245.207 70.6623 258.942C71.1397 279.158 72.2096 299.375 74.1007 319.509C75.4367 333.766 76.9064 348.24 80.3659 362.169C81.8097 367.971 83.8748 373.627 87.6757 378.345C94.381 386.673 104.849 390.272 114.985 392.308C136.429 396.614 158.996 397.353 180.792 398.321C230.577 400.527 280.554 399.709 330.311 397.087C350.709 396.009 371.115 394.622 391.435 392.458C399.855 391.562 409.507 391.339 417.336 387.949C426.619 383.932 430.956 374.892 434.234 365.885C435.909 361.134 436.831 356.132 437.609 351.167C440.074 335.447 440.796 318.643 441.322 302.444C441.8 287.723 441.911 272.986 441.748 258.254C440.918 272.507 439.648 286.726 437.644 300.891C434.949 319.913 435.4 339.393 429.051 357.756C422.369 377.079 406.899 383.318 388.237 385.633C373.343 387.477 358.34 388.521 343.364 389.468C301.708 392.105 259.892 393.121 218.157 392.514C198.095 392.221 178.025 391.442 158.027 389.774C141.35 388.382 123.84 386.834 107.966 381.223C89.2658 374.61 85.8369 355.922 83.1842 338.504C80.275 319.402 78.2785 300.157 76.3236 280.94C74.583 263.852 72.9815 246.75 71.4691 229.64Z" fill="#A2ABBD"/>
<path d="M245.816 369.73C262.378 362.407 267.851 341.732 272.379 325.824C277.452 308.02 282.012 289.977 286.603 272.044C290.389 257.255 294.46 241.901 295.474 226.533C287.626 267.601 275.231 308.559 261.945 348.159C257.531 360.894 247.798 369.369 233.829 367.814C228.777 367.249 224.776 365.354 221.756 362.562C227.171 369.836 236.127 374.013 245.816 369.73Z" fill="#F0F2F6"/>
<path d="M137.699 194.997C175.593 193.789 213.521 193.422 251.435 193.203C285.542 193.011 319.662 192.954 353.766 193.662C369.937 193.994 386.193 193.994 402.334 195.003C416.355 195.885 430.366 198.623 440.001 206.757C439.863 204.408 439.771 202.058 439.618 199.714C439.14 192.566 438.331 192.138 430.175 191.701C314.133 185.407 197.506 185.381 81.5674 193.525C72.5718 194.161 71.7813 193.993 71.3418 201.428C92.1699 194.743 116.871 195.665 137.699 194.997Z" fill="#F0F2F6"/>
<path d="M203.284 303.499C199.295 299.642 194.798 296.879 189.967 294.181C183.766 290.714 173.406 287.047 172.858 279.865C171.113 281.476 170.179 283.031 170.72 284.386C173.457 291.244 188.326 295.983 194.309 299.459C206.553 307.13 208.723 321.117 207.165 334.795C206.494 340.681 206.661 347.928 200.977 351.425C195.556 354.762 190.944 354.624 185.431 351.697C167.938 342.147 150.916 331.589 135.548 318.825C129.464 313.776 115.563 304.716 108.191 295.331C112.671 305.077 124.452 313.273 131.623 318.976C140.334 325.909 149.476 332.299 158.719 338.504C168.417 345.011 178.601 352.779 189.984 356.053C208.632 361.417 210.231 336.154 209.808 324.216C209.57 317.464 208.382 308.435 203.284 303.499Z" fill="#F0F2F6"/>
<path d="M304.632 347.267C312.459 373.175 352.538 339.21 362.29 332.688C374.999 324.196 386.77 314.556 397.976 304.186C401.56 300.867 404.14 297.359 405.295 293.624C398.43 303.527 383.421 313.469 377.019 318.556C361.501 330.886 345.173 341.616 327.807 351.164C321.904 354.323 317.209 355.091 311.252 351.425C305.467 347.865 305.354 339.852 304.978 333.812C303.985 317.954 306.669 305.856 320.801 297.803C324.286 295.909 346.274 286.119 340.509 281.072C339.608 280.286 338.672 279.55 337.703 278.85C337.292 287.168 320.175 294.541 315.813 297.474C311.201 300.574 307.934 304.725 305.307 309.551C299.361 320.454 301.208 335.92 304.632 347.267Z" fill="#F0F2F6"/>
</svg>
