<svg width="512" height="512" viewBox="0 0 512 512" fill="none" xmlns="http://www.w3.org/2000/svg">
<path d="M373.111 391.286C383.901 390.383 392.899 389.482 401.425 388.45C482.747 384.513 474.323 291.918 475.877 230.577C475.807 192.143 475.172 151.329 468.424 111.987C463.281 81.9635 450.223 62.0312 429.607 52.7533C406.159 43.565 388.523 45.6885 364.13 43.205C314.385 40.244 262.946 39.7196 212.48 41.486C80.2966 48.1251 35.5903 45.1641 36.1761 192.989C35.7173 241.273 38.1725 280.448 43.8995 316.279C50.0635 372.575 89.0339 390.933 139.592 392.676C166.262 393.791 151.565 393.803 149.46 412.648C146.688 457.597 189.644 473.268 218.795 471.376C242.763 470.325 263.217 468.975 286.797 470.25C304.295 470.25 326.52 468.644 343.239 456.101C363.389 440.988 368.488 414.97 355.36 394.233C353.916 390.512 369.245 392.688 373.111 391.286Z" fill="white"/>
<path d="M371.183 368.327C380.355 367.558 389.517 366.68 398.659 365.577C408.77 364.355 419.229 363.338 427.731 357.148C436.621 350.679 441.207 340.956 444.876 330.885C449.283 318.357 450.017 304.185 450.995 291.052C452.487 270.956 452.879 250.769 452.839 230.619C452.769 192.545 452.169 153.504 445.716 115.875C442.879 99.3055 436.633 81.1801 420.153 73.7625C411.148 69.7106 401.012 69.2307 391.296 68.3252C381.799 67.4407 372.281 66.7658 362.761 66.2041C313.033 63.2455 263.058 62.7891 213.275 64.5129C188.731 65.357 164.173 66.7634 139.765 69.5342C118.194 71.978 92.6836 73.7366 77.9467 91.8886C68.0287 104.104 64.875 119.353 62.8147 134.553C60.1831 153.975 59.4022 173.625 59.2143 193.206C58.838 232.943 60.3691 273.348 66.653 312.643C68.8873 326.62 71.888 341.032 82.3611 351.401C98.9416 367.817 125.812 368.344 147.67 370.213C174.657 372.523 201.788 373.483 228.926 373.626C225.481 397.208 195.624 391.338 178.646 404.503C167.889 412.845 172.376 426.926 179.302 435.637C194.265 454.466 233.971 446.898 254.122 446.508C275.712 446.092 310.968 451.505 329.416 437.669C339.703 429.955 342.751 417.389 335.893 406.554C322.478 385.362 288.296 401.951 285.592 372.88C290.582 372.732 295.57 372.581 300.552 372.403C324.117 371.563 347.681 370.305 371.183 368.327Z" fill="#181C1D"/>
<path d="M321.705 123.603C323.321 121.721 326.347 121.103 328.638 121.985C331.272 123.001 332.869 125.397 332.801 128.234C332.735 129.769 332.253 131.176 331.282 132.373C330.254 133.647 328.69 134.275 327.098 134.433C324.42 134.697 321.781 133.203 320.689 130.732C319.649 128.382 320.018 125.572 321.705 123.603Z" fill="#FFC522"/>
<path d="M356.851 123.77C356.839 123.789 356.828 123.817 356.815 123.846C356.896 123.782 356.964 123.69 356.994 123.615C356.935 123.69 356.907 123.707 356.86 123.763C356.9 123.714 356.914 123.65 356.959 123.603C358.575 121.721 361.601 121.103 363.892 121.985C366.529 123.001 368.123 125.397 368.055 128.234C367.989 129.769 367.507 131.176 366.536 132.373C365.508 133.647 363.944 134.275 362.352 134.433C359.674 134.697 357.035 133.203 355.943 130.732C354.932 128.441 355.275 125.729 356.851 123.77Z" fill="#FBE134"/>
<path d="M404.191 147.09C400.957 126.539 393.325 108.997 375.557 107.085C333.892 102.603 291.61 101.885 249.743 102.464C225.152 102.802 200.514 103.512 176.012 105.7C154.81 107.593 120.925 106.624 112.536 131.123C110.572 136.855 109.055 142.812 107.893 148.927C106.821 154.538 108.719 156.142 114.874 155.733C208.896 149.423 303.388 149.447 397.491 154.332C403.532 154.649 405.251 153.863 404.191 147.09ZM301.492 137.6C297.991 141.68 291.438 143.021 286.478 141.109C280.77 138.91 277.317 133.715 277.463 127.572C277.611 124.248 278.646 121.201 280.751 118.609C282.98 115.85 286.362 114.493 289.81 114.152C295.612 113.576 301.327 116.815 303.693 122.165C305.945 127.256 305.147 133.341 301.492 137.6ZM336.747 137.6C333.245 141.68 326.693 143.021 321.732 141.109C316.025 138.91 312.572 133.715 312.717 127.572C312.865 124.248 313.9 121.201 316.005 118.609C318.235 115.85 321.617 114.493 325.065 114.152C330.867 113.576 336.582 116.815 338.948 122.165C341.199 127.256 340.401 133.341 336.747 137.6ZM372.001 137.6C368.5 141.68 361.947 143.021 356.987 141.109C351.279 138.91 347.826 133.715 347.974 127.572C348.12 124.248 349.155 121.201 351.26 118.609C353.489 115.85 356.871 114.493 360.319 114.152C366.121 113.576 371.836 116.815 374.202 122.165C376.453 127.256 375.656 133.341 372.001 137.6Z" fill="#0080FF"/>
<path d="M286.45 123.603C288.066 121.721 291.093 121.103 293.384 121.985C296.018 123.001 297.615 125.397 297.547 128.234C297.479 129.769 296.999 131.176 296.028 132.373C295 133.647 293.436 134.275 291.844 134.433C289.165 134.697 286.526 133.203 285.435 130.732C284.395 128.382 284.764 125.572 286.45 123.603Z" fill="#FFC522"/>
<path d="M439.775 203.648C439.29 184.245 438.389 164.838 436.663 145.503C435.527 132.822 434.504 119.729 430.892 107.455C428.408 99.0214 424.424 90.5195 416.454 86.0744C408.869 81.8478 399.285 81.7635 390.816 80.9827C371.171 79.1692 351.446 78.1535 331.733 77.4316C282.433 75.6302 232.948 75.6844 183.692 78.5744C162.367 79.8279 140.928 81.4553 119.832 84.9196C109.02 86.6927 97.6961 89.6941 89.7517 97.7016C86.7317 100.748 84.4366 104.306 82.5082 108.125C82.2427 108.657 81.2077 110.915 81.2149 110.835C81.0223 111.307 80.829 111.785 80.655 112.265C80.2269 113.462 79.8175 114.668 79.4484 115.889C75.1304 130.132 73.9708 145.383 73.0442 160.16C71.7696 180.348 71.654 200.61 72.1152 220.826C72.5715 240.883 73.6228 260.942 75.4808 280.921C76.7981 295.14 78.2581 309.559 81.6593 323.456C83.0795 329.268 85.0881 334.924 88.8468 339.677C95.4341 348.005 105.848 351.62 115.909 353.656C137.41 358.005 160.058 358.715 181.914 359.672C231.254 361.827 280.783 361.013 330.092 358.398C350.274 357.328 370.455 355.95 390.551 353.797C398.79 352.918 408.224 352.682 415.9 349.362C425.089 345.389 429.385 336.422 432.629 327.513C434.303 322.751 435.221 317.734 435.999 312.762C441.497 277.471 440.675 239.61 439.775 203.648ZM415.419 302.078C413.354 310.883 410.513 319.743 402.354 327.878C386.239 343.948 360.318 342.695 335.656 344.323C292.427 347.175 248.939 348.41 205.627 346.898C177.984 345.933 119.223 351.154 105.17 319.418C93.6484 293.397 94.1378 260.088 93.1613 232.223C92.03 199.918 88.8035 161.303 99.483 130.103C111.948 93.7015 154.21 94.3457 186.671 92.1752C233.762 89.0191 281.18 88.8006 328.32 91.0042C357.884 92.3895 400.527 87.4833 411.028 122.719C419.875 152.404 418.998 186.751 419.335 217.386C419.629 244.248 421.736 275.091 415.419 302.078Z" fill="#DADFE9"/>
<path d="M319.677 429.2C314.188 433.316 303.738 431.966 297.296 432.312C284.321 433.003 271.327 433.396 258.336 433.718C240.321 434.163 209.94 439.788 193.465 430.924C169.633 418.097 201.529 406.921 212.646 405.496C219.088 404.671 224.14 403.412 229.864 400.498C239.055 395.816 241.447 383.635 241.885 373.649C252.183 373.61 262.482 373.44 272.773 373.205C273.206 383.259 275.718 392.18 283.512 399.506C291.56 407.074 346.89 408.789 319.677 429.2Z" fill="#DADFE9"/>
<path d="M406.453 207.56C406.241 199.576 406.686 187.476 406.378 174.402C406.23 168.369 405.211 167.433 399.503 167.135C304.916 162.142 209.909 162.071 115.381 168.381C106.67 168.964 105.117 169.155 104.741 177.685C103.848 197.817 105.169 218.372 106.058 237.064C107.427 265.889 102.519 322.246 140.278 328.766C186.327 336.715 234.796 335.572 281.337 334.179C302.678 333.544 324.025 332.625 345.315 330.917C366.592 329.21 391.573 331.369 400.567 308.093C410.548 277.411 407.286 239.303 406.453 207.56ZM238.491 229.553C237.96 239.318 237.722 252.375 226.184 255.104C201.186 261.012 169.622 263.644 143.975 257.663C137.994 256.272 135.753 255.515 132.228 248.022C126.764 236.39 127.771 218.852 128.568 207.897C129.485 195.333 130.6 183.386 144.511 180.716C161.426 177.468 178.956 176.779 196.141 177.287C201.503 177.445 211.082 176.695 218.893 178.028C229.404 179.829 234.622 187.414 237.254 198.473C239.658 208.558 239.016 219.931 238.491 229.553Z" fill="white"/>
<path d="M141.268 207.898C141.793 191.616 148.39 192.326 162.256 190.964C172.278 189.979 200.495 187.23 215.989 190.539C220.735 191.553 222.95 195.143 224.319 198.747C228.077 208.634 226.113 223.667 225.547 234.088C224.839 246.978 211.969 246.308 201.511 247.3C185.429 248.829 167.38 248.94 150.976 246.047C146.247 245.217 142.952 242.832 141.677 236.919C139.655 227.545 141.043 214.8 141.268 207.898Z" fill="#0080FF"/>
<path d="M208.668 427.72C205.003 427.426 202 426.786 198.59 425.688C194.295 424.305 189.338 420.5 187.621 415.881C183.287 420.152 183.171 425.382 193.465 430.923C209.94 439.787 240.321 434.162 258.336 433.717C271.328 433.395 284.322 433.002 297.297 432.311C303.739 431.965 314.188 433.315 319.677 429.199C325.324 424.966 327.375 421.544 327.079 418.699C310.552 430.486 282.692 425.66 263.856 426.589C251.163 427.212 238.52 428.268 225.803 428.39C220.076 428.442 214.371 428.176 208.668 427.72Z" fill="#A2ABBD"/>
<path d="M440.362 234.756C438.359 260.203 435.543 285.552 430.844 310.507C428.975 320.437 426.129 330.188 419.085 337.72C408.528 349.009 388.617 349.795 374.456 351.493C344.786 355.056 314.576 354.783 284.731 355.524C257.066 356.211 229.383 356.476 201.709 356.076C175.77 355.703 148.708 355.818 123.331 349.929C113.432 347.631 103.956 343.866 96.5855 336.662C88.0415 328.315 86.2304 315.229 84.2147 304.025C80.0285 280.796 77.9164 257.16 76.5714 233.613C75.024 206.506 74.9554 179.236 77.1662 152.166C78.4552 136.383 80.0285 116.392 87.3051 100.496C85.4399 102.85 83.8763 105.419 82.5072 108.126C82.2417 108.657 81.2067 110.915 81.2139 110.835C81.0213 111.308 80.828 111.785 80.654 112.265C80.2259 113.462 79.8165 114.668 79.4475 115.889C75.1294 130.132 73.9698 145.384 73.0432 160.16C71.7686 180.349 71.653 200.61 72.1142 220.827C72.5706 240.883 73.6218 260.942 75.4798 280.921C76.7971 295.141 78.2572 309.56 81.6583 323.457C83.0786 329.268 85.0871 334.924 88.8458 339.677C95.4331 348.005 105.847 351.62 115.908 353.657C137.409 358.005 160.057 358.715 181.913 359.673C231.253 361.827 280.782 361.013 330.091 358.398C350.273 357.328 370.454 355.95 390.55 353.798C398.789 352.918 408.223 352.683 415.899 349.362C425.088 345.39 429.384 336.422 432.628 327.513C434.302 322.751 435.219 317.735 435.998 312.763C439.93 287.527 440.612 260.984 440.362 234.756Z" fill="#A2ABBD"/>
<path d="M423.271 244.715C424.61 219.741 422.804 194.247 421.618 169.293C420.757 151.219 421.451 131.332 413.121 114.822C406.178 101.066 392.575 90.6457 377.274 88.6486C342.156 84.065 305.822 85.3348 270.495 85.4197C251.149 85.4618 231.805 85.6852 212.461 86.085C192.252 86.4992 171.586 86.0567 151.555 88.8671C130.847 91.7715 108.773 98.7261 98.3424 118.482C93.3705 127.903 91.7641 138.875 90.5955 149.324C88.133 171.336 89.0247 193.774 90.0687 215.84C90.8261 231.893 91.3198 249.06 94.3681 265.422C93.6932 254.036 93.5282 242.74 93.1616 232.223C92.0303 199.918 88.8037 161.303 99.4833 130.103C111.948 93.7012 154.211 94.3454 186.671 92.1749C233.763 89.0189 281.18 88.8003 328.321 91.0039C357.884 92.3893 400.527 87.483 411.028 122.719C419.876 152.404 418.999 186.75 419.335 217.385C419.577 239.669 421 264.66 417.896 287.946C420.875 273.824 422.498 259.107 423.271 244.715Z" fill="#F0F2F6"/>
<path d="M302.055 115.676C296.299 109.665 285.879 110.808 280.175 116.076C275.291 120.599 275.392 128.884 278.981 134.393C277.958 132.358 277.405 130.051 277.464 127.572C277.612 124.249 278.647 121.201 280.752 118.609C282.981 115.85 286.363 114.493 289.811 114.153C295.613 113.576 301.328 116.815 303.694 122.166C305.467 126.178 305.322 130.79 303.405 134.656C308.273 129.687 306.633 120.46 302.055 115.676Z" fill="#0057FA"/>
<path d="M337.337 115.676C331.582 109.665 321.162 110.808 315.458 116.076C310.651 120.526 310.672 128.619 314.09 134.126C313.151 132.158 312.664 129.94 312.719 127.572C312.867 124.248 313.902 121.2 316.007 118.609C318.236 115.85 321.618 114.493 325.066 114.152C330.868 113.576 336.583 116.814 338.949 122.165C340.737 126.206 340.572 130.853 338.615 134.733C343.579 129.785 341.94 120.483 337.337 115.676Z" fill="#0057FA"/>
<path d="M372.124 115.676C366.368 109.665 355.948 110.808 350.244 116.076C344.571 121.323 345.599 131.639 351.037 136.777C349.017 134.27 347.889 131.088 347.974 127.572C348.12 124.249 349.155 121.201 351.26 118.609C353.489 115.85 356.871 114.493 360.319 114.153C366.121 113.576 371.836 116.815 374.203 122.166C375.823 125.825 375.837 129.993 374.374 133.631C378.128 128.496 376.401 120.14 372.124 115.676Z" fill="#0057FA"/>
<path d="M404.191 147.09C403.893 145.199 403.545 143.35 403.171 141.525C401.981 143.426 400.412 145.147 398.107 146.573C392.769 149.872 385.57 149.886 379.514 149.95C369.361 150.051 359.085 148.997 348.935 148.689C319.276 147.783 289.643 146.727 259.965 146.582C229.868 146.426 199.786 147.252 169.692 147.235C156.189 147.228 142.739 147.699 129.249 148.2C120.335 148.529 113.886 147.167 109.378 142.288C108.849 144.486 108.317 146.683 107.894 148.927C106.822 154.538 108.719 156.142 114.874 155.733C208.897 149.423 303.389 149.447 397.492 154.332C403.533 154.649 405.252 153.863 404.191 147.09Z" fill="#0057FA"/>
<path d="M375.557 107.085C333.892 102.603 291.61 101.885 249.743 102.464C225.152 102.802 200.514 103.512 176.013 105.7C158.049 107.301 131.033 106.913 118.084 121.641C131.638 114.002 148.707 110.93 162.783 109.545C189.863 106.883 217.506 106.779 244.696 106.319C273.468 105.829 302.255 106.243 331.016 107.163C345.894 107.64 360.699 107.762 375.374 110.58C381.308 111.721 386.938 113.637 392.336 116.076C388.109 111.132 382.653 107.847 375.557 107.085Z" fill="#30C8FF"/>
<path d="M225.547 234.088C226.05 224.826 227.633 211.943 225.347 202.248C225.267 210.275 224.994 218.222 223.795 226.31C222.45 235.379 218.176 241.503 208.68 243.502C199.007 245.542 188.957 245.666 179.115 245.555C171.125 245.466 163.094 244.986 155.244 243.446C147.097 241.856 144.456 236.628 143.143 229.234C141.434 219.608 140.571 208.305 142.873 198.465C141.932 200.725 141.405 203.756 141.269 207.898C141.043 214.801 139.656 227.546 141.679 236.92C142.953 242.832 146.248 245.217 150.978 246.047C167.382 248.94 185.43 248.83 201.512 247.301C211.97 246.308 224.839 246.978 225.547 234.088Z" fill="#0057FA"/>
<path d="M296.808 125.951C296.756 128.475 294.642 130.62 292.427 131.504C290.138 132.421 287.716 131.469 286.434 129.425C285.402 127.775 285.578 125.86 286.149 124.082C284.766 126.015 284.475 128.555 285.434 130.731C286.526 133.202 289.164 134.696 291.843 134.432C293.436 134.275 294.999 133.647 296.027 132.372C296.998 131.175 297.478 129.769 297.546 128.233C297.574 127.026 297.25 125.935 296.725 124.959C296.761 125.288 296.817 125.61 296.808 125.951Z" fill="#FFA222"/>
<path d="M205.304 195.417C190.998 194.779 172.002 194.283 160.709 197.954C153.573 200.271 151.236 202.197 150.093 208.86C149.001 215.163 153.568 221.184 162.174 222.19C172.308 223.38 183.164 223.789 193.291 223.037C202.555 222.35 207.972 221.682 211.918 218.719C216.394 215.353 218.557 209.299 215.03 201.668C213.357 198.043 210.702 195.663 205.304 195.417Z" fill="#30C8FF"/>
<path d="M294.543 125.444C293.966 123.36 289.705 122.61 288.633 125.07C287.991 126.563 288.748 128.194 290.394 128.885C292.575 129.792 295.204 127.861 294.543 125.444Z" fill="#FBE134"/>
<path d="M361.808 132.369C357.067 132.71 355.653 127.868 356.677 124.062C355.284 125.996 354.979 128.543 355.943 130.73C357.034 133.201 359.673 134.695 362.352 134.431C363.944 134.274 365.508 133.646 366.536 132.371C367.507 131.174 367.989 129.768 368.055 128.232C368.071 127.493 367.967 126.792 367.77 126.129C367.813 129.253 365.56 132.098 361.808 132.369Z" fill="#FFA222"/>
<path d="M235.667 247.03C241.234 240.094 241.083 228.544 241.159 220.376C241.262 209.092 241.777 187.252 230.542 180.073C218.28 172.236 199.561 173.887 185.716 174.212C170.467 174.57 151.351 174.725 137.145 180.915C127.056 185.308 126.946 201.499 126.978 210.487C126.997 215.786 127.009 223.344 128.255 230.426C127.644 222.314 128.121 214.066 128.568 207.897C129.485 195.334 130.6 183.386 144.511 180.717C161.426 177.469 178.956 176.78 196.141 177.288C201.504 177.446 211.083 176.696 218.893 178.029C229.404 179.83 234.622 187.415 237.254 198.473C239.658 208.558 239.016 219.932 238.491 229.553C238.185 235.155 237.967 241.832 235.667 247.03Z" fill="#A2ABBD"/>
<path d="M406.719 216.036C405.652 230.994 404.678 245.968 404.14 260.89C403.549 277.268 403.789 308.214 388.156 318.555C369.37 330.987 339.306 327.675 317.843 328.955C295.752 330.265 273.614 330.855 251.49 331.179C228.823 331.514 206.146 331.219 183.524 329.66C164.721 328.367 137.738 329.517 123.792 314.928C108.73 299.173 109.881 268.272 108.911 247.94C108.436 237.921 108.211 227.794 106.741 217.86C106.181 214.083 105.454 210.332 104.704 206.59C105.031 217.035 105.593 227.31 106.059 237.065C107.427 265.889 102.519 322.247 140.278 328.766C186.327 336.715 234.797 335.573 281.338 334.18C302.678 333.545 324.026 332.626 345.315 330.918C366.592 329.211 391.574 331.37 400.567 308.093C409.676 280.096 407.759 245.923 406.719 216.036Z" fill="#A2ABBD"/>
<path d="M207.842 260.745C216.683 259.527 228.308 258.394 233.964 250.602C234.681 249.609 235.147 248.511 235.5 247.379C233.774 251.069 230.952 253.974 226.184 255.103C201.186 261.011 169.623 263.642 143.975 257.661C137.994 256.271 135.753 255.514 132.228 248.021C130.91 245.215 129.986 242.057 129.328 238.738C129.566 244.98 130.69 251.546 135.062 255.599C142.543 262.527 155.467 261.745 164.97 262.297C179.356 263.139 193.566 262.718 207.842 260.745Z" fill="#F0F2F6"/>
<path d="M406.46 179.362C406.444 177.732 406.418 176.076 406.378 174.402C406.23 168.369 405.211 167.433 399.503 167.135C304.916 162.142 209.909 162.071 115.381 168.381C106.67 168.964 105.117 169.155 104.741 177.685C104.736 177.755 104.741 177.823 104.736 177.894C106.317 176.514 108.299 175.354 110.884 174.449C115.197 172.941 120.139 172.767 124.669 172.271C134.32 171.21 144.013 170.533 153.695 169.905C182.442 168.056 211.261 167.245 240.06 166.89C274.119 166.469 308.195 166.96 342.221 168.477C359.376 169.24 377.643 168.948 394.451 172.682C399.741 173.859 403.52 176.243 406.46 179.362Z" fill="#F0F2F6"/>
<path d="M386.811 279.719C391.7 279.957 391.724 287.577 386.811 287.339C303.158 283.287 218.426 281.205 134.716 284.824C129.803 285.038 129.824 277.416 134.716 277.205C218.426 273.585 303.158 275.666 386.811 279.719Z" fill="#181C1D"/>
<path d="M263.174 185.11C304.398 185.59 345.633 186.358 386.811 188.339C391.701 188.574 391.724 196.199 386.811 195.958C345.633 193.978 304.398 193.209 263.174 192.73C258.264 192.674 258.257 185.054 263.174 185.11Z" fill="#181C1D"/>
<path d="M263.174 230.719C304.398 231.199 345.633 231.968 386.811 233.948C391.701 234.183 391.724 241.806 386.811 241.568C345.633 239.588 304.398 238.819 263.174 238.339C258.264 238.283 258.257 230.662 263.174 230.719Z" fill="#181C1D"/>
<path d="M263.174 253.522C304.398 254.002 345.633 254.773 386.811 256.754C391.701 256.987 391.724 264.611 386.811 264.374C345.633 262.393 304.398 261.622 263.174 261.142C258.264 261.086 258.257 253.465 263.174 253.522Z" fill="#181C1D"/>
<path d="M263.174 207.912C304.398 208.392 345.633 209.164 386.811 211.144C391.701 211.377 391.724 219.001 386.811 218.764C345.633 216.783 304.398 216.012 263.174 215.532C258.264 215.479 258.257 207.858 263.174 207.912Z" fill="#181C1D"/>
<path d="M386.811 310.142C303.158 306.09 218.426 304.01 134.716 307.63C129.803 307.844 129.824 300.219 134.716 300.01C218.426 296.39 303.158 298.469 386.811 302.522C391.7 302.759 391.724 310.379 386.811 310.142Z" fill="#181C1D"/>
</svg>
