<svg width="512" height="512" viewBox="0 0 512 512" fill="none" xmlns="http://www.w3.org/2000/svg">
<path d="M108.73 434.954C130.436 442.72 153.286 442.165 175.029 443.583C200.316 445.472 233.139 446.205 266.455 446.194C307.591 446.194 351.672 445.202 395.289 438.003C436.72 431.173 440.04 387.89 441.129 373.67C444.179 337.183 417.213 327.975 398.286 320.718C398.822 300.01 398.001 279.915 397.392 259.734C406.164 259.255 420.857 256.727 428.973 243.342C451.527 207.453 414.027 174.68 387.341 155.192C377.594 149.884 382.343 136.269 379.379 127.344C369.763 81.5887 325.686 93.4959 302.753 88.2326C269.71 59.5425 236.787 57.5858 203.373 86.9694C197.545 91.043 189.467 88.6064 182.628 89.6342C143.528 87.2915 125.727 113.997 126.91 146.429C112.46 159.498 100.353 172.083 89.7909 185.03C81.7382 194.86 68.2596 211.314 75.6585 234.859C78.2456 243.088 85.7149 256.352 107.107 258.861C107.201 279.819 107.777 301.246 108.685 322.769C59.3555 334.612 56.5456 419.351 108.73 434.954Z" fill="white"/>
<path d="M116.593 413.296C134.587 419.829 157.795 419.286 176.628 420.598C203.912 422.501 231.297 423.068 258.642 423.143C302.827 423.27 347.855 422.48 391.543 415.269C412.966 411.737 416.734 390.488 418.156 371.906C420.151 345.932 394.821 343.268 375.153 341.438C375.339 334.124 375.077 326.802 375.256 320.116C375.985 292.294 374.097 264.417 373.85 236.586C376.399 236.558 378.946 236.553 381.493 236.523C388.495 236.431 404.795 238.78 409.276 231.391C413.975 223.647 413.836 215.138 408.959 207.529C398.001 190.453 375.322 175.829 359.977 162.807C359.725 162.597 359.464 162.442 359.206 162.275C359.015 151.804 358.263 141.376 356.618 130.918C353.424 110.553 327.75 113.375 312.582 112.635C306.973 112.359 301.361 112.157 295.75 111.964C295.607 111.84 295.491 111.701 295.334 111.586C282.573 102.134 270.315 90.0923 253.951 88.6341C237.156 87.1385 222.756 101.708 210.35 110.598C209.915 110.908 209.541 111.252 209.216 111.609C202.208 111.833 195.197 112.129 188.198 112.533C181.06 112.952 166.913 111.915 160.837 116.602C151.935 123.477 150.86 130.506 150.209 141.539C149.898 146.713 149.765 151.866 149.729 157C134.705 170.018 120.622 183.75 108.005 199.162C100.556 208.256 93.9078 216.079 97.6424 227.953C100.897 238.313 115.006 236.018 123.28 236.029C125.674 236.034 128.071 236.055 130.465 236.057C129.964 253.95 130.079 271.841 130.658 289.727C131.182 306.056 131.198 324.31 133.435 341.639C112.847 344.043 98.2891 346.397 94.5496 370.445C91.3622 390.932 97.0416 406.2 116.593 413.296Z" fill="#181C1D"/>
<path d="M267.377 111.287C257.158 111.148 246.937 111.108 236.718 111.16C233.764 111.172 228.59 112.206 234.769 108.163C238.698 105.595 242.786 103.415 247.132 102.11C254.903 99.7717 263.052 103.326 270.611 108.377C276.862 112.559 272.128 111.345 267.377 111.287Z" fill="#0080FF"/>
<path d="M183.882 125.526C202.268 124.089 220.772 123.927 239.202 123.828C257.292 123.729 275.385 124.059 293.469 124.594C300.905 124.813 322.864 122.84 335.496 127.05C344.709 130.123 344.842 135.051 345.755 140.036C347.924 151.836 346.792 165.476 346.453 176.925C345.983 193.003 339.215 199.313 325.122 200.414C306.735 201.851 288.233 202.013 269.806 202.111C251.711 202.21 233.619 201.881 215.537 201.345C205.46 201.049 168.646 204.783 164.639 191.65C163.757 186.053 163.19 180.498 162.851 174.945C162.268 165.476 161.668 147.33 163.827 139.628C166.424 130.378 172.947 126.384 183.882 125.526Z" fill="#FFC522"/>
<path d="M113.147 212.871C116.409 208.14 120.795 203.485 121.216 202.973C128.547 194.019 136.717 185.769 145.234 177.906C151.482 172.135 150.342 176.716 150.795 181.688C150.96 183.506 151.153 185.324 151.367 187.146C152.239 194.635 152.056 198.861 158.173 205.027C167.162 214.094 182.656 212.636 196.426 213.308C224.507 214.679 252.657 214.997 280.768 214.731C294.122 214.602 307.473 214.176 320.804 213.407C327.944 212.989 342.088 214.025 348.167 209.338C357.069 202.464 358.146 195.439 358.8 184.402C359.238 176.972 361.801 181.137 363.953 183.005C372.561 190.498 381.077 198.099 389.412 205.921C391.31 207.704 394.419 210.55 396.928 213.438C405.505 223.327 399.005 223.44 390.642 223.683C381.442 223.944 372.227 223.932 363.027 223.991C324.907 224.231 286.789 224.048 248.672 223.897C213.077 223.754 177.484 223.544 141.889 223.389C134.158 223.356 126.423 223.309 118.688 223.321C110.52 223.337 105.725 223.619 113.147 212.871Z" fill="#0080FF"/>
<path d="M248.673 236.597C283.633 236.738 318.6 236.937 353.563 236.742C359.673 236.703 361.162 239.219 361.265 245.693C361.554 264.226 362.246 282.744 362.58 301.274C362.858 316.415 367.604 364.64 351.141 371.299C342.58 374.761 330.79 374.994 319.696 374.812C313.471 374.704 312.173 373.987 312.445 367.778C313.582 341.771 317.076 311.78 309.355 287.725C306.406 278.546 297.643 274.64 287.593 273.076C282.125 272.227 267.515 272.551 253.475 272.481C238.213 272.406 223.43 272.029 216.922 273.379C208.491 275.12 201.113 278.8 196.753 286.209C191.308 295.445 193.046 311.185 192.682 321.371C192.16 335.969 192.689 350.626 193.058 365.247C193.204 371.2 190.8 372.171 186.216 371.945C178.806 371.574 171.393 371.155 163.982 370.732C148.547 369.842 148.777 353.749 147.23 341.705C143.107 309.621 142.253 276.919 142.94 244.524C143.062 238.631 146.007 236.111 151.882 236.135C184.145 236.258 216.405 236.46 248.673 236.597Z" fill="#DADFE9"/>
<path d="M205.786 365.087C205.412 347.3 204.881 329.497 205.81 311.719C206.451 299.461 206.651 286.968 222.383 285.872C231.708 285.225 241.099 285.251 250.441 285.202C259.077 285.157 267.717 285.296 276.349 285.562C290.686 286.006 298.578 290.712 299.3 306.58C300.236 327.084 299.881 347.479 299.578 367.961C299.472 375.489 298.106 374.669 292.085 374.727C274.773 374.911 257.454 374.572 240.154 374.113C231.113 373.871 222.073 373.532 213.037 373.156C207.16 372.909 205.913 370.927 205.786 365.087Z" fill="#FFC522"/>
<path d="M137.273 361.397C137.769 363.269 138.317 365.116 138.928 366.917C144.396 383.062 158.187 383.11 172.346 383.907C194.936 385.177 217.541 386.141 240.154 386.814C264.411 387.531 288.689 387.738 312.942 386.995C325.694 386.607 350.061 389.043 360.741 380.53C367.778 374.919 371.402 367.355 373.268 359.001C374.227 354.695 375.144 354.095 379.027 354.314C391.221 355.012 403.632 356.076 405.457 371.906C406.765 383.218 400.6 400.78 388.171 403.026C376.898 405.058 365.438 406.074 354.039 407.059C324.222 409.623 294.226 410.298 264.311 410.439C233.41 410.589 202.476 409.7 171.648 407.551C158.924 406.664 146.215 405.427 133.588 403.644C124.468 402.355 111.276 401.335 107.64 390.342C100.758 369.537 112.473 359.904 128.308 355.707C133.578 354.304 135.944 356.428 137.273 361.397Z" fill="#DADFE9"/>
<path d="M372.347 362.513C370.289 369.467 366.773 375.716 360.741 380.531C350.061 389.045 325.693 386.608 312.941 386.996C288.689 387.739 264.411 387.532 240.154 386.814C217.54 386.142 194.935 385.177 172.345 383.908C158.187 383.11 144.396 383.064 138.928 366.918C138.316 365.116 137.768 363.27 137.272 361.398C136.891 359.978 136.411 358.818 135.816 357.877C126.044 387.438 163.351 389.886 185.316 391.017C223.296 392.976 261.236 394.679 299.294 394.469C309.444 394.41 319.585 393.865 329.738 393.829C342.226 393.789 354.823 393.354 365.404 385.95C373.969 379.957 375.611 370.559 372.347 362.513Z" fill="#A2ABBD"/>
<path d="M350.268 402.603C315.609 404.957 280.834 405.743 246.104 405.322C214.002 404.936 181.87 403.453 149.874 400.79C137.472 399.758 123.966 398.977 112.95 392.603C109.939 390.86 107.933 388.84 106.59 386.67C106.877 387.855 107.223 389.076 107.639 390.341C111.275 401.334 124.466 402.355 133.587 403.644C146.214 405.426 158.923 406.664 171.647 407.55C202.475 409.699 233.409 410.589 264.31 410.438C294.226 410.297 324.221 409.622 354.037 407.059C365.437 406.073 376.898 405.057 388.17 403.025C392.883 402.172 396.692 399.112 399.538 395.029C385.783 403.019 365.052 401.599 350.268 402.603Z" fill="#F0F2F6"/>
<path d="M205.516 352.433C207.405 337.195 209.136 321.828 212.72 307.106C216.017 293.557 225.61 292.334 237.687 291.929C246.612 291.631 255.542 291.389 264.475 291.238C272.424 291.109 281.601 289.977 288.061 295.516C296.502 302.759 295.849 319.77 296.552 329.834C297.302 340.542 298.521 351.215 299.451 361.907C299.55 363.022 299.565 364.136 299.618 365.256C299.907 345.681 300.199 326.18 299.301 306.582C298.579 290.714 290.686 286.008 276.349 285.564C267.718 285.298 259.077 285.159 250.441 285.204C241.1 285.253 231.709 285.227 222.384 285.874C206.652 286.969 206.452 299.462 205.81 311.721C205.102 325.283 205.241 338.86 205.516 352.433Z" fill="#FFA222"/>
<path d="M280.759 332.663C272.866 328.643 238.993 329.441 230.86 330.716C222.678 331.998 221.946 333.441 219.717 341.69C217.294 350.61 215.768 360.107 226.09 362.739C234.674 364.931 275.707 366.471 283.668 362.01C290.218 358.338 286.946 335.814 280.759 332.663Z" fill="#FBE134"/>
<path d="M352.408 210.014C358.257 204.774 360.936 196.75 358.316 190.202C357.444 198.043 355.393 203.759 348.168 209.339C342.089 214.026 327.945 212.99 320.805 213.408C307.474 214.177 294.123 214.603 280.769 214.732C252.658 214.997 224.509 214.68 196.427 213.309C182.657 212.637 167.163 214.095 158.174 205.028C152.057 198.862 152.241 194.635 151.368 187.147C151.192 185.682 151.051 184.222 150.907 182.764C147.878 194.144 150.693 205.363 162.377 211.082C169.016 214.328 176.925 214.476 184.134 214.967C195.841 215.769 207.573 216.233 219.304 216.579C244.56 217.322 269.831 217.11 295.087 216.52C308.255 216.214 321.416 215.748 334.572 215.233C340.778 214.986 347.521 214.386 352.408 210.014Z" fill="#0057FA"/>
<path d="M389.412 205.921C386.635 203.313 383.808 200.761 380.995 198.202C387.115 206.385 391.786 214.792 386.757 217.881C379.387 222.403 367.293 221.029 359 221.244C348.483 221.524 337.961 221.571 327.441 221.554C301.938 221.507 276.436 220.74 250.926 220.698C221.097 220.642 191.269 220.745 161.44 220.47C152.327 220.388 143.263 220.353 134.246 218.847C118.613 216.237 123.053 203.993 129.918 193.102C126.926 196.314 123.994 199.579 121.216 202.973C120.795 203.486 116.409 208.14 113.147 212.871C105.725 223.619 110.52 223.337 118.688 223.32C126.424 223.308 134.158 223.356 141.889 223.388C177.484 223.544 213.077 223.753 248.672 223.896C286.789 224.047 324.907 224.231 363.027 223.99C372.227 223.931 381.442 223.943 390.642 223.682C399.005 223.44 405.506 223.327 396.928 213.437C394.419 210.55 391.31 207.704 389.412 205.921Z" fill="#30C8FF"/>
<path d="M320.621 354.515C319.315 334.374 320.891 314.517 317.721 294.432C312.963 264.295 285.562 266.436 261.171 265.436C244.957 264.769 228.828 265.02 212.748 267.297C202.995 268.68 195.507 272.682 191.332 281.843C184.771 296.262 186.37 315.803 186.116 331.176C185.966 340.524 186.311 350.216 184.578 359.44C183.355 365.928 179.227 369.237 174.124 371.286C178.155 371.51 182.189 371.743 186.217 371.945C190.801 372.171 193.204 371.2 193.059 365.247C192.69 350.626 192.16 335.969 192.682 321.371C193.047 311.185 191.309 295.444 196.754 286.208C201.114 278.8 208.492 275.119 216.923 273.379C223.431 272.029 238.214 272.405 253.476 272.481C267.516 272.551 282.126 272.226 287.594 273.075C297.643 274.64 306.406 278.546 309.356 287.725C317.077 311.78 313.582 341.771 312.446 367.777C312.174 373.987 313.472 374.704 319.697 374.812C323.46 374.875 327.293 374.875 331.064 374.732C325.075 371.002 321.293 364.842 320.621 354.515Z" fill="#A2ABBD"/>
<path d="M353.563 236.742C318.6 236.937 283.633 236.737 248.673 236.596C216.405 236.459 184.145 236.257 151.882 236.135C146.007 236.111 143.063 238.631 142.94 244.524C142.853 248.697 142.794 252.876 142.756 257.055C144.48 253.681 146.83 250.741 150.085 248.537C158.573 242.791 171.793 244.118 181.559 243.928C212.154 243.318 242.773 243.554 273.373 243.779C295.229 243.942 317.576 243.105 339.373 245.043C346.516 245.673 354.667 247.15 359.081 253.321C360.023 254.634 360.812 256.092 361.539 257.604C361.448 253.629 361.327 249.666 361.264 245.694C361.162 239.218 359.673 236.701 353.563 236.742Z" fill="#F0F2F6"/>
<path d="M327.674 192.718C321.816 195.027 315.181 195.046 308.974 195.298C292.737 195.959 276.464 196.02 260.218 196.097C243.482 196.177 226.737 196.154 210.001 195.82C200.745 195.639 191.363 195.794 182.219 194.197C169.996 192.066 165.706 183.772 162.809 174.246C162.821 174.477 162.837 174.724 162.851 174.945C163.19 180.498 163.757 186.052 164.639 191.65C168.646 204.783 205.46 201.048 215.538 201.344C233.618 201.881 251.711 202.21 269.807 202.111C288.233 202.012 306.735 201.85 325.122 200.413C339.214 199.312 345.983 193.002 346.454 176.925C346.493 175.549 346.55 174.135 346.607 172.703C343.382 181.485 337.631 188.797 327.674 192.718Z" fill="#FFA222"/>
<path d="M312.49 132.042C295.9 131.355 218.169 131.407 195.951 133.15C169.262 135.245 164.629 157.101 191.744 157.644C203.346 157.884 295.246 157.407 317.104 157.106C351.562 156.638 340.077 133.201 312.49 132.042Z" fill="#FBE134"/>
</svg>
