<svg width="1346" height="165" viewBox="0 0 1346 165" fill="none" xmlns="http://www.w3.org/2000/svg">
<path d="M57.3799 161.846L0 3.15441H33.5118L74.7385 125.691L115.724 3.15441H148.513L91.3739 161.846H57.3799Z" fill="white"/>
<path d="M169.559 161.846V3.15441H200.419V161.846H169.559Z" fill="white"/>
<path d="M227.101 161.846V134.184L310.278 32.0294H230.718V3.15441H348.612V30.8162L265.435 133.213H351.022V161.846H227.101Z" fill="white"/>
<path d="M379.102 161.846V3.15441H409.962V161.846H379.102Z" fill="white"/>
<path d="M518.374 165C469.191 165 434.474 130.059 434.474 82.5C434.474 34.9412 469.191 0 518.374 0C567.557 0 602.274 34.9412 602.274 82.5C602.274 130.059 567.557 165 518.374 165ZM518.374 136.368C549.716 136.368 570.932 113.559 570.932 82.5C570.932 51.4412 549.716 28.875 518.374 28.875C487.032 28.875 465.816 51.4412 465.816 82.5C465.816 113.559 487.032 136.368 518.374 136.368Z" fill="white"/>
<path d="M622.929 161.846V66.2426C622.929 25.4779 646.797 0 689.953 0C733.108 0 756.976 25.4779 756.976 66.2426V161.846H726.117V66.2426C726.117 42.7059 714.062 28.875 689.953 28.875C665.844 28.875 653.789 42.7059 653.789 66.2426V161.846H622.929Z" fill="white"/>
<path d="M901.097 165C869.996 165 846.128 146.074 846.128 105.309V3.15441H876.987V105.309C876.987 127.147 888.56 136.125 903.749 136.125C918.937 136.125 930.51 126.904 930.51 105.309V3.15441H961.37V105.309C961.37 126.904 972.942 136.125 988.131 136.125C1003.32 136.125 1014.89 127.147 1014.89 105.309V3.15441H1045.75V105.309C1045.75 146.074 1021.88 165 990.783 165C970.772 165 955.101 156.507 945.94 140.735C936.778 156.507 921.107 165 901.097 165Z" fill="white"/>
<path d="M1074.36 161.846V3.15441H1190.56V32.0294H1105.21V67.4559H1176.58V95.1177H1105.21V133.213H1190.56V161.846H1074.36Z" fill="white"/>
<path d="M1217.74 161.846V3.15441H1293.2C1323.1 3.15441 1338.77 20.3824 1338.77 44.4044C1338.77 60.4191 1331.29 72.7941 1318.27 79.3456V79.8309C1335.63 85.4118 1346 99.9706 1346 118.897C1346 143.647 1330.09 161.846 1299.47 161.846H1217.74ZM1248.6 67.4559H1289.34C1302.12 67.4559 1308.15 59.6912 1308.15 49.7427C1308.15 39.5515 1303.33 32.0294 1289.1 32.0294H1248.6V67.4559ZM1248.6 133.213H1294.17C1308.63 133.213 1314.42 124.721 1314.42 114.287C1314.42 103.61 1307.18 95.1177 1294.41 95.1177H1248.6V133.213Z" fill="white"/>
</svg>
