<svg width="228" height="48" viewBox="0 0 228 48" fill="none" xmlns="http://www.w3.org/2000/svg">
<path fill-rule="evenodd" clip-rule="evenodd" d="M24.1749 31.0999C27.9995 31.0999 31.0999 27.9995 31.0999 24.1749C31.0999 23.4652 30.9931 22.7804 30.7947 22.1357C30.2519 23.3381 29.0423 24.1749 27.6373 24.1749C25.7251 24.1749 24.1749 22.6247 24.1749 20.7125C24.1749 19.3075 25.0117 18.098 26.2141 17.5551C25.5694 17.3568 24.8846 17.25 24.1749 17.25C20.3504 17.25 17.25 20.3504 17.25 24.1749C17.25 27.9995 20.3504 31.0999 24.1749 31.0999Z" fill="#252432"/>
<path fill-rule="evenodd" clip-rule="evenodd" d="M20.7874 38.866C18.7164 37.2245 16.6481 35.3855 14.6313 33.3687C12.614 31.3514 10.7745 29.2825 9.13264 27.2109C7.90244 31.3324 8.3008 35.0853 10.607 37.3916C12.9132 39.6977 16.6661 40.0961 20.7874 38.866ZM23.9999 37.6092C21.2934 36.3042 18.5488 34.3645 16.047 31.8627C13.5872 29.4028 11.6707 26.7083 10.3667 24.0459C11.6718 21.324 13.6196 18.562 16.136 16.0456C18.6104 13.5712 21.3222 11.6466 23.9999 10.3422C26.6777 11.6467 29.3896 13.5712 31.864 16.0457C34.3804 18.5621 36.3282 21.324 37.6333 24.0459C36.3293 26.7083 34.4128 29.4028 31.953 31.8626C29.4511 34.3645 26.7066 36.3042 23.9999 37.6092ZM24 41.2544C14.6622 47.7419 5.78675 49.965 1.91087 46.0891C-1.96502 42.2133 0.258122 33.3378 6.74557 24C0.25811 14.6622 -1.96503 5.78674 1.91086 1.91086C5.78674 -1.96503 14.6622 0.25811 24 6.74557C33.3378 0.258111 42.2133 -1.96503 46.0892 1.91086C49.965 5.78674 47.7419 14.6622 41.2544 24C47.7419 33.3378 49.965 42.2133 46.0891 46.0891C42.2133 49.965 33.3378 47.7419 24 41.2544ZM38.8674 27.2109C40.0976 31.3324 39.6992 35.0854 37.393 37.3916C35.0868 39.6978 31.3339 40.0962 27.2125 38.8661C29.2836 37.2245 31.3519 35.3855 33.3687 33.3687C35.386 31.3514 37.2255 29.2825 38.8674 27.2109ZM38.9116 20.8449C40.1957 16.6656 39.8156 12.8504 37.4819 10.5167C35.1481 8.18291 31.3328 7.80285 27.1534 9.08709C29.2442 10.7405 31.3327 12.5953 33.3687 14.6313C35.4042 16.6668 37.2585 18.7547 38.9116 20.8449ZM20.8466 9.08714C16.6672 7.80292 12.8519 8.18299 10.5181 10.5168C8.18438 12.8505 7.80428 16.6657 9.08841 20.845C10.7415 18.7547 12.5959 16.6668 14.6313 14.6313C16.6673 12.5953 18.7558 10.7405 20.8466 9.08714Z" fill="#252432"/>
<path d="M68.1122 33H65.0322L56.2402 13.68H60.5802L66.6282 28.212L72.6482 13.68H76.8482L68.1122 33ZM82.2054 33H78.3694V13.68H82.2054V33ZM101.109 33H84.4767V30.648L95.5927 17.04H85.2327V13.68H100.857V15.948L89.7687 29.64H101.109V33ZM107.225 33H103.389V13.68H107.225V33ZM120.136 33.42C118.4 33.42 116.916 33.28 115.656 32.944C114.368 32.636 113.332 32.104 112.492 31.32C111.652 30.564 111.008 29.528 110.588 28.24C110.168 26.952 109.972 25.328 109.972 23.368C109.972 21.352 110.196 19.672 110.644 18.356C111.092 17.068 111.736 16.032 112.604 15.276C113.444 14.52 114.508 13.988 115.768 13.708C117.028 13.428 118.484 13.26 120.136 13.26C121.76 13.26 123.188 13.428 124.476 13.708C125.736 13.988 126.8 14.52 127.668 15.276C128.508 16.032 129.18 17.068 129.628 18.356C130.076 19.672 130.3 21.352 130.3 23.368C130.3 25.328 130.076 26.952 129.656 28.24C129.236 29.528 128.62 30.564 127.78 31.32C126.94 32.104 125.876 32.636 124.616 32.944C123.328 33.28 121.844 33.42 120.136 33.42ZM120.136 30.06C121.2 30.06 122.152 30.004 122.936 29.836C123.72 29.668 124.392 29.36 124.896 28.884C125.4 28.408 125.792 27.736 126.044 26.84C126.296 25.972 126.436 24.824 126.436 23.368C126.436 21.884 126.296 20.708 126.044 19.812C125.792 18.916 125.4 18.244 124.896 17.768C124.364 17.292 123.692 16.984 122.908 16.844C122.124 16.704 121.2 16.62 120.136 16.62C119.044 16.62 118.092 16.704 117.308 16.844C116.524 16.984 115.852 17.292 115.348 17.74C114.816 18.216 114.424 18.888 114.172 19.784C113.92 20.68 113.808 21.884 113.808 23.368C113.808 24.824 113.92 25.972 114.172 26.84C114.424 27.736 114.816 28.408 115.348 28.884C115.852 29.36 116.524 29.668 117.308 29.836C118.092 30.004 119.044 30.06 120.136 30.06ZM135.746 13.68L147.674 27.008V13.68H151.314V33H148.57L136.67 19.812V33H133.03V13.68H135.746ZM163.364 13.68L167.704 26.336L171.96 13.68H174.48L178.876 26.28L183.048 13.68H187.192L180.388 33H177.784L173.22 20.148L168.796 33H166.164L159.164 13.68H163.364ZM204.015 33H188.811V13.68H203.987V16.956H192.619V21.66H203.791V24.908H192.619V29.724H204.015V33ZM219.798 23.228C221.198 23.424 222.206 23.9 222.85 24.656C223.494 25.412 223.83 26.364 223.83 27.54C223.83 29.444 223.27 30.844 222.206 31.712C221.114 32.58 219.462 33 217.25 33H206.694V13.68H216.858C219.126 13.68 220.778 14.1 221.786 14.884C222.794 15.696 223.298 17.04 223.298 18.944C223.298 20.064 222.962 20.96 222.318 21.632C221.674 22.304 220.834 22.752 219.798 22.976V23.228ZM210.502 24.684V29.724H216.634C217.754 29.724 218.594 29.556 219.154 29.192C219.714 28.828 220.022 28.156 220.022 27.204C220.022 26.224 219.77 25.552 219.266 25.216C218.762 24.88 217.866 24.684 216.578 24.684H210.502ZM210.502 16.956V21.828H216.298C217.362 21.828 218.146 21.66 218.678 21.268C219.21 20.904 219.49 20.232 219.49 19.28C219.49 18.356 219.238 17.74 218.762 17.432C218.286 17.124 217.446 16.956 216.242 16.956H210.502Z" fill="#252432"/>
</svg>
