<svg width="1299" height="166" viewBox="0 0 1299 166" fill="none" xmlns="http://www.w3.org/2000/svg">
<path d="M58.0149 162.581L0 3.16875H33.8826L75.5655 126.262L117.005 3.16875H150.156L92.385 162.581H58.0149ZM164.47 162.581V3.16875H195.672V162.581H164.47ZM215.685 162.581V134.794L299.78 32.175H219.341V3.16875H338.538V30.9562L254.441 133.819H340.975V162.581H215.685ZM362.405 162.581V3.16875H393.607V162.581H362.405ZM496.25 165.75C446.523 165.75 411.422 130.65 411.422 82.875C411.422 35.1 446.523 0 496.25 0C545.977 0 581.079 35.1 581.079 82.875C581.079 130.65 545.977 165.75 496.25 165.75ZM496.25 136.987C527.939 136.987 549.39 114.075 549.39 82.875C549.39 51.675 527.939 29.0062 496.25 29.0062C464.562 29.0062 443.111 51.675 443.111 82.875C443.111 114.075 464.562 136.987 496.25 136.987ZM595.001 162.581V66.5437C595.001 25.5937 619.133 0 662.766 0C706.399 0 730.532 25.5937 730.532 66.5437V162.581H699.33V66.5437C699.33 42.9 687.142 29.0062 662.766 29.0062C638.39 29.0062 626.202 42.9 626.202 66.5437V162.581H595.001ZM862.315 165.75C830.87 165.75 806.738 146.737 806.738 105.787V3.16875H837.939V105.787C837.939 127.725 849.64 136.744 864.997 136.744C880.353 136.744 892.054 127.481 892.054 105.787V3.16875H923.255V105.787C923.255 127.481 934.956 136.744 950.312 136.744C965.669 136.744 977.37 127.725 977.37 105.787V3.16875H1008.57V105.787C1008.57 146.737 984.439 165.75 952.994 165.75C932.762 165.75 916.917 157.219 907.655 141.375C898.392 157.219 882.547 165.75 862.315 165.75ZM1030.52 162.581V3.16875H1148.02V32.175H1061.72V67.7625H1133.88V95.55H1061.72V133.819H1148.02V162.581H1030.52ZM1168.53 162.581V3.16875H1244.83C1275.06 3.16875 1290.9 20.475 1290.9 44.6062C1290.9 60.6937 1283.34 73.125 1270.18 79.7062V80.1937C1287.73 85.8 1298.21 100.425 1298.21 119.437C1298.21 144.3 1282.13 162.581 1251.17 162.581H1168.53ZM1199.73 67.7625H1240.93C1253.85 67.7625 1259.94 59.9625 1259.94 49.9687C1259.94 39.7312 1255.07 32.175 1240.69 32.175H1199.73V67.7625ZM1199.73 133.819H1245.81C1260.43 133.819 1266.28 125.287 1266.28 114.806C1266.28 104.081 1258.97 95.55 1246.05 95.55H1199.73V133.819Z" fill="#101213"/>
</svg>
