<svg width="1816" height="390" viewBox="0 0 1816 390" fill="none" xmlns="http://www.w3.org/2000/svg">
<path d="M2.14812 147.301L28.988 92.4927C30.2943 89.825 33.5516 88.8404 36.0451 90.4547C59.0386 105.341 160.129 172.692 158.736 205.281C157.367 237.313 79.0568 286.373 58.908 298.479C56.3886 299.993 53.16 298.946 51.9301 296.277L26.6199 241.344C25.4016 238.7 26.6897 235.575 29.4188 234.561L86.4405 213.382C101.945 207.214 99.0852 203.448 86.4405 196.556L4.33507 153.938C1.92463 152.687 0.953697 149.74 2.14812 147.301Z" fill="#0057FA"/>
<path d="M387.852 241.451L361.012 296.259C359.706 298.927 356.448 299.912 353.955 298.297C330.961 283.411 229.871 216.06 231.264 183.471C232.633 151.439 310.943 102.379 331.092 90.273C333.611 88.7593 336.84 89.8058 338.07 92.4752L363.38 147.408C364.598 150.052 363.31 153.177 360.581 154.191L303.559 175.37C288.055 181.538 290.915 185.304 303.559 192.196L385.665 234.814C388.075 236.065 389.046 239.012 387.852 241.451Z" fill="#0057FA"/>
<path d="M148.551 387.854L93.7427 361.014C91.075 359.708 90.0904 356.45 91.7047 353.957C106.591 330.963 173.942 229.873 206.531 231.266C238.563 232.635 287.623 310.945 299.729 331.094C301.243 333.613 300.196 336.842 297.527 338.072L242.594 363.382C239.95 364.6 236.825 363.312 235.811 360.583L214.632 303.561C208.464 288.057 204.698 290.917 197.806 303.561L155.188 385.667C153.937 388.077 150.99 389.048 148.551 387.854Z" fill="#0057FA"/>
<path d="M242.699 2.14812L297.507 28.988C300.175 30.2943 301.16 33.5516 299.545 36.0451C284.659 59.0386 217.308 160.129 184.719 158.736C152.687 157.367 103.627 79.0568 91.5211 58.908C90.0074 56.3886 91.0538 53.16 93.7233 51.9301L148.656 26.6199C151.3 25.4016 154.425 26.6897 155.439 29.4188L176.618 86.4405C182.786 101.945 186.552 99.0852 193.444 86.4405L236.062 4.33507C237.313 1.92463 240.26 0.953697 242.699 2.14812Z" fill="#0057FA"/>
<path d="M527.38 274.846L470 116.154H503.512L544.739 238.691L585.724 116.154H618.513L561.374 274.846H527.38Z" fill="white"/>
<path d="M639.559 274.846V116.154H670.419V274.846H639.559Z" fill="white"/>
<path d="M697.101 274.846V247.184L780.278 145.029H700.718V116.154H818.612V143.816L735.435 246.213H821.022V274.846H697.101Z" fill="white"/>
<path d="M849.102 274.846V116.154H879.962V274.846H849.102Z" fill="white"/>
<path d="M988.374 278C939.191 278 904.474 243.059 904.474 195.5C904.474 147.941 939.191 113 988.374 113C1037.56 113 1072.27 147.941 1072.27 195.5C1072.27 243.059 1037.56 278 988.374 278ZM988.374 249.368C1019.72 249.368 1040.93 226.559 1040.93 195.5C1040.93 164.441 1019.72 141.875 988.374 141.875C957.032 141.875 935.816 164.441 935.816 195.5C935.816 226.559 957.032 249.368 988.374 249.368Z" fill="white"/>
<path d="M1092.93 274.846V179.243C1092.93 138.478 1116.8 113 1159.95 113C1203.11 113 1226.98 138.478 1226.98 179.243V274.846H1196.12V179.243C1196.12 155.706 1184.06 141.875 1159.95 141.875C1135.84 141.875 1123.79 155.706 1123.79 179.243V274.846H1092.93Z" fill="white"/>
<path d="M1371.1 278C1340 278 1316.13 259.074 1316.13 218.309V116.154H1346.99V218.309C1346.99 240.147 1358.56 249.125 1373.75 249.125C1388.94 249.125 1400.51 239.904 1400.51 218.309V116.154H1431.37V218.309C1431.37 239.904 1442.94 249.125 1458.13 249.125C1473.32 249.125 1484.89 240.147 1484.89 218.309V116.154H1515.75V218.309C1515.75 259.074 1491.88 278 1460.78 278C1440.77 278 1425.1 269.507 1415.94 253.735C1406.78 269.507 1391.11 278 1371.1 278Z" fill="white"/>
<path d="M1544.36 274.846V116.154H1660.56V145.029H1575.21V180.456H1646.58V208.118H1575.21V246.213H1660.56V274.846H1544.36Z" fill="white"/>
<path d="M1687.74 274.846V116.154H1763.2C1793.1 116.154 1808.77 133.382 1808.77 157.404C1808.77 173.419 1801.29 185.794 1788.27 192.346V192.831C1805.63 198.412 1816 212.971 1816 231.897C1816 256.647 1800.09 274.846 1769.47 274.846H1687.74ZM1718.6 180.456H1759.34C1772.12 180.456 1778.15 172.691 1778.15 162.743C1778.15 152.551 1773.33 145.029 1759.1 145.029H1718.6V180.456ZM1718.6 246.213H1764.17C1778.63 246.213 1784.42 237.721 1784.42 227.287C1784.42 216.61 1777.18 208.118 1764.41 208.118H1718.6V246.213Z" fill="white"/>
</svg>
