<svg width="1816" height="390" viewBox="0 0 1816 390" fill="none" xmlns="http://www.w3.org/2000/svg">
<rect width="390" height="390" rx="100" fill="white"/>
<path d="M234.446 42.0466L276.286 62.5354C278.953 63.8418 279.907 67.1453 278.288 69.6356C265.247 89.6907 212.864 167.655 187.295 166.562C162.201 165.49 124.01 105.24 113.485 87.8291C111.964 85.3139 113.021 82.1027 115.69 80.8728L157.526 61.5971C160.17 60.3788 163.297 61.6661 164.31 64.3952L180.83 108.874C185.752 121.246 188.758 118.964 194.257 108.874L227.81 44.2335C229.061 41.8231 232.007 40.8521 234.446 42.0466Z" fill="#0057FA"/>
<path d="M157.548 348.951L115.709 328.463C113.041 327.156 112.087 323.853 113.706 321.362C126.747 301.307 179.131 223.343 204.699 224.436C229.793 225.508 267.984 285.758 278.509 303.169C280.03 305.684 278.973 308.895 276.304 310.125L234.468 329.401C231.824 330.619 228.698 329.332 227.684 326.603L211.164 282.124C206.242 269.752 203.237 272.034 197.738 282.124L164.185 346.765C162.933 349.175 159.987 350.146 157.548 348.951Z" fill="#0057FA"/>
<path d="M42.0456 157.549L62.5345 115.709C63.8408 113.042 67.1444 112.088 69.6346 113.707C89.6897 126.748 167.654 179.132 166.561 204.7C165.489 229.794 105.239 267.985 87.8281 278.51C85.3129 280.031 82.1017 278.974 80.8718 276.305L61.5961 234.469C60.3779 231.825 61.6651 228.699 64.3942 227.685L108.873 211.165C121.245 206.243 118.963 203.237 108.873 197.739L44.2325 164.186C41.8221 162.934 40.8512 159.988 42.0456 157.549Z" fill="#0057FA"/>
<path d="M348.951 234.447L328.463 276.287C327.156 278.954 323.853 279.908 321.362 278.289C301.307 265.248 223.343 212.864 224.436 187.296C225.508 162.202 285.758 124.011 303.169 113.486C305.684 111.965 308.895 113.022 310.125 115.691L329.401 157.527C330.619 160.171 329.332 163.298 326.603 164.311L282.124 180.831C269.752 185.753 272.034 188.759 282.124 194.258L346.765 227.811C349.175 229.062 350.146 232.008 348.951 234.447Z" fill="#0057FA"/>
<path d="M527.38 274.846L470 116.154H503.512L544.739 238.691L585.724 116.154H618.513L561.374 274.846H527.38Z" fill="white"/>
<path d="M639.559 274.846V116.154H670.419V274.846H639.559Z" fill="white"/>
<path d="M697.101 274.846V247.184L780.278 145.029H700.718V116.154H818.612V143.816L735.435 246.213H821.022V274.846H697.101Z" fill="white"/>
<path d="M849.102 274.846V116.154H879.962V274.846H849.102Z" fill="white"/>
<path d="M988.374 278C939.191 278 904.474 243.059 904.474 195.5C904.474 147.941 939.191 113 988.374 113C1037.56 113 1072.27 147.941 1072.27 195.5C1072.27 243.059 1037.56 278 988.374 278ZM988.374 249.368C1019.72 249.368 1040.93 226.559 1040.93 195.5C1040.93 164.441 1019.72 141.875 988.374 141.875C957.032 141.875 935.816 164.441 935.816 195.5C935.816 226.559 957.032 249.368 988.374 249.368Z" fill="white"/>
<path d="M1092.93 274.846V179.243C1092.93 138.478 1116.8 113 1159.95 113C1203.11 113 1226.98 138.478 1226.98 179.243V274.846H1196.12V179.243C1196.12 155.706 1184.06 141.875 1159.95 141.875C1135.84 141.875 1123.79 155.706 1123.79 179.243V274.846H1092.93Z" fill="white"/>
<path d="M1371.1 278C1340 278 1316.13 259.074 1316.13 218.309V116.154H1346.99V218.309C1346.99 240.147 1358.56 249.125 1373.75 249.125C1388.94 249.125 1400.51 239.904 1400.51 218.309V116.154H1431.37V218.309C1431.37 239.904 1442.94 249.125 1458.13 249.125C1473.32 249.125 1484.89 240.147 1484.89 218.309V116.154H1515.75V218.309C1515.75 259.074 1491.88 278 1460.78 278C1440.77 278 1425.1 269.507 1415.94 253.735C1406.78 269.507 1391.11 278 1371.1 278Z" fill="white"/>
<path d="M1544.36 274.846V116.154H1660.56V145.029H1575.21V180.456H1646.58V208.118H1575.21V246.213H1660.56V274.846H1544.36Z" fill="white"/>
<path d="M1687.74 274.846V116.154H1763.2C1793.1 116.154 1808.77 133.382 1808.77 157.404C1808.77 173.419 1801.29 185.794 1788.27 192.346V192.831C1805.63 198.412 1816 212.971 1816 231.897C1816 256.647 1800.09 274.846 1769.47 274.846H1687.74ZM1718.6 180.456H1759.34C1772.12 180.456 1778.15 172.691 1778.15 162.743C1778.15 152.551 1773.33 145.029 1759.1 145.029H1718.6V180.456ZM1718.6 246.213H1764.17C1778.63 246.213 1784.42 237.721 1784.42 227.287C1784.42 216.61 1777.18 208.118 1764.41 208.118H1718.6V246.213Z" fill="white"/>
</svg>
