<svg width="32" height="32" viewBox="0 0 32 32" fill="none" xmlns="http://www.w3.org/2000/svg">
<path fill-rule="evenodd" clip-rule="evenodd" d="M16.1166 20.7332C18.6663 20.7332 20.7332 18.6663 20.7332 16.1166C20.7332 15.6434 20.6621 15.1869 20.5298 14.7571C20.1679 15.5587 19.3616 16.1166 18.4249 16.1166C17.15 16.1166 16.1166 15.0832 16.1166 13.8083C16.1166 12.8717 16.6745 12.0653 17.4761 11.7034C17.0463 11.5712 16.5898 11.5 16.1166 11.5C13.5669 11.5 11.5 13.5669 11.5 16.1166C11.5 18.6663 13.5669 20.7332 16.1166 20.7332Z" fill="#DCE6E8"/>
<path fill-rule="evenodd" clip-rule="evenodd" d="M18.1417 25.9107C19.5224 24.8164 20.9013 23.5903 22.2458 22.2458C23.5907 20.9009 24.817 19.5217 25.9116 18.1406C26.7317 20.8883 26.4662 23.3903 24.9286 24.9278C23.3912 26.4653 20.8892 26.7308 18.1417 25.9107ZM16 25.0728C17.8044 24.2029 19.6341 22.9097 21.302 21.2418C22.9419 19.6019 24.2195 17.8056 25.0889 16.0306C24.2188 14.216 22.9203 12.3748 21.2427 10.6972C19.5931 9.04754 17.7851 7.76447 16 6.89486C14.2148 7.76447 12.4069 9.04752 10.7573 10.6971C9.07971 12.3747 7.78121 14.216 6.91112 16.0306C7.78046 17.8056 9.05811 19.6019 10.698 21.2418C12.3659 22.9097 14.1956 24.2029 16 25.0728ZM6.08843 18.1406C7.18301 19.5217 8.40932 20.9009 9.7542 22.2458C11.0987 23.5904 12.4776 24.8164 13.8583 25.9107C11.1107 26.7308 8.60881 26.4652 7.07135 24.9278C5.53386 23.3903 5.26828 20.8883 6.08843 18.1406ZM4.49703 16C0.17207 22.2252 -1.31002 28.1422 1.2739 30.7261C3.85783 33.31 9.77479 31.8279 16 27.503C22.2252 31.828 28.1422 33.3101 30.7261 30.7261C33.31 28.1422 31.8279 22.2252 27.503 16C31.8279 9.77482 33.31 3.85783 30.7261 1.2739C28.1422 -1.31002 22.2252 0.172076 16 4.49706C9.77479 0.172101 3.85783 -1.30998 1.2739 1.27394C-1.31002 3.85786 0.17207 9.77483 4.49703 16ZM6.05893 13.8966C7.16096 12.5031 8.39723 11.1112 9.75421 9.7542C11.1115 8.39689 12.5038 7.16035 13.8977 6.05812C11.1114 5.20198 8.56792 5.45536 7.01207 7.01121C5.45626 8.56703 5.20286 11.1105 6.05893 13.8966ZM18.1023 6.0581C20.8885 5.20194 23.4321 5.45532 24.9879 7.01118C26.5438 8.567 26.7972 11.1105 25.9411 13.8967C24.839 12.5032 23.6028 11.1112 22.2458 9.75424C20.8885 8.39691 19.4961 7.16035 18.1023 6.0581Z" fill="#DCE6E8"/>
</svg>
