<svg width="254" height="56" viewBox="0 0 254 56" fill="none" xmlns="http://www.w3.org/2000/svg">
<rect width="56.0001" height="56" rx="16" fill="#101213"/>
<path fill-rule="evenodd" clip-rule="evenodd" d="M28.1166 32.7332C30.6663 32.7332 32.7332 30.6663 32.7332 28.1166C32.7332 27.6434 32.6621 27.1869 32.5298 26.7571C32.1679 27.5587 31.3616 28.1166 30.4249 28.1166C29.15 28.1166 28.1166 27.0832 28.1166 25.8083C28.1166 24.8717 28.6745 24.0653 29.4761 23.7034C29.0463 23.5712 28.5898 23.5 28.1166 23.5C25.5669 23.5 23.5 25.5669 23.5 28.1166C23.5 30.6663 25.5669 32.7332 28.1166 32.7332Z" fill="#05F6CC"/>
<path fill-rule="evenodd" clip-rule="evenodd" d="M30.1417 37.9107C31.5224 36.8164 32.9013 35.5903 34.2458 34.2458C35.5907 32.9009 36.817 31.5217 37.9116 30.1406C38.7317 32.8883 38.4662 35.3903 36.9286 36.9278C35.3912 38.4653 32.8892 38.7308 30.1417 37.9107ZM28 37.0728C29.8044 36.2029 31.6341 34.9097 33.302 33.2418C34.9419 31.6019 36.2195 29.8056 37.0889 28.0306C36.2188 26.216 34.9203 24.3748 33.2427 22.6972C31.5931 21.0475 29.7851 19.7645 28 18.8949C26.2148 19.7645 24.4069 21.0475 22.7573 22.6971C21.0797 24.3747 19.7812 26.216 18.9111 28.0306C19.7805 29.8056 21.0581 31.6019 22.698 33.2418C24.3659 34.9097 26.1956 36.2029 28 37.0728ZM18.0884 30.1406C19.183 31.5217 20.4093 32.9009 21.7542 34.2458C23.0987 35.5904 24.4776 36.8164 25.8583 37.9107C23.1107 38.7308 20.6088 38.4652 19.0714 36.9278C17.5339 35.3903 17.2683 32.8883 18.0884 30.1406ZM16.497 28C12.1721 34.2252 10.69 40.1422 13.2739 42.7261C15.8578 45.31 21.7748 43.8279 28 39.503C34.2252 43.828 40.1422 45.3101 42.7261 42.7261C45.31 40.1422 43.8279 34.2252 39.503 28C43.8279 21.7748 45.31 15.8578 42.7261 13.2739C40.1422 10.69 34.2252 12.1721 28 16.4971C21.7748 12.1721 15.8578 10.69 13.2739 13.2739C10.69 15.8579 12.1721 21.7748 16.497 28ZM18.0589 25.8966C19.161 24.5031 20.3972 23.1112 21.7542 21.7542C23.1115 20.3969 24.5038 19.1604 25.8977 18.0581C23.1114 17.202 20.5679 17.4554 19.0121 19.0112C17.4563 20.567 17.2029 23.1105 18.0589 25.8966ZM30.1023 18.0581C32.8885 17.2019 35.4321 17.4553 36.9879 19.0112C38.5438 20.567 38.7972 23.1105 37.9411 25.8967C36.839 24.5032 35.6028 23.1112 34.2458 21.7542C32.8885 20.3969 31.4961 19.1604 30.1023 18.0581Z" fill="#05F6CC"/>
<path d="M75.0064 39.5L66.6764 16.61H71.5414L77.5264 34.285L83.4764 16.61H88.2364L79.9414 39.5H75.0064ZM90.2917 39.5V16.61H94.7717V39.5H90.2917ZM97.6453 39.5V35.51L109.72 20.775H98.1703V16.61H115.285V20.6L103.21 35.37H115.635V39.5H97.6453ZM118.712 39.5V16.61H123.192V39.5H118.712ZM137.93 39.955C130.79 39.955 125.75 34.915 125.75 28.055C125.75 21.195 130.79 16.155 137.93 16.155C145.07 16.155 150.11 21.195 150.11 28.055C150.11 34.915 145.07 39.955 137.93 39.955ZM137.93 35.825C142.48 35.825 145.56 32.535 145.56 28.055C145.56 23.575 142.48 20.32 137.93 20.32C133.38 20.32 130.3 23.575 130.3 28.055C130.3 32.535 133.38 35.825 137.93 35.825ZM152.109 39.5V25.71C152.109 19.83 155.574 16.155 161.839 16.155C168.104 16.155 171.569 19.83 171.569 25.71V39.5H167.089V25.71C167.089 22.315 165.339 20.32 161.839 20.32C158.339 20.32 156.589 22.315 156.589 25.71V39.5H152.109ZM190.491 39.955C185.976 39.955 182.511 37.225 182.511 31.345V16.61H186.991V31.345C186.991 34.495 188.671 35.79 190.876 35.79C193.081 35.79 194.761 34.46 194.761 31.345V16.61H199.241V31.345C199.241 34.46 200.921 35.79 203.126 35.79C205.331 35.79 207.011 34.495 207.011 31.345V16.61H211.491V31.345C211.491 37.225 208.026 39.955 203.511 39.955C200.606 39.955 198.331 38.73 197.001 36.455C195.671 38.73 193.396 39.955 190.491 39.955ZM214.643 39.5V16.61H231.513V20.775H219.123V25.885H229.483V29.875H219.123V35.37H231.513V39.5H214.643ZM234.459 39.5V16.61H245.414C249.754 16.61 252.029 19.095 252.029 22.56C252.029 24.87 250.944 26.655 249.054 27.6V27.67C251.574 28.475 253.079 30.575 253.079 33.305C253.079 36.875 250.769 39.5 246.324 39.5H234.459ZM238.939 25.885H244.854C246.709 25.885 247.584 24.765 247.584 23.33C247.584 21.86 246.884 20.775 244.819 20.775H238.939V25.885ZM238.939 35.37H245.554C247.654 35.37 248.494 34.145 248.494 32.64C248.494 31.1 247.444 29.875 245.589 29.875H238.939V35.37Z" fill="#101213"/>
</svg>
