<svg width="1419" height="709" viewBox="0 0 1419 709" fill="none" xmlns="http://www.w3.org/2000/svg">
<rect width="1419" height="709" fill="#F0F2F6"/>
<rect width="70" height="70" fill="white"/>
<rect x="71" width="70" height="70" fill="white"/>
<rect x="142" width="70" height="70" fill="white"/>
<rect x="213" width="70" height="70" fill="white"/>
<rect x="284" width="70" height="70" fill="white"/>
<rect x="355" width="70" height="70" fill="white"/>
<rect x="426" width="70" height="70" fill="white"/>
<rect x="497" width="70" height="70" fill="white"/>
<rect x="568" width="70" height="70" fill="white"/>
<rect x="639" width="70" height="70" fill="white"/>
<rect x="710" width="70" height="70" fill="white"/>
<rect x="781" width="70" height="70" fill="white"/>
<rect x="852" width="70" height="70" fill="white"/>
<rect x="923" width="70" height="70" fill="white"/>
<rect x="994" width="70" height="70" fill="white"/>
<rect x="1065" width="70" height="70" fill="white"/>
<rect x="1136" width="70" height="70" fill="white"/>
<rect x="1207" width="70" height="70" fill="white"/>
<rect x="1278" width="70" height="70" fill="white"/>
<rect x="1349" width="70" height="70" fill="white"/>
<rect y="71" width="70" height="70" fill="white"/>
<rect x="71" y="71" width="70" height="70" fill="white"/>
<rect x="142" y="71" width="70" height="70" fill="white"/>
<rect x="213" y="71" width="70" height="70" fill="white"/>
<rect x="284" y="71" width="70" height="70" fill="white"/>
<rect x="355" y="71" width="70" height="70" fill="white"/>
<rect x="426" y="71" width="70" height="70" fill="white"/>
<rect x="497" y="71" width="70" height="70" fill="white"/>
<rect x="568" y="71" width="70" height="70" fill="white"/>
<rect x="639" y="71" width="70" height="70" fill="white"/>
<rect x="710" y="71" width="70" height="70" fill="#0057FA" fill-opacity="0.2"/>
<rect x="781" y="71" width="70" height="70" fill="white"/>
<rect x="852" y="71" width="70" height="70" fill="white"/>
<rect x="923" y="71" width="70" height="70" fill="white"/>
<rect x="994" y="71" width="70" height="70" fill="white"/>
<rect x="1065" y="71" width="70" height="70" fill="white"/>
<rect x="1136" y="71" width="70" height="70" fill="white"/>
<rect x="1207" y="71" width="70" height="70" fill="white"/>
<rect x="1278" y="71" width="70" height="70" fill="white"/>
<rect x="1349" y="71" width="70" height="70" fill="white"/>
<rect y="142" width="70" height="70" fill="white"/>
<rect x="71" y="142" width="70" height="70" fill="white"/>
<rect x="142" y="142" width="70" height="70" fill="white"/>
<rect x="213" y="142" width="70" height="70" fill="white"/>
<rect x="284" y="142" width="70" height="70" fill="white"/>
<rect x="355" y="142" width="70" height="70" fill="white"/>
<rect x="426" y="142" width="70" height="70" fill="white"/>
<rect x="497" y="142" width="70" height="70" fill="white"/>
<rect x="568" y="142" width="70" height="70" fill="white"/>
<rect x="639" y="142" width="70" height="70" fill="white"/>
<rect x="710" y="142" width="70" height="70" fill="white"/>
<rect x="781" y="142" width="70" height="70" fill="white"/>
<rect x="852" y="142" width="70" height="70" fill="white"/>
<rect x="923" y="142" width="70" height="70" fill="#0057FA" fill-opacity="0.2"/>
<rect x="994" y="142" width="70" height="70" fill="white"/>
<rect x="1065" y="142" width="70" height="70" fill="white"/>
<rect x="1136" y="142" width="70" height="70" fill="white"/>
<rect x="1207" y="142" width="70" height="70" fill="white"/>
<rect x="1278" y="142" width="70" height="70" fill="white"/>
<rect x="1349" y="142" width="70" height="70" fill="white"/>
<rect y="213" width="70" height="70" fill="white"/>
<rect x="71" y="213" width="70" height="70" fill="white"/>
<rect x="142" y="213" width="70" height="70" fill="white"/>
<rect x="213" y="213" width="70" height="70" fill="white"/>
<rect x="284" y="213" width="70" height="70" fill="white"/>
<rect x="355" y="213" width="70" height="70" fill="white"/>
<rect x="426" y="213" width="70" height="70" fill="white"/>
<rect x="497" y="213" width="70" height="70" fill="#0057FA" fill-opacity="0.2"/>
<rect x="568" y="213" width="70" height="70" fill="white"/>
<rect x="639" y="213" width="70" height="70" fill="white"/>
<rect x="710" y="213" width="70" height="70" fill="white"/>
<rect x="781" y="213" width="70" height="70" fill="white"/>
<rect x="852" y="213" width="70" height="70" fill="white"/>
<rect x="923" y="213" width="70" height="70" fill="white"/>
<rect x="994" y="213" width="70" height="70" fill="white"/>
<rect x="1065" y="213" width="70" height="70" fill="white"/>
<rect x="1136" y="213" width="70" height="70" fill="white"/>
<rect x="1207" y="213" width="70" height="70" fill="white"/>
<rect x="1278" y="213" width="70" height="70" fill="white"/>
<rect x="1349" y="213" width="70" height="70" fill="white"/>
<rect y="284" width="70" height="70" fill="white"/>
<rect x="71" y="284" width="70" height="70" fill="white"/>
<rect x="142" y="284" width="70" height="70" fill="white"/>
<rect x="213" y="284" width="70" height="70" fill="white"/>
<rect x="284" y="284" width="70" height="70" fill="white"/>
<rect x="355" y="284" width="70" height="70" fill="white"/>
<rect x="426" y="284" width="70" height="70" fill="white"/>
<rect x="497" y="284" width="70" height="70" fill="white"/>
<rect x="568" y="284" width="70" height="70" fill="white"/>
<rect x="639" y="284" width="70" height="70" fill="white"/>
<rect x="710" y="284" width="70" height="70" fill="white"/>
<rect x="781" y="284" width="70" height="70" fill="#0057FA" fill-opacity="0.2"/>
<rect x="852" y="284" width="70" height="70" fill="white"/>
<rect x="923" y="284" width="70" height="70" fill="white"/>
<rect x="994" y="284" width="70" height="70" fill="white"/>
<rect x="1065" y="284" width="70" height="70" fill="white"/>
<rect x="1136" y="284" width="70" height="70" fill="white"/>
<rect x="1207" y="284" width="70" height="70" fill="white"/>
<rect x="1278" y="284" width="70" height="70" fill="white"/>
<rect x="1349" y="284" width="70" height="70" fill="white"/>
<rect y="355" width="70" height="70" fill="white"/>
<rect x="71" y="355" width="70" height="70" fill="white"/>
<rect x="142" y="355" width="70" height="70" fill="white"/>
<rect x="213" y="355" width="70" height="70" fill="white"/>
<rect x="284" y="355" width="70" height="70" fill="white"/>
<rect x="355" y="355" width="70" height="70" fill="white"/>
<rect x="426" y="355" width="70" height="70" fill="white"/>
<rect x="497" y="355" width="70" height="70" fill="white"/>
<rect x="568" y="355" width="70" height="70" fill="white"/>
<rect x="639" y="355" width="70" height="70" fill="white"/>
<rect x="710" y="355" width="70" height="70" fill="white"/>
<rect x="781" y="355" width="70" height="70" fill="white"/>
<rect x="852" y="355" width="70" height="70" fill="white"/>
<rect x="923" y="355" width="70" height="70" fill="white"/>
<rect x="994" y="355" width="70" height="70" fill="white"/>
<rect x="1065" y="355" width="70" height="70" fill="white"/>
<rect x="1136" y="355" width="70" height="70" fill="white"/>
<rect x="1207" y="355" width="70" height="70" fill="white"/>
<rect x="1278" y="355" width="70" height="70" fill="white"/>
<rect x="1349" y="355" width="70" height="70" fill="white"/>
<rect y="426" width="70" height="70" fill="white"/>
<rect x="71" y="426" width="70" height="70" fill="white"/>
<rect x="142" y="426" width="70" height="70" fill="white"/>
<rect x="213" y="426" width="70" height="70" fill="white"/>
<rect x="284" y="426" width="70" height="70" fill="white"/>
<rect x="355" y="426" width="70" height="70" fill="white"/>
<rect x="426" y="426" width="70" height="70" fill="#0057FA" fill-opacity="0.2"/>
<rect x="497" y="426" width="70" height="70" fill="white"/>
<rect x="568" y="426" width="70" height="70" fill="white"/>
<rect x="639" y="426" width="70" height="70" fill="white"/>
<rect x="710" y="426" width="70" height="70" fill="white"/>
<rect x="781" y="426" width="70" height="70" fill="white"/>
<rect x="852" y="426" width="70" height="70" fill="white"/>
<rect x="923" y="426" width="70" height="70" fill="white"/>
<rect x="994" y="426" width="70" height="70" fill="white"/>
<rect x="1065" y="426" width="70" height="70" fill="white"/>
<rect x="1136" y="426" width="70" height="70" fill="white"/>
<rect x="1207" y="426" width="70" height="70" fill="white"/>
<rect x="1278" y="426" width="70" height="70" fill="white"/>
<rect x="1349" y="426" width="70" height="70" fill="white"/>
<rect y="497" width="70" height="70" fill="white"/>
<rect x="71" y="497" width="70" height="70" fill="white"/>
<rect x="142" y="497" width="70" height="70" fill="white"/>
<rect x="213" y="497" width="70" height="70" fill="white"/>
<rect x="284" y="497" width="70" height="70" fill="white"/>
<rect x="355" y="497" width="70" height="70" fill="white"/>
<rect x="426" y="497" width="70" height="70" fill="white"/>
<rect x="497" y="497" width="70" height="70" fill="white"/>
<rect x="568" y="497" width="70" height="70" fill="white"/>
<rect x="639" y="497" width="70" height="70" fill="white"/>
<rect x="710" y="497" width="70" height="70" fill="white"/>
<rect x="781" y="497" width="70" height="70" fill="white"/>
<rect x="852" y="497" width="70" height="70" fill="white"/>
<rect x="923" y="497" width="70" height="70" fill="white"/>
<rect x="994" y="497" width="70" height="70" fill="#0057FA" fill-opacity="0.2"/>
<rect x="1065" y="497" width="70" height="70" fill="white"/>
<rect x="1136" y="497" width="70" height="70" fill="white"/>
<rect x="1207" y="497" width="70" height="70" fill="white"/>
<rect x="1278" y="497" width="70" height="70" fill="white"/>
<rect x="1349" y="497" width="70" height="70" fill="white"/>
<rect y="568" width="70" height="70" fill="white"/>
<rect x="71" y="568" width="70" height="70" fill="white"/>
<rect x="142" y="568" width="70" height="70" fill="white"/>
<rect x="213" y="568" width="70" height="70" fill="white"/>
<rect x="284" y="568" width="70" height="70" fill="white"/>
<rect x="355" y="568" width="70" height="70" fill="white"/>
<rect x="426" y="568" width="70" height="70" fill="white"/>
<rect x="497" y="568" width="70" height="70" fill="white"/>
<rect x="568" y="568" width="70" height="70" fill="white"/>
<rect x="639" y="568" width="70" height="70" fill="white"/>
<rect x="710" y="568" width="70" height="70" fill="white"/>
<rect x="781" y="568" width="70" height="70" fill="white"/>
<rect x="852" y="568" width="70" height="70" fill="white"/>
<rect x="923" y="568" width="70" height="70" fill="white"/>
<rect x="994" y="568" width="70" height="70" fill="white"/>
<rect x="1065" y="568" width="70" height="70" fill="white"/>
<rect x="1136" y="568" width="70" height="70" fill="white"/>
<rect x="1207" y="568" width="70" height="70" fill="white"/>
<rect x="1278" y="568" width="70" height="70" fill="white"/>
<rect x="1349" y="568" width="70" height="70" fill="white"/>
<rect y="639" width="70" height="70" fill="white"/>
<rect x="71" y="639" width="70" height="70" fill="white"/>
<rect x="142" y="639" width="70" height="70" fill="white"/>
<rect x="213" y="639" width="70" height="70" fill="white"/>
<rect x="284" y="639" width="70" height="70" fill="white"/>
<rect x="355" y="639" width="70" height="70" fill="white"/>
<rect x="426" y="639" width="70" height="70" fill="white"/>
<rect x="497" y="639" width="70" height="70" fill="white"/>
<rect x="568" y="639" width="70" height="70" fill="white"/>
<rect x="639" y="639" width="70" height="70" fill="white"/>
<rect x="710" y="639" width="70" height="70" fill="white"/>
<rect x="781" y="639" width="70" height="70" fill="white"/>
<rect x="852" y="639" width="70" height="70" fill="white"/>
<rect x="923" y="639" width="70" height="70" fill="white"/>
<rect x="994" y="639" width="70" height="70" fill="white"/>
<rect x="1065" y="639" width="70" height="70" fill="white"/>
<rect x="1136" y="639" width="70" height="70" fill="white"/>
<rect x="1207" y="639" width="70" height="70" fill="white"/>
<rect x="1278" y="639" width="70" height="70" fill="white"/>
<rect x="1349" y="639" width="70" height="70" fill="white"/>
</svg>
