<svg width="995" height="446" viewBox="0 0 995 446" fill="none" xmlns="http://www.w3.org/2000/svg">
<path d="M0.790039 381.972C0.790039 376.02 5.61541 371.194 11.5678 371.194C17.5202 371.194 22.3456 376.02 22.3456 381.972V424.185H72.3425C78.2949 424.185 83.1203 429.011 83.1203 434.963C83.1203 440.915 78.2949 445.741 72.3425 445.741H0.790039V381.972ZM315.441 424.185C321.394 424.185 326.219 429.011 326.219 434.963C326.219 440.915 321.394 445.741 315.441 445.741H193.892C187.939 445.741 183.114 440.915 183.114 434.963C183.114 429.011 187.939 424.185 193.892 424.185H315.441ZM558.54 424.185C564.492 424.185 569.318 429.011 569.318 434.963C569.318 440.915 564.492 445.741 558.54 445.741H436.991C431.038 445.741 426.213 440.915 426.213 434.963C426.213 429.011 431.038 424.185 436.991 424.185H558.54ZM801.639 424.185C807.591 424.185 812.417 429.011 812.417 434.963C812.417 440.915 807.591 445.741 801.639 445.741H680.089C674.137 445.741 669.312 440.915 669.312 434.963C669.312 429.011 674.137 424.185 680.089 424.185H801.639ZM973.185 381.972C973.185 376.02 978.01 371.194 983.963 371.194C989.915 371.194 994.741 376.02 994.741 381.972V445.741H923.188C917.236 445.741 912.41 440.915 912.41 434.963C912.41 429.011 917.236 424.185 923.188 424.185H973.185V381.972ZM0.790039 275.991V170.009C0.790039 164.057 5.61541 159.231 11.5678 159.231C17.5202 159.231 22.3456 164.057 22.3456 170.009V275.991C22.3456 281.943 17.5202 286.769 11.5678 286.769C5.61541 286.769 0.790039 281.943 0.790039 275.991ZM973.185 275.991V170.009C973.185 164.057 978.01 159.231 983.963 159.231C989.915 159.231 994.741 164.057 994.741 170.009V275.991C994.741 281.943 989.915 286.769 983.963 286.769C978.01 286.769 973.185 281.943 973.185 275.991ZM0.790039 64.0278V0.259277H72.3425C78.2949 0.259277 83.1203 5.08465 83.1203 11.0371C83.1203 16.9895 78.2949 21.8148 72.3425 21.8148H22.3456V64.0278C22.3456 69.9802 17.5202 74.8056 11.5678 74.8056C5.61541 74.8056 0.790039 69.9802 0.790039 64.0278ZM973.185 64.0278V21.8148H923.188C917.236 21.8148 912.41 16.9895 912.41 11.0371C912.41 5.08465 917.236 0.259277 923.188 0.259277H994.741V64.0278C994.741 69.9802 989.915 74.8056 983.963 74.8056C978.01 74.8056 973.185 69.9802 973.185 64.0278ZM315.441 0.259277C321.394 0.259277 326.219 5.08465 326.219 11.0371C326.219 16.9895 321.394 21.8148 315.441 21.8148H193.892C187.939 21.8148 183.114 16.9895 183.114 11.0371C183.114 5.08465 187.939 0.259277 193.892 0.259277H315.441ZM558.54 0.259277C564.492 0.259277 569.318 5.08465 569.318 11.0371C569.318 16.9895 564.492 21.8148 558.54 21.8148H436.991C431.038 21.8148 426.213 16.9895 426.213 11.0371C426.213 5.08465 431.038 0.259277 436.991 0.259277H558.54ZM801.639 0.259277C807.591 0.259277 812.417 5.08465 812.417 11.0371C812.417 16.9895 807.591 21.8148 801.639 21.8148H680.089C674.137 21.8148 669.312 16.9895 669.312 11.0371C669.312 5.08465 674.137 0.259277 680.089 0.259277H801.639Z" fill="#DCE6E8"/>
<path d="M790.146 278.728C781.971 278.728 774.869 276.991 768.84 273.517C762.811 269.94 758.161 264.933 754.891 258.495C751.621 252.057 749.986 244.546 749.986 235.962C749.986 227.378 751.621 219.918 754.891 213.583C758.161 207.145 762.759 202.137 768.686 198.561C774.716 194.984 781.716 193.196 789.686 193.196C797.453 193.196 804.248 194.933 810.073 198.408C816 201.882 820.548 206.889 823.715 213.429C826.883 219.97 828.467 227.838 828.467 237.035V241.48H770.373C770.781 248.634 772.723 254.05 776.197 257.728C779.774 261.305 784.475 263.093 790.3 263.093C794.694 263.093 798.321 262.123 801.183 260.181C804.146 258.137 806.19 255.327 807.314 251.75L827.394 252.977C825.146 260.947 820.701 267.232 814.058 271.831C807.518 276.429 799.548 278.728 790.146 278.728ZM770.373 228.298H808.234C807.825 221.656 805.934 216.751 802.562 213.583C799.19 210.313 794.898 208.678 789.686 208.678C784.475 208.678 780.132 210.364 776.657 213.736C773.285 217.108 771.19 221.962 770.373 228.298Z" fill="#181C1D"/>
<path d="M664.624 276.889V195.035H682.405L683.171 218.028L680.872 217.108C681.689 211.386 683.375 206.787 685.93 203.313C688.485 199.838 691.602 197.283 695.28 195.648C698.959 194.013 702.996 193.196 707.39 193.196C713.419 193.196 718.477 194.524 722.565 197.181C726.755 199.838 729.923 203.517 732.068 208.218C734.214 212.816 735.287 218.181 735.287 224.313V276.889H715.667V230.597C715.667 225.999 715.207 222.115 714.288 218.948C713.368 215.78 711.835 213.378 709.689 211.743C707.645 210.006 704.886 209.137 701.412 209.137C696.2 209.137 692.01 210.977 688.842 214.656C685.777 218.334 684.244 223.648 684.244 230.597V276.889H664.624Z" fill="#181C1D"/>
<path d="M622.261 276.889V195.035H641.881V276.889H622.261ZM621.954 184.152V166.678H642.341V184.152H621.954Z" fill="#181C1D"/>
<path d="M597.572 276.889C591.646 276.889 586.894 275.356 583.317 272.29C579.74 269.225 577.952 264.32 577.952 257.575V168.057H597.572V255.583C597.572 257.626 598.083 259.159 599.105 260.181C600.229 261.203 601.762 261.714 603.704 261.714H609.682V276.889H597.572Z" fill="#181C1D"/>
<path d="M512.92 278.728C505.971 278.728 499.942 276.991 494.833 273.517C489.825 270.042 485.942 265.086 483.183 258.648C480.424 252.21 479.044 244.648 479.044 235.962C479.044 227.276 480.424 219.714 483.183 213.276C485.942 206.838 489.877 201.882 494.986 198.408C500.095 194.933 506.073 193.196 512.92 193.196C518.643 193.196 523.65 194.371 527.942 196.721C532.336 199.072 535.657 202.393 537.905 206.685V168.057H557.526V276.889H538.825L538.365 264.78C536.117 269.174 532.745 272.597 528.249 275.05C523.752 277.502 518.643 278.728 512.92 278.728ZM518.898 262.787C522.986 262.787 526.409 261.765 529.168 259.721C532.03 257.677 534.176 254.663 535.606 250.677C537.139 246.59 537.905 241.685 537.905 235.962C537.905 230.137 537.139 225.232 535.606 221.247C534.176 217.262 532.03 214.247 529.168 212.203C526.409 210.159 522.986 209.137 518.898 209.137C512.971 209.137 508.219 211.539 504.643 216.342C501.168 221.043 499.431 227.583 499.431 235.962C499.431 244.137 501.168 250.677 504.643 255.583C508.219 260.385 512.971 262.787 518.898 262.787Z" fill="#181C1D"/>
<path d="M419.836 278.728C411.253 278.728 404.355 276.787 399.143 272.904C393.932 268.918 391.326 263.4 391.326 256.349C391.326 249.298 393.523 243.78 397.917 239.794C402.311 235.809 409.004 232.948 417.997 231.21L445.128 225.845C445.128 220.021 443.8 215.678 441.143 212.816C438.486 209.853 434.552 208.371 429.34 208.371C424.639 208.371 420.909 209.495 418.15 211.743C415.493 213.889 413.654 217.006 412.632 221.094L392.705 220.174C394.34 211.488 398.326 204.846 404.661 200.247C410.997 195.546 419.223 193.196 429.34 193.196C440.99 193.196 449.778 196.159 455.705 202.086C461.734 207.911 464.749 216.291 464.749 227.225V256.962C464.749 259.108 465.106 260.59 465.822 261.407C466.639 262.225 467.814 262.634 469.347 262.634H471.953V276.889C471.34 277.093 470.318 277.247 468.887 277.349C467.559 277.451 466.179 277.502 464.749 277.502C461.376 277.502 458.362 276.991 455.705 275.969C453.048 274.845 451.004 272.955 449.574 270.298C448.143 267.539 447.428 263.809 447.428 259.108L449.114 260.334C448.296 263.911 446.508 267.13 443.749 269.991C441.092 272.75 437.72 274.896 433.632 276.429C429.544 277.962 424.946 278.728 419.836 278.728ZM423.822 264.473C428.216 264.473 431.997 263.604 435.165 261.867C438.333 260.13 440.785 257.728 442.523 254.663C444.26 251.597 445.128 247.969 445.128 243.78V239.181L423.975 243.473C419.581 244.393 416.413 245.772 414.472 247.612C412.632 249.349 411.712 251.648 411.712 254.509C411.712 257.677 412.734 260.13 414.778 261.867C416.924 263.604 419.939 264.473 423.822 264.473Z" fill="#181C1D"/>
<path d="M341.222 278.728C333.047 278.728 325.945 276.991 319.915 273.517C313.886 269.94 309.237 264.933 305.967 258.495C302.697 252.057 301.062 244.546 301.062 235.962C301.062 227.378 302.697 219.918 305.967 213.583C309.237 207.145 313.835 202.137 319.762 198.561C325.791 194.984 332.791 193.196 340.762 193.196C348.528 193.196 355.324 194.933 361.149 198.408C367.076 201.882 371.623 206.889 374.791 213.429C377.959 219.97 379.543 227.838 379.543 237.035V241.48H321.448C321.857 248.634 323.799 254.05 327.273 257.728C330.85 261.305 335.55 263.093 341.375 263.093C345.769 263.093 349.397 262.123 352.258 260.181C355.222 258.137 357.266 255.327 358.39 251.75L378.47 252.977C376.222 260.947 371.777 267.232 365.134 271.831C358.594 276.429 350.623 278.728 341.222 278.728ZM321.448 228.298H359.309C358.901 221.656 357.01 216.751 353.638 213.583C350.266 210.313 345.974 208.678 340.762 208.678C335.55 208.678 331.207 210.364 327.733 213.736C324.361 217.108 322.266 221.962 321.448 228.298Z" fill="#181C1D"/>
<path d="M198.67 276.889V168.057H218.597V220.021L209.4 213.429H273.473L264.429 220.021V168.057H284.356V276.889H264.429V224.313L273.473 230.751H209.4L218.597 224.313V276.889H198.67Z" fill="#181C1D"/>
</svg>
