<svg width="173" height="97" viewBox="0 0 173 97" fill="none" xmlns="http://www.w3.org/2000/svg">
<rect x="9" y="10" width="155" height="78" fill="white"/>
<path d="M63.9552 66.453H56.7097L69.9016 28.9812H78.2819L91.492 66.453H84.2465L74.238 36.6659H73.9456L63.9552 66.453ZM64.1935 51.7611H83.9534V57.2129H64.1935V51.7611ZM102.29 67.0204C100.509 67.0204 98.9049 66.7029 97.4777 66.0685C96.0627 65.4225 94.9408 64.4706 94.1113 63.2147C93.294 61.9582 92.885 60.4093 92.885 58.5673C92.885 56.9817 93.1781 55.6704 93.7635 54.6335C94.3348 53.6115 95.1603 52.7543 96.16 52.1449C97.1724 51.5228 98.313 51.0532 99.5818 50.7364C100.886 50.4025 102.213 50.164 103.552 50.0228C105.199 49.8515 106.534 49.6995 107.559 49.5649C108.584 49.4187 109.328 49.199 109.791 48.9066C110.267 48.6014 110.505 48.1319 110.505 47.4975V47.388C110.505 46.0097 110.096 44.9419 109.279 44.1858C108.462 43.4297 107.285 43.0516 105.748 43.0516C104.126 43.0516 102.839 43.4052 101.887 44.1124C100.948 44.8202 100.313 45.6555 99.9843 46.6196L93.8002 45.7412C94.2877 44.0332 95.0928 42.606 96.2154 41.4596C97.3373 40.3009 98.7097 39.4347 100.332 38.8615C101.954 38.2761 103.747 37.983 105.711 37.983C107.065 37.983 108.413 38.1421 109.754 38.459C111.064 38.7623 112.309 39.295 113.433 40.0324C114.542 40.7524 115.433 41.7339 116.103 42.9782C116.787 44.2225 117.128 45.7779 117.128 47.6437V66.453H110.761V62.5926H110.541C110.139 63.3732 109.572 64.1048 108.84 64.7881C108.121 65.4586 107.212 66.0015 106.114 66.4163C105.028 66.8188 103.753 67.0204 102.29 67.0204ZM104.01 62.1534C105.339 62.1534 106.492 61.8912 107.467 61.3663C108.443 60.8298 109.194 60.122 109.718 59.2442C110.251 58.3811 110.53 57.3858 110.523 56.3718V53.0601C110.316 53.2308 109.962 53.3892 109.462 53.5354C108.974 53.6816 108.425 53.8098 107.815 53.9199C107.205 54.0294 106.602 54.1273 106.004 54.2123C105.407 54.2979 104.888 54.3714 104.449 54.4319C103.461 54.5665 102.577 54.7855 101.795 55.0908C101.015 55.3954 100.399 55.8224 99.9476 56.3718C99.4961 56.9083 99.2707 57.6032 99.2707 58.4572C99.2707 59.677 99.7158 60.598 100.606 61.2201C101.497 61.8423 102.631 62.1534 104.01 62.1534Z" fill="#05F6CC"/>
<path d="M163.647 17.5056V79.3339" stroke="#181C1D" stroke-width="2.5" stroke-linecap="round" stroke-linejoin="round"/>
<path d="M16.8047 9.77712H156.562ZM155.918 87.7065H16.8047ZM9.72023 17.5056V79.3339ZM14.8726 2.69263H3.92383C3.4114 2.69263 2.91996 2.89619 2.55762 3.25854C2.19527 3.62088 1.9917 4.11233 1.9917 4.62476V15.5735C1.9917 16.0859 2.19527 16.5774 2.55762 16.9397C2.91996 17.3021 3.4114 17.5056 3.92383 17.5056H14.8726C15.385 17.5056 15.8765 17.3021 16.2388 16.9397C16.6011 16.5774 16.8047 16.0859 16.8047 15.5735V4.62476C16.8047 4.11233 16.6011 3.62088 16.2388 3.25854C15.8765 2.89619 15.385 2.69263 14.8726 2.69263ZM14.8726 79.9779H3.92383C3.4114 79.9779 2.91996 80.1815 2.55762 80.5439C2.19527 80.9062 1.9917 81.3976 1.9917 81.9101V92.8588C1.9917 93.3713 2.19527 93.8627 2.55762 94.2251C2.91996 94.5874 3.4114 94.791 3.92383 94.791H14.8726C15.385 94.791 15.8765 94.5874 16.2388 94.2251C16.6011 93.8627 16.8047 93.3713 16.8047 92.8588V81.9101C16.8047 81.3976 16.6011 80.9062 16.2388 80.5439C15.8765 80.1815 15.385 79.9779 14.8726 79.9779ZM169.443 2.04858H158.494C157.982 2.04858 157.491 2.25215 157.128 2.61449C156.766 2.97684 156.562 3.46828 156.562 3.98072V14.9295C156.562 15.4419 156.766 15.9334 157.128 16.2957C157.491 16.658 157.982 16.8616 158.494 16.8616H169.443C169.956 16.8616 170.447 16.658 170.809 16.2957C171.172 15.9334 171.375 15.4419 171.375 14.9295V3.98072C171.375 3.46828 171.172 2.97684 170.809 2.61449C170.447 2.25215 169.956 2.04858 169.443 2.04858ZM169.443 79.9779H158.494C157.982 79.9779 157.491 80.1815 157.128 80.5439C156.766 80.9062 156.562 81.3976 156.562 81.9101V92.8588C156.562 93.3713 156.766 93.8627 157.128 94.2251C157.491 94.5874 157.982 94.791 158.494 94.791H169.443C169.956 94.791 170.447 94.5874 170.809 94.2251C171.172 93.8627 171.375 93.3713 171.375 92.8588V81.9101C171.375 81.3976 171.172 80.9062 170.809 80.5439C170.447 80.1815 169.956 79.9779 169.443 79.9779Z" fill="white"/>
<path d="M16.8047 9.77712H156.562M155.918 87.7065H16.8047M9.72023 17.5056V79.3339M14.8726 2.69263H3.92383C3.4114 2.69263 2.91996 2.89619 2.55762 3.25854C2.19527 3.62088 1.9917 4.11233 1.9917 4.62476V15.5735C1.9917 16.0859 2.19527 16.5774 2.55762 16.9397C2.91996 17.3021 3.4114 17.5056 3.92383 17.5056H14.8726C15.385 17.5056 15.8765 17.3021 16.2388 16.9397C16.6011 16.5774 16.8047 16.0859 16.8047 15.5735V4.62476C16.8047 4.11233 16.6011 3.62088 16.2388 3.25854C15.8765 2.89619 15.385 2.69263 14.8726 2.69263ZM14.8726 79.9779H3.92383C3.4114 79.9779 2.91996 80.1815 2.55762 80.5439C2.19527 80.9062 1.9917 81.3976 1.9917 81.9101V92.8588C1.9917 93.3713 2.19527 93.8627 2.55762 94.2251C2.91996 94.5874 3.4114 94.791 3.92383 94.791H14.8726C15.385 94.791 15.8765 94.5874 16.2388 94.2251C16.6011 93.8627 16.8047 93.3713 16.8047 92.8588V81.9101C16.8047 81.3976 16.6011 80.9062 16.2388 80.5439C15.8765 80.1815 15.385 79.9779 14.8726 79.9779ZM169.443 2.04858H158.494C157.982 2.04858 157.491 2.25215 157.128 2.61449C156.766 2.97684 156.562 3.46828 156.562 3.98072V14.9295C156.562 15.4419 156.766 15.9334 157.128 16.2957C157.491 16.658 157.982 16.8616 158.494 16.8616H169.443C169.956 16.8616 170.447 16.658 170.809 16.2957C171.172 15.9334 171.375 15.4419 171.375 14.9295V3.98072C171.375 3.46828 171.172 2.97684 170.809 2.61449C170.447 2.25215 169.956 2.04858 169.443 2.04858ZM169.443 79.9779H158.494C157.982 79.9779 157.491 80.1815 157.128 80.5439C156.766 80.9062 156.562 81.3976 156.562 81.9101V92.8588C156.562 93.3713 156.766 93.8627 157.128 94.2251C157.491 94.5874 157.982 94.791 158.494 94.791H169.443C169.956 94.791 170.447 94.5874 170.809 94.2251C171.172 93.8627 171.375 93.3713 171.375 92.8588V81.9101C171.375 81.3976 171.172 80.9062 170.809 80.5439C170.447 80.1815 169.956 79.9779 169.443 79.9779Z" stroke="#181C1D" stroke-width="2.5" stroke-linecap="round" stroke-linejoin="round"/>
</svg>
