<svg width="28" height="28" viewBox="0 0 28 28" fill="none" xmlns="http://www.w3.org/2000/svg">
<path fill-rule="evenodd" clip-rule="evenodd" d="M14.102 18.1416C16.333 18.1416 18.1416 16.333 18.1416 14.102C18.1416 13.688 18.0793 13.2885 17.9636 12.9124C17.6469 13.6139 16.9413 14.102 16.1217 14.102C15.0062 14.102 14.102 13.1978 14.102 12.0823C14.102 11.2627 14.5901 10.5571 15.2915 10.2405C14.9155 10.1248 14.516 10.0625 14.102 10.0625C11.8711 10.0625 10.0625 11.8711 10.0625 14.102C10.0625 16.333 11.8711 18.1416 14.102 18.1416Z" fill="#05F6CC"/>
<path fill-rule="evenodd" clip-rule="evenodd" d="M15.8739 22.6719C17.082 21.7143 18.2886 20.6415 19.465 19.465C20.6418 18.2883 21.7148 17.0815 22.6726 15.873C23.3902 18.2772 23.1578 20.4665 21.8125 21.8118C20.4672 23.1571 18.278 23.3895 15.8739 22.6719ZM13.9999 21.9387C15.5788 21.1775 17.1798 20.046 18.6392 18.5866C20.0741 17.1516 21.192 15.5799 21.9527 14.0268C21.1914 12.439 20.0552 10.8279 18.5873 9.36001C17.1439 7.91659 15.562 6.79391 13.9999 6.033C12.4379 6.79391 10.856 7.91658 9.41263 9.35998C7.94473 10.8279 6.80855 12.439 6.04722 14.0268C6.80788 15.5799 7.92583 17.1517 9.36075 18.5866C10.8201 20.046 12.4211 21.1775 13.9999 21.9387ZM5.32736 15.8731C6.28512 17.0815 7.35814 18.2883 8.5349 19.4651C9.71136 20.6415 10.9179 21.7143 12.126 22.6719C9.72186 23.3894 7.5327 23.157 6.18743 21.8118C4.84213 20.4665 4.60975 18.2772 5.32736 15.8731ZM3.93489 14C0.15057 19.447 -1.14625 24.6244 1.11467 26.8853C3.3756 29.1462 8.55292 27.8494 13.9999 24.0651C19.447 27.8494 24.6243 29.1463 26.8853 26.8853C29.1462 24.6244 27.8494 19.4471 24.065 14C27.8494 8.55296 29.1462 3.3756 26.8853 1.11466C24.6243 -1.14627 19.447 0.150568 13.9999 3.93493C8.55292 0.150593 3.37559 -1.14623 1.11466 1.1147C-1.14626 3.37563 0.150562 8.55297 3.93489 14ZM5.30155 12.1596C6.26583 10.9402 7.34756 9.72228 8.53491 8.53492C9.72256 7.34727 10.9408 6.26531 12.1604 5.30085C9.72247 4.55173 7.49691 4.77344 6.13555 6.13481C4.77421 7.49614 4.55248 9.72165 5.30155 12.1596ZM15.8394 5.30084C18.2774 4.5517 20.503 4.7734 21.8644 6.13477C23.2257 7.49612 23.4475 9.72165 22.6984 12.1596C21.7341 10.9403 20.6524 9.7223 19.465 8.53495C18.2774 7.34729 17.0591 6.2653 15.8394 5.30084Z" fill="#05F6CC"/>
</svg>
