<svg width="48" height="48" viewBox="0 0 48 48" fill="none" xmlns="http://www.w3.org/2000/svg">
<path fill-rule="evenodd" clip-rule="evenodd" d="M24.1749 31.0999C27.9995 31.0999 31.0999 27.9995 31.0999 24.1749C31.0999 23.4652 30.9931 22.7804 30.7947 22.1357C30.2519 23.3381 29.0423 24.1749 27.6373 24.1749C25.7251 24.1749 24.1749 22.6247 24.1749 20.7125C24.1749 19.3075 25.0117 18.098 26.2141 17.5551C25.5694 17.3568 24.8846 17.25 24.1749 17.25C20.3504 17.25 17.25 20.3504 17.25 24.1749C17.25 27.9995 20.3504 31.0999 24.1749 31.0999Z" fill="#252432"/>
<path fill-rule="evenodd" clip-rule="evenodd" d="M20.7874 38.866C18.7164 37.2245 16.6481 35.3855 14.6313 33.3687C12.614 31.3514 10.7745 29.2825 9.13264 27.2109C7.90244 31.3324 8.3008 35.0853 10.607 37.3916C12.9132 39.6977 16.6661 40.0961 20.7874 38.866ZM23.9999 37.6092C21.2934 36.3042 18.5488 34.3645 16.047 31.8627C13.5872 29.4028 11.6707 26.7083 10.3667 24.0459C11.6718 21.324 13.6196 18.562 16.136 16.0456C18.6104 13.5712 21.3222 11.6466 23.9999 10.3422C26.6777 11.6467 29.3896 13.5712 31.864 16.0457C34.3804 18.5621 36.3282 21.324 37.6333 24.0459C36.3293 26.7083 34.4128 29.4028 31.953 31.8626C29.4511 34.3645 26.7066 36.3042 23.9999 37.6092ZM24 41.2544C14.6622 47.7419 5.78675 49.965 1.91087 46.0891C-1.96502 42.2133 0.258122 33.3378 6.74557 24C0.25811 14.6622 -1.96503 5.78674 1.91086 1.91086C5.78674 -1.96503 14.6622 0.25811 24 6.74557C33.3378 0.258111 42.2133 -1.96503 46.0892 1.91086C49.965 5.78674 47.7419 14.6622 41.2544 24C47.7419 33.3378 49.965 42.2133 46.0891 46.0891C42.2133 49.965 33.3378 47.7419 24 41.2544ZM38.8674 27.2109C40.0976 31.3324 39.6992 35.0854 37.393 37.3916C35.0868 39.6978 31.3339 40.0962 27.2125 38.8661C29.2836 37.2245 31.3519 35.3855 33.3687 33.3687C35.386 31.3514 37.2255 29.2825 38.8674 27.2109ZM38.9116 20.8449C40.1957 16.6656 39.8156 12.8504 37.4819 10.5167C35.1481 8.18291 31.3328 7.80285 27.1534 9.08709C29.2442 10.7405 31.3327 12.5953 33.3687 14.6313C35.4042 16.6668 37.2585 18.7547 38.9116 20.8449ZM20.8466 9.08714C16.6672 7.80292 12.8519 8.18299 10.5181 10.5168C8.18438 12.8505 7.80428 16.6657 9.08841 20.845C10.7415 18.7547 12.5959 16.6668 14.6313 14.6313C16.6673 12.5953 18.7558 10.7405 20.8466 9.08714Z" fill="#252432"/>
</svg>
