<svg width="561" height="120" viewBox="0 0 561 120" fill="none" xmlns="http://www.w3.org/2000/svg">
<g clip-path="url(#clip0_4285_433)">
<path d="M50.4238 0L31.5276 12.0594V58.2156L50.4238 46.1578V0Z" fill="#181C1D"/>
<path d="M50.3561 61.7844L31.4583 73.8422V120L50.3561 107.942V61.7844Z" fill="#181C1D"/>
<path d="M18.9576 103.603L0 91.8067V47.3511L18.9576 35.5532V103.603Z" fill="#181C1D"/>
<path d="M63.0425 83.3694L82.0001 71.5731V27.1175L63.0425 15.3212V83.3694Z" fill="#181C1D"/>
</g>
<path d="M479.184 76.03L494.426 95.9765L509.668 76.03H521.084L499.255 104.068V119.435H489.596V104.068L467.768 76.03H479.184Z" fill="#181C1D"/>
<path d="M416.217 76.03L434.972 100.054L453.664 76.03H462.884V119.435H453.413V90.6449L437.544 111.344H432.4L416.468 90.6449V119.435H407.06V76.03H416.217Z" fill="#181C1D"/>
<path d="M358.24 76.03H398.823V84.686H367.711V93.5302H395.624V102.061H367.711V110.779H398.823V119.435H358.24V76.03Z" fill="#181C1D"/>
<path d="M301.334 76.03H328.118C342.607 76.03 350.887 84.4351 350.887 97.7328V97.7955C350.887 111.093 342.607 119.435 328.118 119.435H301.334V76.03ZM310.931 84.9369V110.529H328.118C336.836 110.529 341.353 105.636 341.353 97.7955V97.7328C341.353 89.8295 336.836 84.9369 328.118 84.9369H310.931Z" fill="#181C1D"/>
<path d="M272.248 76.03L295.206 119.435H284.919L280.403 110.466H254.121L249.605 119.435H239.318L262.275 76.03H272.248ZM276.388 102.312L267.293 85.1251L258.198 102.312H276.388Z" fill="#181C1D"/>
<path d="M238.16 80.7971L232.703 87.8223C229.818 85.2506 226.18 84.247 221.601 84.247H212.569C204.038 84.247 198.957 89.704 198.957 97.67V97.7328C199.02 105.824 204.038 111.219 212.569 111.219H221.601C226.494 111.219 230.006 110.09 232.703 107.643L238.16 114.668C234.083 118.369 228.877 120 221.601 120H212.569C198.079 120 189.423 111.219 189.423 97.7328V97.67C189.423 84.247 198.079 75.4655 212.569 75.4655H221.601C228.501 75.4655 233.958 76.9709 238.16 80.7971Z" fill="#181C1D"/>
<path d="M164.93 76.03L187.888 119.435H177.601L173.085 110.466H146.803L142.287 119.435H132L154.957 76.03H164.93ZM169.07 102.312L159.975 85.1251L150.88 102.312H169.07Z" fill="#181C1D"/>
<path d="M537.419 0.564526L560.376 43.9699H550.089L545.573 35.0003H519.292L514.775 43.9699H504.489L527.446 0.564526H537.419ZM541.559 26.8461L532.464 9.65959L523.369 26.8461H541.559Z" fill="#181C1D"/>
<path d="M498.37 43.9699H488.773V0.564526H498.37V43.9699Z" fill="#181C1D"/>
<path d="M469.415 29.4806V0.564526H478.887V43.9699H470.105L439.684 15.0539V43.9699H430.275V0.564526H439.056L469.415 29.4806Z" fill="#181C1D"/>
<path d="M389.962 0H399.809C414.362 0 422.955 8.78144 422.955 22.2045V22.2672C422.955 35.753 414.362 44.5345 399.809 44.5345H389.962C375.472 44.5345 366.816 35.753 366.816 22.2672V22.2045C366.816 8.78144 375.472 0 389.962 0ZM389.962 35.753H399.809C408.591 35.753 413.421 30.4214 413.421 22.2672V22.2045C413.421 14.113 408.591 8.78144 399.809 8.78144H389.962C381.243 8.78144 376.35 14.113 376.35 22.2045V22.2672C376.35 30.4214 381.243 35.753 389.962 35.753Z" fill="#181C1D"/>
<path d="M332.234 33.8086L329.913 35.5648H361.903V43.9699H315.926V35.5648L344.967 10.7886L347.351 8.96962H316.114V0.564526H361.276V8.96962L332.234 33.8086Z" fill="#181C1D"/>
<path d="M288.91 0.564526L311.867 43.9699H301.58L297.064 35.0003H270.782L266.266 43.9699H255.979L278.936 0.564526H288.91ZM293.049 26.8461L283.954 9.65959L274.859 26.8461H293.049Z" fill="#181C1D"/>
<path d="M203.174 0.564526L221.929 24.588L240.621 0.564526H249.842V43.9699H240.37V15.1794L224.501 35.8785H219.357L203.425 15.1794V43.9699H194.017V0.564526H203.174Z" fill="#181C1D"/>
<path d="M164.93 0.564526L187.888 43.9699H177.601L173.085 35.0003H146.803L142.287 43.9699H132L154.957 0.564526H164.93ZM169.07 26.8461L159.975 9.65959L150.88 26.8461H169.07Z" fill="#181C1D"/>
<defs>
<clipPath id="clip0_4285_433">
<rect width="82" height="120" fill="white"/>
</clipPath>
</defs>
</svg>
