<svg width="561" height="120" viewBox="0 0 561 120" fill="none" xmlns="http://www.w3.org/2000/svg">
<g clip-path="url(#clip0_617_63)">
<path d="M50.4236 0L31.5273 12.0594V58.2156L50.4236 46.1578V0Z" fill="#697791"/>
<path d="M50.3559 61.7852L31.458 73.8429V120.001L50.3559 107.943V61.7852Z" fill="#697791"/>
<path d="M18.9576 103.602L0 91.8062V47.3506L18.9576 35.5527V103.602Z" fill="#697791"/>
<path d="M63.042 83.3685L81.9996 71.5722V27.1166L63.042 15.3203V83.3685Z" fill="#697791"/>
</g>
<path d="M479.183 76.0293L494.426 95.9757L509.668 76.0293H521.083L499.255 104.067V119.435H489.596V104.067L467.768 76.0293H479.183Z" fill="#697791"/>
<path d="M416.217 76.0293L434.972 100.053L453.664 76.0293H462.884V119.435H453.413V90.6441L437.544 111.343H432.4L416.468 90.6441V119.435H407.06V76.0293H416.217Z" fill="#697791"/>
<path d="M358.24 76.0293H398.823V84.6853H367.712V93.5295H395.624V102.06H367.712V110.779H398.823V119.435H358.24V76.0293Z" fill="#697791"/>
<path d="M301.334 76.0293H328.117C342.607 76.0293 350.886 84.4344 350.886 97.732V97.7947C350.886 111.092 342.607 119.435 328.117 119.435H301.334V76.0293ZM310.931 84.9362V110.528H328.117C336.836 110.528 341.352 105.635 341.352 97.7947V97.732C341.352 89.8287 336.836 84.9362 328.117 84.9362H310.931Z" fill="#697791"/>
<path d="M272.249 76.0293L295.206 119.435H284.919L280.403 110.465H254.121L249.605 119.435H239.318L262.276 76.0293H272.249ZM276.389 102.311L267.294 85.1244L258.198 102.311H276.389Z" fill="#697791"/>
<path d="M238.161 80.7964L232.704 87.8216C229.818 85.2499 226.18 84.2463 221.602 84.2463H212.569C204.039 84.2463 198.958 89.7033 198.958 97.6693V97.7321C199.021 105.824 204.039 111.218 212.569 111.218H221.602C226.494 111.218 230.007 110.089 232.704 107.643L238.161 114.668C234.084 118.368 228.878 119.999 221.602 119.999H212.569C198.08 119.999 189.424 111.218 189.424 97.7321V97.6693C189.424 84.2463 198.08 75.4648 212.569 75.4648H221.602C228.501 75.4648 233.958 76.9702 238.161 80.7964Z" fill="#697791"/>
<path d="M164.93 76.0293L187.888 119.435H177.601L173.085 110.465H146.803L142.287 119.435H132L154.957 76.0293H164.93ZM169.07 102.311L159.975 85.1244L150.88 102.311H169.07Z" fill="#697791"/>
<path d="M537.419 0.564453L560.376 43.9699H550.089L545.573 35.0003H519.291L514.775 43.9699H504.488L527.445 0.564453H537.419ZM541.559 26.8461L532.463 9.65952L523.368 26.8461H541.559Z" fill="#697791"/>
<path d="M498.37 43.9699H488.773V0.564453H498.37V43.9699Z" fill="#697791"/>
<path d="M469.416 29.4805V0.564453H478.887V43.9699H470.106L439.684 15.0538V43.9699H430.275V0.564453H439.057L469.416 29.4805Z" fill="#697791"/>
<path d="M389.962 0H399.81C414.362 0 422.955 8.78144 422.955 22.2045V22.2672C422.955 35.753 414.362 44.5345 399.81 44.5345H389.962C375.472 44.5345 366.816 35.753 366.816 22.2672V22.2045C366.816 8.78144 375.472 0 389.962 0ZM389.962 35.753H399.81C408.591 35.753 413.421 30.4214 413.421 22.2672V22.2045C413.421 14.113 408.591 8.78144 399.81 8.78144H389.962C381.243 8.78144 376.351 14.113 376.351 22.2045V22.2672C376.351 30.4214 381.243 35.753 389.962 35.753Z" fill="#697791"/>
<path d="M332.234 33.8085L329.913 35.5648H361.903V43.9699H315.926V35.5648L344.967 10.7886L347.351 8.96955H316.114V0.564453H361.276V8.96955L332.234 33.8085Z" fill="#697791"/>
<path d="M288.91 0.564453L311.867 43.9699H301.58L297.064 35.0003H270.783L266.266 43.9699H255.979L278.937 0.564453H288.91ZM293.05 26.8461L283.955 9.65952L274.86 26.8461H293.05Z" fill="#697791"/>
<path d="M203.174 0.564453L221.929 24.588L240.621 0.564453H249.842V43.9699H240.37V15.1793L224.501 35.8784H219.357L203.425 15.1793V43.9699H194.017V0.564453H203.174Z" fill="#697791"/>
<path d="M164.93 0.564453L187.888 43.9699H177.601L173.085 35.0003H146.803L142.287 43.9699H132L154.957 0.564453H164.93ZM169.07 26.8461L159.975 9.65952L150.88 26.8461H169.07Z" fill="#697791"/>
<defs>
<clipPath id="clip0_617_63">
<rect width="82" height="120" fill="white"/>
</clipPath>
</defs>
</svg>
