<svg width="455" height="63" viewBox="0 0 455 63" fill="none" xmlns="http://www.w3.org/2000/svg">
<path d="M391.928 0.787109H455V13.3841H430.244V61.3227H416.772V13.3841H391.928V0.787109Z" fill="#697791"/>
<path d="M382.606 61.3227H369.222V0.787109H382.606V61.3227Z" fill="#697791"/>
<path d="M329.495 25.3688L345.154 0.787109H360.025L339.905 31.9297L360.025 61.3227H345.067L328.97 37.7034H306.576V61.3227H293.191V0.787109H306.576V25.3688H329.495Z" fill="#697791"/>
<path d="M226.812 0.787109H283.412V13.2092H240.022V27.1184H278.95V39.4529H240.022V61.3227H226.812V0.787109Z" fill="#697791"/>
<path d="M158.726 0.787109H215.325V12.8592H171.935V25.1938H210.863V37.091H171.935V49.2506H215.325V61.3227H158.726V0.787109Z" fill="#697791"/>
<path d="M90.354 24.9314H131.557V0.787109H145.028V61.3227H131.557V37.1785H90.354V61.3227H76.9697V0.787109H90.354V24.9314Z" fill="#697791"/>
<path d="M67.9713 7.43573L60.3606 17.2334C56.3365 13.6468 51.2628 12.2471 44.8768 12.2471H32.2798C20.3826 12.2471 13.2968 19.8578 13.2968 30.9676V31.0551C13.3843 42.3399 20.3826 49.8632 32.2798 49.8632H44.8768C51.7002 49.8632 56.599 48.2885 60.3606 44.8768L67.9713 54.6745C62.2851 59.8358 55.0244 62.1103 44.8768 62.1103H32.2798C12.0721 62.1103 0 49.8632 0 31.0551V30.9676C0 12.2471 12.0721 0 32.2798 0H44.8768C54.4995 0 62.1102 2.0995 67.9713 7.43573Z" fill="#697791"/>
</svg>
