<svg width="455" height="63" viewBox="0 0 455 63" fill="none" xmlns="http://www.w3.org/2000/svg">
<path d="M391.928 0.787781H455V13.3848H430.243V61.3234H416.772V13.3848H391.928V0.787781Z" fill="#98A6AA"/>
<path d="M382.606 61.3234H369.222V0.787781H382.606V61.3234Z" fill="#98A6AA"/>
<path d="M329.495 25.3694L345.154 0.787781H360.025L339.905 31.9304L360.025 61.3234H345.066L328.97 37.704H306.575V61.3234H293.191V0.787781H306.575V25.3694H329.495Z" fill="#98A6AA"/>
<path d="M226.812 0.787781H283.411V13.2098H240.022V27.119H278.95V39.4536H240.022V61.3234H226.812V0.787781Z" fill="#98A6AA"/>
<path d="M158.725 0.787781H215.324V12.8599H171.935V25.1945H210.863V37.0917H171.935V49.2513H215.324V61.3234H158.725V0.787781Z" fill="#98A6AA"/>
<path d="M90.354 24.9321H131.557V0.787781H145.028V61.3234H131.557V37.1791H90.354V61.3234H76.9697V0.787781H90.354V24.9321Z" fill="#98A6AA"/>
<path d="M67.9713 7.43573L60.3606 17.2334C56.3365 13.6468 51.2628 12.2471 44.8768 12.2471H32.2798C20.3826 12.2471 13.2968 19.8578 13.2968 30.9676V31.0551C13.3843 42.3399 20.3826 49.8632 32.2798 49.8632H44.8768C51.7002 49.8632 56.599 48.2885 60.3606 44.8768L67.9713 54.6745C62.2851 59.8358 55.0244 62.1103 44.8768 62.1103H32.2798C12.0721 62.1103 0 49.8632 0 31.0551V30.9676C0 12.2471 12.0721 0 32.2798 0H44.8768C54.4995 0 62.1102 2.0995 67.9713 7.43573Z" fill="#98A6AA"/>
</svg>
