<svg width="499" height="120" viewBox="0 0 499 120" fill="none" xmlns="http://www.w3.org/2000/svg">
<path d="M465.466 120C450.012 120 437.246 112.878 433.484 97.1554H449.475C452.162 103.337 457.403 106.159 465.466 106.159C476.351 106.159 482.532 100.918 482.532 88.0176V79.6861C478.501 86.9426 471.513 90.8396 462.778 90.8396C447.459 90.8396 432.946 80.8955 432.946 57.2448V23.5156H448.937V57.2448C448.937 69.8764 455.656 75.9235 465.735 75.9235C475.544 75.9235 482.532 69.6077 482.532 57.2448V23.5156H498.523V87.6145C498.523 110.728 483.876 120 465.466 120Z" fill="#697791"/>
<path d="M401.691 91.6467C384.759 91.6467 374.143 82.6433 373.74 70.2804H389.866C390 74.7149 393.897 77.6713 401.691 77.6713C409.888 77.6713 413.382 74.3118 413.382 70.2804C413.382 65.174 407.469 64.5021 400.347 63.5615C390.134 62.2177 375.084 60.4707 375.084 44.2109C375.084 30.6386 385.431 21.7695 401.422 21.7695C417.682 21.7695 427.626 30.9073 428.029 42.5983H412.173C411.769 38.5669 408.007 35.745 401.691 35.745C394.703 35.745 391.209 39.1045 391.209 43.0014C391.209 48.1079 397.256 48.9141 404.379 49.8548C413.248 51.0642 429.507 52.8111 429.507 69.3398C429.507 82.7777 418.623 91.6467 401.691 91.6467Z" fill="#697791"/>
<path d="M198.224 91.6466C183.04 91.6466 172.692 83.0463 172.692 65.8458V0H178.874V23.5164H219.994V29.1603H178.874V65.8458C178.874 79.2837 186.533 85.8683 198.224 85.8683C210.05 85.8683 217.709 79.4181 217.709 65.8458V64.6364H223.622V65.8458C223.622 83.0463 213.409 91.6466 198.224 91.6466Z" fill="#697791"/>
<path d="M133.337 91.6467C112.374 91.6467 97.5928 76.865 97.5928 56.7081C97.5928 36.5512 112.374 21.7695 133.337 21.7695C154.301 21.7695 168.948 36.5512 168.948 56.7081V58.3207H103.909C104.58 74.3118 116.271 85.8684 133.337 85.8684C145.432 85.8684 154.704 80.3589 159.407 71.2211H166.126C161.019 83.584 148.925 91.6467 133.337 91.6467ZM104.043 52.6767H162.498C160.751 37.6263 149.194 27.5478 133.337 27.5478C117.346 27.5478 105.79 37.7607 104.043 52.6767Z" fill="#697791"/>
<path d="M46.7638 91.6474C19.3505 91.6474 0 72.2968 0 45.9585C0 19.6201 19.3505 0.269531 46.7638 0.269531C67.9956 0.269531 84.5242 11.9605 90.84 29.5642H83.5835C77.8052 15.5888 64.0986 6.3166 46.7638 6.3166C23.1131 6.3166 6.58455 23.114 6.58455 45.9585C6.58455 68.8029 23.1131 85.6003 46.7638 85.6003C67.8612 85.6003 83.4491 72.9687 86.5398 53.3493H41.2542V47.3023H93.3931V50.1242C91.5118 74.3125 72.6988 91.6474 46.7638 91.6474Z" fill="#697791"/>
<path d="M329.799 21.9332C332.417 21.477 339.179 21.6139 341.751 22.1842C345.53 23.0053 350.334 24.9437 353.225 26.8141C359.85 31.0567 365.131 37.8319 367.613 45.2223C368.91 49.1227 369.365 52.5217 369.229 57.0836C369.215 57.5093 369.195 57.9235 369.172 58.3277V90.3219H353.424V85.1021C350.151 87.2599 346.604 88.741 342.434 89.7467C339.224 90.5222 333.351 90.7273 330.004 90.2027C322.674 89.0166 315.571 85.3446 309.243 79.4371L307.375 77.6803L308.172 76.608C309.925 74.3041 313.34 69.0123 314.774 66.3892L316.299 63.607L318.599 66.0016C321.445 68.9896 324.131 71.0431 327.068 72.4801C330.277 74.0539 331.735 74.3955 335.035 74.3726C338.291 74.3726 340.317 73.8939 343.049 72.5025C346.737 70.6549 349.514 67.849 351.313 64.1539C352.792 61.0977 353.202 59.3186 353.202 56.0572C353.202 52.9095 352.793 51.084 351.45 48.1871C349.082 43.1463 344.825 39.6568 339.247 38.1285C336.994 37.5126 332.827 37.5578 330.528 38.2193C324.404 39.9757 318.075 45.4048 312.748 53.525C311.906 54.7795 310.267 57.6533 309.106 59.8658C306.738 64.4506 304.917 67.439 302.549 70.6324C294.285 81.8319 284.656 88.4467 274.138 90.1803C270.905 90.7277 264.826 90.4994 261.617 89.7467C255.06 88.1956 249.779 85.2535 245.089 80.5777C242.221 77.7265 240.741 75.7869 239.079 72.776C235.961 67.1648 234.571 61.1888 234.822 54.6881C235.186 45.7011 238.487 38.1513 244.884 31.7418C250.188 26.4044 256.176 23.279 263.665 21.9332C264.826 21.7279 266.785 21.6591 269.813 21.7047C273.66 21.7731 274.548 21.865 276.529 22.3668C283.404 24.1232 289.391 27.4989 294.855 32.7223L296.699 34.5016L294.855 37.0103C294.758 37.1425 294.656 37.2751 294.555 37.4107L280.992 57.8971C276.402 64.8293 267.062 66.7281 260.129 62.1383L275.521 38.8912C274.88 38.6343 274.23 38.4108 273.569 38.2193C271.11 37.5351 267.103 37.5351 264.508 38.2193C259.386 39.6107 254.764 43.5112 252.488 48.3697C251.372 50.7648 250.894 53.1147 250.894 56.0572C250.871 59.3188 251.395 61.4859 252.898 64.4967C253.808 66.344 254.309 67.0058 256.267 68.9674C258.293 70.9973 258.817 71.3849 260.934 72.4342C264.03 73.9624 265.806 74.3961 269.129 74.3961C273.09 74.3961 276.118 73.3697 280.148 70.6783C282.128 69.3553 285.999 65.6821 287.934 63.2642C290.165 60.5043 292.851 56.3763 294.422 53.2516C303.506 35.2547 315.844 24.3511 329.799 21.9332Z" fill="#697791"/>
<path d="M407.684 113.481V101.447H410.317V117.43H407.799L395.397 105.42V117.43H392.764V101.447H395.281L407.684 113.481Z" fill="#697791"/>
<path d="M344.032 101.447H347.52C352.832 101.447 356.019 104.658 356.019 109.623V109.646C356.019 114.658 352.832 117.846 347.52 117.846H344.032C338.743 117.846 335.556 114.658 335.556 109.646V109.623C335.556 104.658 338.743 101.447 344.032 101.447ZM344.032 115.398H347.52C351.238 115.398 353.363 113.18 353.363 109.646V109.623C353.363 106.113 351.238 103.895 347.52 103.895H344.032C340.337 103.895 338.212 106.113 338.212 109.623V109.646C338.212 113.18 340.337 115.398 344.032 115.398Z" fill="#697791"/>
<path d="M298.812 117.43H296.133V101.447H298.812V117.43Z" fill="#697791"/>
<path d="M242.922 101.447H259.39V103.965H252.507V117.43H249.828V103.965H242.922V101.447Z" fill="#697791"/>
<path d="M197.54 101.447L206.178 117.43H203.314L201.374 113.735H190.981L189.041 117.43H186.177L194.792 101.447H197.54ZM200.219 111.448L196.177 103.988L192.113 111.448H200.219Z" fill="#697791"/>
<path d="M149.432 103.341L147.907 105.304C146.752 104.288 145.251 103.895 143.403 103.895H140.124C136.498 103.895 134.304 106.159 134.304 109.623V109.646C134.327 113.134 136.498 115.398 140.124 115.398H143.403C145.344 115.398 146.799 114.959 147.907 113.989L149.432 115.952C147.907 117.291 145.99 117.846 143.403 117.846H140.124C134.812 117.846 131.647 114.658 131.647 109.646V109.623C131.647 104.635 134.812 101.447 140.124 101.447H143.403C145.875 101.447 147.884 101.955 149.432 103.341Z" fill="#697791"/>
<path d="M82.9158 101.447H86.4033C91.7155 101.447 94.9028 104.658 94.9028 109.623V109.646C94.9028 114.658 91.7155 117.846 86.4033 117.846H82.9158C77.6267 117.846 74.4395 114.658 74.4395 109.646V109.623C74.4395 104.658 77.6267 101.447 82.9158 101.447ZM82.9158 115.398H86.4033C90.1219 115.398 92.2467 113.18 92.2467 109.646V109.623C92.2467 106.113 90.1219 103.895 86.4033 103.895H82.9158C79.2204 103.895 77.0955 106.113 77.0955 109.623V109.646C77.0955 113.18 79.2204 115.398 82.9158 115.398Z" fill="#697791"/>
<path d="M22.96 101.447H25.6391V114.889H37.6954V117.43H22.96V101.447Z" fill="#697791"/>
</svg>
