<svg width="499" height="120" viewBox="0 0 499 120" fill="none" xmlns="http://www.w3.org/2000/svg">
<path d="M465.466 120C450.013 120 437.247 112.878 433.484 97.1555H449.475C452.163 103.337 457.403 106.159 465.466 106.159C476.351 106.159 482.532 100.918 482.532 88.0178V79.6863C478.501 86.9427 471.513 90.8397 462.778 90.8397C447.459 90.8397 432.946 80.8957 432.946 57.2449V23.5157H448.937V57.2449C448.937 69.8766 455.656 75.9236 465.735 75.9236C475.544 75.9236 482.532 69.6078 482.532 57.2449V23.5157H498.523V87.6146C498.523 110.728 483.876 120 465.466 120Z" fill="#98A6AA"/>
<path d="M401.691 91.6459C384.76 91.6459 374.144 82.6425 373.74 70.2796H389.866C390 74.7141 393.897 77.6705 401.691 77.6705C409.888 77.6705 413.382 74.311 413.382 70.2796C413.382 65.1732 407.47 64.5013 400.347 63.5607C390.135 62.2169 375.084 60.4699 375.084 44.2101C375.084 30.6378 385.431 21.7687 401.422 21.7687C417.682 21.7687 427.626 30.9065 428.029 42.5975H412.173C411.77 38.5661 408.007 35.7442 401.691 35.7442C394.704 35.7442 391.21 39.1037 391.21 43.0007C391.21 48.1071 397.257 48.9133 404.379 49.854C413.248 51.0634 429.508 52.8103 429.508 69.339C429.508 82.7769 418.623 91.6459 401.691 91.6459Z" fill="#98A6AA"/>
<path d="M198.224 91.6466C183.04 91.6466 172.692 83.0463 172.692 65.8458V0H178.874V23.5164H219.994V29.1603H178.874V65.8458C178.874 79.2837 186.533 85.8683 198.224 85.8683C210.05 85.8683 217.709 79.4181 217.709 65.8458V64.6364H223.622V65.8458C223.622 83.0463 213.409 91.6466 198.224 91.6466Z" fill="#98A6AA"/>
<path d="M133.337 91.6459C112.374 91.6459 97.5925 76.8642 97.5925 56.7073C97.5925 36.5505 112.374 21.7687 133.337 21.7687C154.3 21.7687 168.948 36.5505 168.948 56.7073V58.3199H103.908C104.58 74.311 116.271 85.8676 133.337 85.8676C145.431 85.8676 154.703 80.3581 159.407 71.2203H166.126C161.019 83.5832 148.925 91.6459 133.337 91.6459ZM104.043 52.676H162.497C160.75 37.6255 149.194 27.547 133.337 27.547C117.346 27.547 105.79 37.7599 104.043 52.676Z" fill="#98A6AA"/>
<path d="M46.7638 91.6465C19.3505 91.6465 0 72.2959 0 45.9575C0 19.6192 19.3505 0.268616 46.7638 0.268616C67.9956 0.268616 84.5242 11.9596 90.84 29.5633H83.5835C77.8052 15.5878 64.0986 6.31568 46.7638 6.31568C23.1131 6.31568 6.58455 23.1131 6.58455 45.9575C6.58455 68.802 23.1131 85.5994 46.7638 85.5994C67.8612 85.5994 83.4491 72.9678 86.5398 53.3484H41.2542V47.3013H93.3931V50.1233C91.5118 74.3116 72.6988 91.6465 46.7638 91.6465Z" fill="#98A6AA"/>
<path d="M329.8 21.9321C332.418 21.4759 339.179 21.6129 341.752 22.1831C345.531 23.0043 350.334 24.9436 353.226 26.8139C359.85 31.0566 365.132 37.8309 367.613 45.2212C368.911 49.1217 369.366 52.5205 369.229 57.0825C369.215 57.5144 369.195 57.9344 369.172 58.3442V90.3208H353.425V85.1011C350.152 87.259 346.605 88.7408 342.435 89.7466C339.225 90.5221 333.351 90.7272 330.005 90.2026C322.674 89.0165 315.571 85.3438 309.242 79.436L307.376 77.6802L308.173 76.6079C309.926 74.3041 313.34 69.0123 314.774 66.3891L316.3 63.6059L318.6 66.0014C321.445 68.9893 324.132 71.042 327.068 72.479C330.278 74.0527 331.735 74.3954 335.036 74.3725C338.291 74.3725 340.317 73.8936 343.049 72.5024C346.737 70.6548 349.515 67.849 351.313 64.1538C352.793 61.0973 353.203 59.3179 353.203 56.0561C353.203 52.9085 352.793 51.0836 351.45 48.187C349.083 43.146 344.825 39.6557 339.247 38.1274C336.993 37.5117 332.828 37.5578 330.528 38.2192C324.404 39.9756 318.075 45.4036 312.748 53.5239C311.906 54.7785 310.267 57.6532 309.105 59.8657C306.738 64.4501 304.917 67.4382 302.55 70.6313C294.286 81.831 284.655 88.4456 274.138 90.1792C270.905 90.7265 264.827 90.4992 261.617 89.7466C255.061 88.1955 249.779 85.2525 245.09 80.5766C242.221 77.7254 240.741 75.7867 239.079 72.7759C235.96 67.1648 234.572 61.1886 234.822 54.688C235.187 45.7009 238.488 38.1503 244.885 31.7407C250.189 26.4033 256.176 23.2779 263.666 21.9321C264.827 21.7268 266.785 21.659 269.812 21.7046C273.66 21.773 274.548 21.8639 276.528 22.3657C283.403 24.122 289.391 27.4979 294.854 32.7212L296.699 34.5005L294.854 37.0102C294.758 37.1414 294.658 37.2731 294.558 37.4077L280.992 57.897C276.402 64.8291 267.061 66.728 260.129 62.1382L275.521 38.8901C274.88 38.6334 274.23 38.4106 273.569 38.2192C271.111 37.535 267.104 37.535 264.509 38.2192C259.387 39.6106 254.765 43.5111 252.488 48.3696C251.373 50.7645 250.895 53.1138 250.895 56.0561C250.872 59.3178 251.395 61.4849 252.897 64.4956C253.808 66.3432 254.31 67.0046 256.268 68.9663C258.294 70.9963 258.817 71.3839 260.935 72.4331C264.031 73.9613 265.806 74.395 269.13 74.395C273.091 74.395 276.119 73.3688 280.148 70.6772C282.129 69.3542 285.998 65.6819 287.934 63.2641C290.165 60.5042 292.851 56.3754 294.422 53.2505C303.505 35.2535 315.845 24.35 329.8 21.9321Z" fill="#98A6AA"/>
<path d="M407.684 113.481V101.448H410.317V117.43H407.799L395.396 105.42V117.43H392.763V101.448H395.281L407.684 113.481Z" fill="#98A6AA"/>
<path d="M344.032 101.448H347.52C352.832 101.448 356.019 104.658 356.019 109.624V109.647C356.019 114.659 352.832 117.846 347.52 117.846H344.032C338.743 117.846 335.556 114.659 335.556 109.647V109.624C335.556 104.658 338.743 101.448 344.032 101.448ZM344.032 115.398H347.52C351.238 115.398 353.363 113.181 353.363 109.647V109.624C353.363 106.113 351.238 103.896 347.52 103.896H344.032C340.337 103.896 338.212 106.113 338.212 109.624V109.647C338.212 113.181 340.337 115.398 344.032 115.398Z" fill="#98A6AA"/>
<path d="M298.812 117.43H296.133V101.448H298.812V117.43Z" fill="#98A6AA"/>
<path d="M242.921 101.448H259.389V103.965H252.506V117.43H249.827V103.965H242.921V101.448Z" fill="#98A6AA"/>
<path d="M197.54 101.448L206.178 117.43H203.314L201.374 113.735H190.98L189.04 117.43H186.176L194.791 101.448H197.54ZM200.219 111.448L196.177 103.988L192.112 111.448H200.219Z" fill="#98A6AA"/>
<path d="M149.431 103.342L147.907 105.305C146.752 104.289 145.251 103.896 143.403 103.896H140.124C136.497 103.896 134.303 106.159 134.303 109.624V109.647C134.326 113.135 136.497 115.398 140.124 115.398H143.403C145.343 115.398 146.798 114.959 147.907 113.989L149.431 115.952C147.907 117.292 145.99 117.846 143.403 117.846H140.124C134.811 117.846 131.647 114.659 131.647 109.647V109.624C131.647 104.635 134.811 101.448 140.124 101.448H143.403C145.875 101.448 147.884 101.956 149.431 103.342Z" fill="#98A6AA"/>
<path d="M82.916 101.448H86.4036C91.7157 101.448 94.903 104.658 94.903 109.624V109.647C94.903 114.659 91.7157 117.846 86.4036 117.846H82.916C77.627 117.846 74.4397 114.659 74.4397 109.647V109.624C74.4397 104.658 77.627 101.448 82.916 101.448ZM82.916 115.398H86.4036C90.1221 115.398 92.247 113.181 92.247 109.647V109.624C92.247 106.113 90.1221 103.896 86.4036 103.896H82.916C79.2206 103.896 77.0958 106.113 77.0958 109.624V109.647C77.0958 113.181 79.2206 115.398 82.916 115.398Z" fill="#98A6AA"/>
<path d="M22.9597 101.448H25.6389V114.89H37.6952V117.43H22.9597V101.448Z" fill="#98A6AA"/>
</svg>
