<svg width="587" height="120" viewBox="0 0 587 120" fill="none" xmlns="http://www.w3.org/2000/svg">
<g clip-path="url(#clip0_617_155)">
<g clip-path="url(#clip1_617_155)">
<path d="M39.3965 0C46.4193 8.73358 45.0558 9.96647 50.8288 15.3188C52.3974 16.743 53.5998 18.5289 54.3329 20.5235C55.0051 22.4277 55.4205 24.4141 55.5681 26.4296C55.7168 28.5639 56.6085 30.5769 58.0862 32.1142L65.7065 39.936C65.811 40.0427 65.891 40.1711 65.9409 40.3122C65.9908 40.4534 66.0095 40.6038 65.9955 40.753C65.9815 40.9022 65.9353 41.0464 65.86 41.1757C65.7848 41.3049 65.6823 41.416 65.5599 41.5011L63.3387 43.0588C62.7639 43.4707 62.061 43.6601 61.3588 43.5923C60.6567 43.5245 60.0023 43.204 59.5157 42.6897C56.3452 39.2421 49.3626 35.1152 46.445 34.7793L43.5897 34.58C41.8258 34.4591 40.1229 33.8815 38.6458 32.903C37.1688 31.9245 35.9679 30.5784 35.1593 28.995L33.3266 25.3887C29.0418 33.5095 30.6546 40.2572 38.7441 45.4693C55.0806 56.8901 62.2794 67.2478 64.2733 81.5663C64.9755 86.2963 64.829 91.1147 63.8408 95.7926C60.6776 110.089 50.3633 118.029 33.3266 120C21.2602 119.623 10.6307 116.024 4.30058 102.695C0.932108 95.5895 0.939439 87.2694 4.59748 80.315C8.62938 72.6777 15.5239 68.5029 26.1755 68.7834C34.7781 69.1341 41.801 72.2975 45.1071 82.072C46.3666 85.6161 46.3911 89.4863 45.1768 93.0462C42.9409 99.2993 37.5162 102.322 29.4157 102.644C41.2548 98.7603 44.1578 85.6637 34.9907 80.0529C30.9038 77.5576 25.8273 77.5207 21.5168 79.6358C18.1593 81.2895 15.5386 83.7516 14.362 87.8009C13.0546 92.3901 13.5992 97.3135 15.8773 101.5C18.1555 105.687 21.983 108.799 26.5274 110.159C27.8449 110.545 29.1944 110.809 30.5593 110.949C35.6142 111.55 40.7102 110.234 44.8542 107.258C48.6845 104.426 51.4079 100.44 52.4489 94.7073C53.97 86.3207 52.7128 76.62 46.8005 70.5331C34.0597 57.3146 17.5949 61.6629 1.8118 71.7254C-0.863923 62.0874 -1.54935 51.7666 6.6904 38.3894C8.71369 46.9384 10.6123 53.6787 14.0211 58.4921C14.2029 58.766 14.4624 58.9783 14.7658 59.1014C15.0692 59.2246 15.4023 59.2528 15.7219 59.1824C17.188 58.8133 17.364 56.3401 14.8935 46.1891C13.7874 41.7553 13.4159 37.1681 13.7939 32.6125C14.7396 21.9078 19.5449 14.1561 34.1403 8.92184C37.5528 7.7074 39.0446 4.46646 39.3965 0Z" fill="#697791"/>
</g>
<path d="M574.603 46.8518L560.161 71.8961H548.891L534.449 46.8518H534.198V92.0568H522.052V27.9434H535.91L554.359 59.2487H554.693L573.184 27.9434H587V92.0568H574.979V46.8518H574.603Z" fill="#697791"/>
<path d="M494.837 75.9867C499.15 71.59 501.307 66.2611 501.307 60.0001C501.307 53.739 499.15 48.4101 494.837 44.0134C490.524 39.6168 485.265 37.4184 479.059 37.4184C472.854 37.4184 467.595 39.6168 463.281 44.0134C458.996 48.4101 456.853 53.739 456.853 60.0001C456.853 66.2611 458.996 71.59 463.281 75.9867C467.595 80.3833 472.854 82.5817 479.059 82.5817C485.265 82.5817 490.524 80.3833 494.837 75.9867ZM503.77 36.208C510.56 42.6638 513.954 50.5945 513.954 60.0001C513.954 69.4056 510.56 77.3502 503.77 83.8339C496.98 90.2898 488.743 93.5177 479.059 93.5177C469.376 93.5177 461.139 90.3037 454.349 83.8756C447.587 77.4198 444.206 69.4612 444.206 60.0001C444.206 50.5389 447.587 42.5943 454.349 36.1662C461.139 29.7104 469.376 26.4824 479.059 26.4824C488.743 26.4824 496.98 29.7243 503.77 36.208Z" fill="#697791"/>
<path d="M418.034 60.0001L445.917 92.0568H430.514L410.354 68.9743L404.719 75.4023V92.0568H392.572V27.9434H404.719V57.6209L430.514 27.9434H445.917L418.034 60.0001Z" fill="#697791"/>
<path d="M365.358 75.9867C369.671 71.59 371.828 66.2611 371.828 60.0001C371.828 53.739 369.671 48.4101 365.358 44.0134C361.045 39.6168 355.785 37.4184 349.58 37.4184C343.374 37.4184 338.115 39.6168 333.802 44.0134C329.517 48.4101 327.374 53.739 327.374 60.0001C327.374 66.2611 329.517 71.59 333.802 75.9867C338.115 80.3833 343.374 82.5817 349.58 82.5817C355.785 82.5817 361.045 80.3833 365.358 75.9867ZM374.29 36.208C381.08 42.6638 384.475 50.5945 384.475 60.0001C384.475 69.4056 381.08 77.3502 374.29 83.8339C367.5 90.2898 359.264 93.5177 349.58 93.5177C339.896 93.5177 331.659 90.3037 324.87 83.8756C318.108 77.4198 314.727 69.4612 314.727 60.0001C314.727 50.5389 318.108 42.5943 324.87 36.1662C331.659 29.7104 339.896 26.4824 349.58 26.4824C359.264 26.4824 367.5 29.7243 374.29 36.208Z" fill="#697791"/>
<path d="M302.079 34.2462C306.476 38.4202 308.674 43.6239 308.674 49.8571C308.674 56.0626 306.476 61.2662 302.079 65.4681C297.711 69.6421 292.396 71.7292 286.135 71.7292H270.064V92.0568H257.918V27.9434H286.135C292.396 27.9434 297.711 30.0443 302.079 34.2462ZM293.105 57.7043C295.053 55.5338 296.027 52.9181 296.027 49.8571C296.027 46.7683 295.053 44.1387 293.105 41.9682C291.185 39.7977 288.862 38.7124 286.135 38.7124H270.064V60.9601H286.135C288.862 60.9601 291.185 59.8749 293.105 57.7043Z" fill="#697791"/>
<path d="M243.142 34.2462C247.539 38.4202 249.737 43.6239 249.737 49.8571C249.737 56.0626 247.539 61.2662 243.142 65.4681C238.773 69.6421 233.458 71.7292 227.197 71.7292H211.127V92.0568H198.98V27.9434H227.197C233.458 27.9434 238.773 30.0443 243.142 34.2462ZM234.168 57.7043C236.116 55.5338 237.09 52.9181 237.09 49.8571C237.09 46.7683 236.116 44.1387 234.168 41.9682C232.248 39.7977 229.924 38.7124 227.197 38.7124H211.127V60.9601H227.197C229.924 60.9601 232.248 59.8749 234.168 57.7043Z" fill="#697791"/>
<path d="M176.607 92.0568V27.9434H188.754V92.0568H176.607Z" fill="#697791"/>
<path d="M166.339 92.0568H154.193V65.3011H128.146V92.0568H116V27.9434H128.146V54.5321H154.193V27.9434H166.339V92.0568Z" fill="#697791"/>
</g>
<defs>
<clipPath id="clip0_617_155">
<rect width="587" height="120" fill="white"/>
</clipPath>
<clipPath id="clip1_617_155">
<rect width="66" height="120" fill="white"/>
</clipPath>
</defs>
</svg>
