<svg width="628" height="120" viewBox="0 0 628 120" fill="none" xmlns="http://www.w3.org/2000/svg">
<path d="M104.207 60.9372L96.3943 101.875L90.0525 101.014L97.0193 61.2497L87.5789 1.56216H92.0193L104.207 60.9372ZM92.9568 61.2497L87.7722 100.705L77.9568 99.3747L76.3943 1.56216H85.0388L92.9568 61.2497Z" fill="#181C1D"/>
<path d="M36.6658 4.85062L18.5818 61.25L33.0154 99.4385L22.9568 103.75L0.144287 61.25L26.0818 3.05176e-05L36.6658 4.85062ZM41.0818 6.87503L26.0818 61.25L38.2693 97.1875L36.5027 97.9444L23.2693 61.25L39.2234 6.02249L41.0818 6.87503Z" fill="#181C1D"/>
<path d="M66.3943 70.3131L69.5193 118.126L61.0896 117.589L54.2068 70.0006L58.155 15.3131H66.3943V70.3131ZM51.0818 70.0006L58.5378 117.428L55.6013 117.242L46.3943 70.3131L52.7751 15.3131H55.9421L51.0818 70.0006ZM42.9568 70.3131L53.0193 117.078L49.8318 116.876L39.2068 70.3131L47.0193 15.3131H50.5535L42.9568 70.3131Z" fill="#181C1D"/>
<path d="M140.769 72.5L117.332 120L107.758 115.494L126.393 72.1875L112.536 21.8789L120.769 17.5L140.769 72.5ZM122.331 72.1875L105.311 114.343L101.394 112.5L114.207 72.5L106.082 25.3125L109.947 23.2559L122.331 72.1875Z" fill="#181C1D"/>
<path d="M609.498 80.7972L603.93 87.8223C600.986 85.2506 597.21 84.247 592.09 84.247H582.426C573.21 84.247 568.026 89.5786 568.026 97.6701V97.7328C568.026 105.762 573.146 111.219 582.042 111.219H591.258C596.826 111.219 601.242 109.65 602.394 106.201V104.068H589.786V96.4783H610.65V119.436H604.762L604.25 114.668C601.562 118.432 596.89 120 590.618 120H581.402C567.002 120 558.298 111.156 558.298 97.7328V97.6701C558.298 84.3097 567.13 75.4656 582.426 75.4656H592.09C599.514 75.4656 605.21 76.971 609.498 80.7972Z" fill="#181C1D"/>
<path d="M541.17 104.946V76.0301H550.834V119.436H541.874L510.834 90.5195V119.436H501.234V76.0301H510.194L541.17 104.946Z" fill="#181C1D"/>
<path d="M491.151 119.436H481.359V76.0301H491.151V119.436Z" fill="#181C1D"/>
<path d="M428.345 76.0301H474.489V85.0624H456.377V119.436H446.521V85.0624H428.345V76.0301Z" fill="#181C1D"/>
<path d="M423.937 82.428L417.217 88.3868C414.913 85.1879 411.777 83.8079 406.721 83.8079H396.161C391.361 83.8079 388.545 85.3133 388.545 87.9478C388.545 90.0177 389.825 91.4603 394.689 92.2758L412.161 93.9693C421.761 95.4747 424.577 101.183 424.513 107.204C424.513 114.919 418.241 120 407.489 120H396.673C386.817 120 380.225 116.676 377.409 110.529L385.729 105.385C388.033 110.152 391.617 111.72 396.801 111.72H407.617C412.545 111.72 415.041 110.027 415.041 107.079C415.041 104.319 413.185 102.939 409.217 102.249L390.785 100.116C382.145 98.6737 379.009 93.8439 379.009 88.2614C379.009 80.2954 385.345 75.4656 396.609 75.4656H406.977C415.105 75.4656 420.865 77.9746 423.937 82.428Z" fill="#181C1D"/>
<path d="M330.797 76.0301H372.205V84.6861H340.461V93.5303H368.941V102.061H340.461V110.78H372.205V119.436H330.797V76.0301Z" fill="#181C1D"/>
<path d="M281.148 76.0301L297.468 108.584L313.788 76.0301H324.796L302.524 119.436H292.348L270.076 76.0301H281.148Z" fill="#181C1D"/>
<path d="M254.42 104.946V76.0301H264.084V119.436H255.124L224.084 90.5195V119.436H214.484V76.0301H223.444L254.42 104.946Z" fill="#181C1D"/>
<path d="M204.401 119.436H194.609V76.0301H204.401V119.436Z" fill="#181C1D"/>
<path d="M604.432 0.564545L627.856 43.97H617.36L612.752 35.0004H585.936L581.328 43.97H570.832L594.256 0.564545H604.432ZM608.656 26.8462L599.376 9.65961L590.096 26.8462H608.656Z" fill="#181C1D"/>
<path d="M564.589 43.97H554.797V0.564545H564.589V43.97Z" fill="#181C1D"/>
<path d="M535.045 29.4806V0.564545H544.709V43.97H535.749L504.709 15.0539V43.97H495.109V0.564545H504.069L535.045 29.4806Z" fill="#181C1D"/>
<path d="M453.976 0H464.024C478.872 0 487.64 8.78144 487.64 22.2045V22.2672C487.64 35.753 478.872 44.5345 464.024 44.5345H453.976C439.192 44.5345 430.36 35.753 430.36 22.2672V22.2045C430.36 8.78144 439.192 0 453.976 0ZM453.976 35.753H464.024C472.984 35.753 477.912 30.4214 477.912 22.2672V22.2045C477.912 14.113 472.984 8.78144 464.024 8.78144H453.976C445.08 8.78144 440.088 14.113 440.088 22.2045V22.2672C440.088 30.4214 445.08 35.753 453.976 35.753Z" fill="#181C1D"/>
<path d="M395.075 33.8086L392.707 35.5649H425.347V43.97H378.435V35.5649L408.067 10.7887L410.499 8.96964H378.627V0.564545H424.707V8.96964L395.075 33.8086Z" fill="#181C1D"/>
<path d="M350.869 0.564545L374.293 43.97H363.797L359.189 35.0004H332.373L327.765 43.97H317.269L340.693 0.564545H350.869ZM355.093 26.8462L345.813 9.65961L336.533 26.8462H355.093Z" fill="#181C1D"/>
<path d="M263.391 0.564545L282.527 24.5881L301.599 0.564545H311.007V43.97H301.343V15.1794L285.151 35.8785H279.903L263.647 15.1794V43.97H254.047V0.564545H263.391Z" fill="#181C1D"/>
<path d="M224.369 0.564545L247.793 43.97H237.297L232.689 35.0004H205.873L201.265 43.97H190.769L214.193 0.564545H224.369ZM228.593 26.8462L219.313 9.65961L210.033 26.8462H228.593Z" fill="#181C1D"/>
</svg>
