<svg width="628" height="120" viewBox="0 0 628 120" fill="none" xmlns="http://www.w3.org/2000/svg">
<path d="M104.062 60.9375L96.25 101.875L89.9082 101.015L96.875 61.25L87.4346 1.5625H91.875L104.062 60.9375ZM92.8125 61.25L87.6279 100.705L77.8125 99.375L76.25 1.5625H84.8945L92.8125 61.25Z" fill="#697791"/>
<path d="M36.5215 4.85059L18.4375 61.25L32.8711 99.4385L22.8125 103.75L0 61.25L25.9375 0L36.5215 4.85059ZM40.9375 6.875L25.9375 61.25L38.125 97.1875L36.3584 97.9443L23.125 61.25L39.0791 6.02246L40.9375 6.875Z" fill="#697791"/>
<path d="M66.25 70.3125L69.375 118.125L60.9453 117.589L54.0625 70L58.0107 15.3125H66.25V70.3125ZM50.9375 70L58.3936 117.428L55.457 117.241L46.25 70.3125L52.6309 15.3125H55.7979L50.9375 70ZM42.8125 70.3125L52.875 117.077L49.6875 116.875L39.0625 70.3125L46.875 15.3125H50.4092L42.8125 70.3125Z" fill="#697791"/>
<path d="M140.625 72.5L117.188 120L107.614 115.494L126.249 72.1875L112.392 21.8789L120.625 17.5L140.625 72.5ZM122.187 72.1875L105.167 114.343L101.25 112.5L114.062 72.5L105.938 25.3125L109.803 23.2559L122.187 72.1875Z" fill="#697791"/>
<path d="M609.353 80.7964L603.785 87.8216C600.841 85.2499 597.065 84.2463 591.945 84.2463H582.281C573.065 84.2463 567.881 89.5779 567.881 97.6693V97.7321C567.881 105.761 573.001 111.218 581.897 111.218H591.113C596.681 111.218 601.097 109.65 602.249 106.2V104.067H589.641V96.4776H610.505V119.435H604.617L604.105 114.668C601.417 118.431 596.745 119.999 590.473 119.999H581.257C566.857 119.999 558.153 111.155 558.153 97.7321V97.6693C558.153 84.309 566.985 75.4648 582.281 75.4648H591.945C599.369 75.4648 605.065 76.9702 609.353 80.7964Z" fill="#697791"/>
<path d="M541.026 104.945V76.0293H550.69V119.435H541.73L510.69 90.5187V119.435H501.09V76.0293H510.05L541.026 104.945Z" fill="#697791"/>
<path d="M491.007 119.435H481.215V76.0293H491.007V119.435Z" fill="#697791"/>
<path d="M428.201 76.0293H474.345V85.0616H456.233V119.435H446.377V85.0616H428.201V76.0293Z" fill="#697791"/>
<path d="M423.793 82.4273L417.073 88.3861C414.769 85.1872 411.633 83.8072 406.577 83.8072H396.017C391.217 83.8072 388.401 85.3126 388.401 87.947C388.401 90.0169 389.681 91.4596 394.545 92.275L412.017 93.9686C421.617 95.474 424.433 101.182 424.369 107.203C424.369 114.919 418.097 119.999 407.345 119.999H396.529C386.673 119.999 380.081 116.675 377.265 110.528L385.585 105.384C387.889 110.152 391.473 111.72 396.657 111.72H407.473C412.401 111.72 414.897 110.026 414.897 107.078C414.897 104.318 413.041 102.938 409.073 102.248L390.641 100.116C382.001 98.6729 378.865 93.8431 378.865 88.2607C378.865 80.2946 385.201 75.4648 396.465 75.4648H406.833C414.961 75.4648 420.721 77.9738 423.793 82.4273Z" fill="#697791"/>
<path d="M330.652 76.0293H372.06V84.6853H340.316V93.5295H368.796V102.06H340.316V110.779H372.06V119.435H330.652V76.0293Z" fill="#697791"/>
<path d="M281.004 76.0293L297.324 108.583L313.644 76.0293H324.652L302.38 119.435H292.204L269.932 76.0293H281.004Z" fill="#697791"/>
<path d="M254.276 104.945V76.0293H263.94V119.435H254.98L223.94 90.5187V119.435H214.34V76.0293H223.3L254.276 104.945Z" fill="#697791"/>
<path d="M204.257 119.435H194.465V76.0293H204.257V119.435Z" fill="#697791"/>
<path d="M604.288 0.564453L627.711 43.9699H617.216L612.607 35.0003H585.792L581.184 43.9699H570.688L594.112 0.564453H604.288ZM608.512 26.8461L599.232 9.65952L589.952 26.8461H608.512Z" fill="#697791"/>
<path d="M564.444 43.9699H554.652V0.564453H564.444V43.9699Z" fill="#697791"/>
<path d="M534.901 29.4805V0.564453H544.565V43.9699H535.605L504.565 15.0538V43.9699H494.965V0.564453H503.925L534.901 29.4805Z" fill="#697791"/>
<path d="M453.832 0H463.88C478.728 0 487.496 8.78144 487.496 22.2045V22.2672C487.496 35.753 478.728 44.5345 463.88 44.5345H453.832C439.048 44.5345 430.216 35.753 430.216 22.2672V22.2045C430.216 8.78144 439.048 0 453.832 0ZM453.832 35.753H463.88C472.84 35.753 477.768 30.4214 477.768 22.2672V22.2045C477.768 14.113 472.84 8.78144 463.88 8.78144H453.832C444.936 8.78144 439.944 14.113 439.944 22.2045V22.2672C439.944 30.4214 444.936 35.753 453.832 35.753Z" fill="#697791"/>
<path d="M394.931 33.8085L392.563 35.5648H425.203V43.9699H378.291V35.5648L407.923 10.7886L410.355 8.96955H378.483V0.564453H424.563V8.96955L394.931 33.8085Z" fill="#697791"/>
<path d="M350.725 0.564453L374.149 43.9699H363.653L359.045 35.0003H332.229L327.621 43.9699H317.125L340.549 0.564453H350.725ZM354.949 26.8461L345.669 9.65952L336.389 26.8461H354.949Z" fill="#697791"/>
<path d="M263.246 0.564453L282.382 24.588L301.454 0.564453H310.862V43.9699H301.198V15.1793L285.006 35.8784H279.758L263.502 15.1793V43.9699H253.902V0.564453H263.246Z" fill="#697791"/>
<path d="M224.225 0.564453L247.649 43.9699H237.153L232.545 35.0003H205.729L201.121 43.9699H190.625L214.049 0.564453H224.225ZM228.449 26.8461L219.169 9.65952L209.889 26.8461H228.449Z" fill="#697791"/>
</svg>
