<svg width="331" height="80" viewBox="0 0 331 80" fill="none" xmlns="http://www.w3.org/2000/svg">
<path d="M259.029 0.146547C257.926 0.448279 257.055 1.28384 256.684 2.39793C256.51 2.89695 256.498 6.62218 256.521 39.4994L256.556 76.0554L256.916 76.6936C257.334 77.4364 258.158 78.1095 258.924 78.3416C260.074 78.6665 261.444 78.388 262.221 77.6453C262.407 77.4712 265.124 73.5022 268.246 68.8254C271.381 64.1602 273.981 60.3305 274.028 60.3305C274.074 60.3305 276.999 64.1021 280.54 68.7094C284.081 73.305 287.146 77.2739 287.355 77.506C288.121 78.388 289.653 78.7129 290.942 78.2719C291.696 78.0166 292.521 77.2507 292.869 76.4848C293.217 75.7304 293.217 74.3842 292.892 73.7344C292.753 73.479 289.421 69.0459 285.474 63.87C281.515 58.7058 278.242 54.3887 278.184 54.2958C278.091 54.1566 279.519 51.9864 284.545 44.652C288.121 39.453 291.104 35.043 291.197 34.8573C291.453 34.2771 291.499 33.163 291.278 32.5015C291.023 31.7472 290.268 30.8884 289.444 30.4474C288.922 30.1457 288.713 30.0993 288.016 30.1109C287.088 30.1109 286.426 30.3894 285.753 31.0393C285.532 31.2482 280.412 38.9075 274.376 48.0639L263.405 64.7056L263.347 33.7084L263.289 2.71127L262.906 1.92212C262.454 1.01693 261.78 0.425069 260.875 0.158152C260.178 -0.050739 259.76 -0.050739 259.029 0.146547Z" fill="#98A6AA"/>
<path d="M3.11118 7.99161C1.81099 8.25853 0.777795 9.04767 0.255395 10.1734L0 10.7188V43.213V75.7072L0.325049 76.3687C1.77616 79.3396 5.89731 79.1075 7.15107 75.9974C7.29038 75.6492 7.3252 71.6571 7.37164 50.0832L7.42968 24.5637L18.6206 42.2498C24.7733 51.9749 30.0206 60.1448 30.276 60.4117C30.5314 60.6787 31.0538 61.0384 31.4368 61.2009C32.0521 61.4794 32.2379 61.5142 33.0737 61.4678C34.1649 61.4098 34.9776 61.05 35.616 60.3421C35.825 60.11 41.0258 51.9633 47.1901 42.2382L58.3927 24.5521L58.4507 50.1296L58.5088 75.7072L58.8338 76.3687C60.343 79.4441 64.7427 79.0495 65.6946 75.7537C65.8688 75.185 65.8804 72.0749 65.8572 42.9229L65.8223 10.7188L65.5786 10.185C64.8588 8.6415 63.1059 7.71309 61.469 8.01482C60.6332 8.16569 60.0876 8.45582 59.5071 9.05928C59.2517 9.3378 53.1803 18.7959 46.0176 30.0993C38.8665 41.391 32.9692 50.6867 32.9228 50.7331C32.8763 50.7795 26.9906 41.5651 19.8512 30.2502C5.87409 8.10766 6.19914 8.57187 4.98021 8.1889C4.1792 7.93359 3.68001 7.88717 3.11118 7.99161Z" fill="#98A6AA"/>
<path d="M139.992 8.27011C138.935 8.60666 138.065 9.47704 137.623 10.6492C137.391 11.2294 137.391 11.7864 137.391 43.2478C137.391 79.0379 137.31 75.9277 138.239 77.0766C138.958 77.947 140.003 78.4692 141.083 78.4808C141.768 78.4808 142 78.4228 142.65 78.1095C143.149 77.8658 143.567 77.5524 143.811 77.2391C144.031 76.9722 147.828 70.8447 152.251 63.6379C156.674 56.4196 160.354 50.4546 160.435 50.3733C160.551 50.2457 162.362 52.8684 169.594 63.6031C175.584 72.481 178.812 77.1695 179.195 77.5292C179.88 78.1791 180.681 78.4808 181.737 78.4692C184.396 78.4576 186.137 75.4055 184.837 73.0264C184.697 72.7711 180.089 65.9009 174.609 57.7774C169.118 49.6422 164.637 42.9345 164.637 42.8648C164.637 42.7836 168.77 36.1571 173.831 28.138C178.893 20.1189 183.142 13.3183 183.258 13.0282C183.78 11.8561 183.444 10.2082 182.492 9.23333C181.749 8.479 181.064 8.17727 179.996 8.13085C178.835 8.07282 177.999 8.38616 177.233 9.14049C176.827 9.55827 172.717 16.2776 160.783 36.0759L144.879 62.4658L144.821 36.7026L144.763 10.9509L144.38 10.1733C143.567 8.51382 141.733 7.72467 139.992 8.27011Z" fill="#98A6AA"/>
<path d="M194.391 11.4731C192.394 11.8328 190.745 13.2603 190.165 15.1287C189.828 16.1731 189.933 17.6818 190.42 18.703C190.862 19.6431 191.825 20.6991 192.661 21.1633C194.275 22.0337 196.306 21.9989 197.897 21.0705C198.651 20.6295 199.58 19.585 199.998 18.703C200.497 17.6238 200.578 16.1615 200.207 15.0358C199.406 12.6452 196.782 11.0321 194.391 11.4731Z" fill="#98A6AA"/>
<path d="M228.811 28.6022C226.187 28.8691 224.551 29.2056 222.473 29.8903C217.121 31.6311 212.257 35.3563 209.029 40.1608C207.091 43.0737 205.663 46.8802 205.117 50.6402C204.839 52.5435 204.839 56.083 205.117 57.8934C206 63.7772 208.612 68.8486 212.791 72.8407C216.889 76.7516 221.718 79.0378 227.592 79.8386C229.066 80.0359 232.398 80.0127 234.023 79.7806C237.552 79.2816 241.209 77.9818 244.065 76.1946C246.398 74.744 248.894 72.6086 249.359 71.6454C250.52 69.2896 248.964 66.7133 246.387 66.7133C245.307 66.7133 244.587 67.0498 243.473 68.0827C242.277 69.1967 241.383 69.8814 240.211 70.5894C235.37 73.5138 229.043 74.0128 223.668 71.9007C221.416 71.0187 219.28 69.6145 217.504 67.8622C214.091 64.4851 212.187 60.4697 211.781 55.7929C211.421 51.6034 212.512 47.4024 214.869 43.8513C217.759 39.5226 222.159 36.5865 227.186 35.6581C228.95 35.3215 232.654 35.3563 234.325 35.7161C237.854 36.4704 240.536 37.8398 243.357 40.3465C244.344 41.2169 244.796 41.5418 245.249 41.6811C248.059 42.5863 250.531 40.0332 249.521 37.2712C249.324 36.7257 249.092 36.4124 248.326 35.6697C244.75 32.1417 239.596 29.635 234.325 28.8343C233.13 28.6486 229.728 28.5093 228.811 28.6022Z" fill="#98A6AA"/>
<path d="M309.783 28.6602C302.342 29.4145 297.083 33.7432 296.085 39.9287C295.852 41.3562 295.992 44.2226 296.352 45.6036C297.455 49.8047 300.334 52.5667 305.314 54.1682C307.125 54.76 308.68 55.0966 312.465 55.7349C318.002 56.6749 319.674 57.1855 321.578 58.5317C322.356 59.0887 322.715 59.5181 323.168 60.4001C323.783 61.6186 324.004 63.8352 323.656 65.4947C323.133 67.9898 320.962 70.5429 318.2 71.8891C314.996 73.4442 310.561 73.6183 306.695 72.3301C304.722 71.6686 302.237 70.2528 300.554 68.8022C299.463 67.8622 299.091 67.6997 298 67.6997C297.222 67.6997 296.979 67.7577 296.491 68.013C295.794 68.3728 295.284 68.9066 294.912 69.6145C294.529 70.334 294.517 71.7731 294.889 72.4694C295.353 73.3514 297.652 75.2778 299.799 76.6124C303.712 79.0262 308.982 80.2912 313.614 79.943C322.228 79.2816 328.775 74.1521 330.354 66.7945C330.714 65.1118 330.714 62.2917 330.342 60.5626C329.356 55.9321 326.616 52.8916 321.671 50.9304C320.51 50.4661 318.118 49.8395 316.11 49.4913C311.002 48.5745 309.818 48.354 308.611 48.0407C305.198 47.1819 303.7 46.1607 303.073 44.2458C302.411 42.2846 302.737 39.8359 303.839 38.4897C304.896 37.1667 306.881 36.1107 309.261 35.5884C309.713 35.4956 310.747 35.4376 312.163 35.4492C315.541 35.4608 317.282 35.9018 320.579 37.6077L322.379 38.5361L323.377 38.4897C324.457 38.4433 325.072 38.1764 325.711 37.5033C326.453 36.7257 326.767 35.3795 326.453 34.3235C326.07 32.9889 325.211 32.2578 322.379 30.9C318.478 29.0316 314.032 28.2308 309.783 28.6602Z" fill="#98A6AA"/>
<path d="M77.6055 29.4262C77.2804 29.5423 76.8393 29.8556 76.4214 30.2734C75.8642 30.8304 75.7249 31.0625 75.5043 31.7704C75.3185 32.4203 75.2721 32.7685 75.3302 33.2675C75.4811 34.5208 76.2008 35.5885 77.3037 36.1687L77.8957 36.4821L87.7052 36.5517C96.3771 36.6097 97.5844 36.633 98.1532 36.807C100.823 37.6078 102.913 39.8011 103.609 42.5283C103.923 43.7469 103.923 45.5805 103.609 46.799C102.913 49.5146 101.021 51.6151 98.5015 52.4739C97.7585 52.7292 97.6656 52.7292 87.9374 52.7872L78.1279 52.8452L77.4778 53.147C76.6536 53.5299 76.0267 54.1566 75.6436 54.9806L75.3418 55.6305L75.3069 65.8429C75.2837 75.9161 75.2837 76.067 75.5159 76.8562C75.7249 77.506 75.8758 77.7613 76.375 78.2604C77.1992 79.0843 78.035 79.4093 79.2307 79.3396C80.6702 79.2468 81.8079 78.4925 82.3884 77.2159L82.6554 76.6357L82.6902 68.4193L82.725 60.2145H88.5062H94.2991L99.8945 68.9995C106.024 78.6317 106.187 78.8406 107.405 79.2004C109.843 79.9083 112.235 78.1791 112.258 75.7072C112.258 75.2547 112.188 74.7092 112.095 74.4887C112.003 74.2682 109.762 70.7055 107.127 66.5741C104.492 62.4426 102.332 59.0191 102.332 58.9727C102.332 58.9147 102.727 58.671 103.226 58.4273C106.442 56.7678 109.17 53.5764 110.447 49.9672C111.086 48.1336 111.306 46.799 111.318 44.7217C111.318 40.4278 109.901 36.8767 106.953 33.8129C105.153 31.9329 103.157 30.6563 100.881 29.9368C98.6524 29.2173 98.8381 29.2289 88.0071 29.2405C79.3004 29.2405 78.0698 29.2637 77.6055 29.4262Z" fill="#98A6AA"/>
<path d="M194.077 30.2617C193.044 30.6099 192.417 31.2133 191.988 32.2578C191.79 32.7452 191.779 33.7549 191.779 54.3539V75.9393L192.046 76.4848C193.381 79.1539 197.026 79.1423 198.268 76.4731L198.512 75.9393V54.2958V32.6524L198.233 32.0373C197.873 31.2366 197.003 30.4474 196.213 30.2153C195.447 29.9832 194.82 29.9948 194.077 30.2617Z" fill="#98A6AA"/>
<path d="M119.711 69.777C115.926 71.1232 114.939 75.8464 117.877 78.5852C119.931 80.5117 123.077 80.4421 125.086 78.4344C126.711 76.8097 127.106 74.4306 126.072 72.3997C125.689 71.6454 124.749 70.6242 124.064 70.2296C122.752 69.4637 121.104 69.2896 119.711 69.777Z" fill="#98A6AA"/>
</svg>
