<svg width="414" height="100" viewBox="0 0 414 100" fill="none" xmlns="http://www.w3.org/2000/svg">
<path d="M323.787 0.183181C322.409 0.560351 321.32 1.60482 320.856 2.99745C320.638 3.62123 320.624 8.27782 320.653 49.3748L320.696 95.0703L321.146 95.8682C321.669 96.7966 322.699 97.638 323.657 97.9281C325.093 98.3343 326.805 97.9861 327.778 97.0577C328.01 96.8401 331.406 91.8789 335.309 86.0328C339.227 80.2011 342.477 75.414 342.536 75.414C342.594 75.414 346.25 80.1286 350.676 85.8877C355.102 91.6323 358.933 96.5935 359.194 96.8836C360.152 97.9861 362.067 98.3923 363.678 97.8411C364.621 97.5219 365.652 96.5645 366.087 95.6071C366.522 94.6641 366.522 92.9814 366.116 92.169C365.942 91.8499 361.777 86.3084 356.843 79.8385C351.895 73.3831 347.803 67.9866 347.731 67.8706C347.614 67.6965 349.399 64.9838 355.683 55.8157C360.152 49.3168 363.881 43.8043 363.997 43.5722C364.317 42.8469 364.375 41.4542 364.099 40.6274C363.78 39.6844 362.837 38.6109 361.806 38.0597C361.153 37.6825 360.892 37.6245 360.021 37.639C358.861 37.639 358.033 37.9872 357.192 38.7995C356.916 39.0607 350.517 48.635 342.971 60.0806L329.258 80.8829L329.185 42.136L329.113 3.38912L328.634 2.40268C328.068 1.27117 327.226 0.531338 326.094 0.197688C325.224 -0.0634295 324.701 -0.0634295 323.787 0.183181Z" fill="#697791"/>
<path d="M3.88898 9.9881C2.26373 10.3217 0.972244 11.3082 0.319244 12.7153L0 13.3971V54.0154V94.6336L0.406311 95.4605C2.2202 99.1742 7.37164 98.884 8.93884 94.9963C9.11298 94.5611 9.15651 89.5709 9.21456 62.6032L9.28711 30.7034L23.2758 52.8113C30.9667 64.9678 37.5257 75.1804 37.845 75.514C38.1642 75.8477 38.8172 76.2974 39.2961 76.5005C40.0652 76.8486 40.2974 76.8922 41.3422 76.8341C42.7062 76.7616 43.722 76.3119 44.5201 75.427C44.7813 75.1369 51.2823 64.9533 58.9877 52.7968L72.9909 30.6889L73.0634 62.6613L73.136 94.6336L73.5423 95.4605C75.4288 99.3047 80.9285 98.8115 82.1184 94.6917C82.336 93.9808 82.3506 90.0931 82.3215 53.6527L82.278 13.3971L81.9733 12.7298C81.0736 10.8005 78.8824 9.63994 76.8363 10.0171C75.7915 10.2057 75.1095 10.5684 74.384 11.3227C74.0647 11.6709 66.4754 23.4937 57.522 37.623C48.5832 51.7379 41.2116 63.3576 41.1535 63.4156C41.0955 63.4736 33.7383 51.9555 24.814 37.8116C7.34262 10.1332 7.74893 10.7134 6.22527 10.2347C5.224 9.91556 4.60002 9.85754 3.88898 9.9881Z" fill="#697791"/>
<path d="M174.99 10.3352C173.67 10.7559 172.581 11.8439 172.03 13.309C171.74 14.0343 171.74 14.7307 171.74 54.0578C171.74 98.7959 171.638 94.9082 172.799 96.3443C173.699 97.4323 175.005 98.0851 176.354 98.0996C177.21 98.0996 177.5 98.0271 178.313 97.6354C178.937 97.3308 179.459 96.9391 179.764 96.5474C180.04 96.2138 184.785 88.5543 190.314 79.5458C195.843 70.5227 200.443 63.0664 200.544 62.9648C200.689 62.8053 202.953 66.0837 211.993 79.5023C219.481 90.5997 223.515 96.4604 223.994 96.9101C224.85 97.7224 225.851 98.0996 227.172 98.0851C230.495 98.0706 232.672 94.2554 231.046 91.2815C230.872 90.9624 225.111 82.3745 218.262 72.22C211.398 62.0509 205.797 53.6661 205.797 53.5791C205.797 53.4776 210.963 45.1943 217.29 35.1703C223.617 25.1463 228.928 16.6455 229.073 16.2828C229.726 14.8177 229.305 12.7578 228.115 11.5392C227.187 10.5963 226.33 10.2191 224.995 10.1611C223.544 10.0886 222.499 10.4802 221.542 11.4232C221.034 11.9454 215.897 20.3447 200.979 45.0928L181.099 78.0806L181.027 45.8761L180.954 13.6862L180.475 12.7142C179.459 10.6398 177.167 9.65337 174.99 10.3352Z" fill="#697791"/>
<path d="M242.988 14.3411C240.492 14.7908 238.432 16.5751 237.706 18.9106C237.285 20.2162 237.416 22.1021 238.025 23.3786C238.577 24.5537 239.781 25.8737 240.826 26.454C242.843 27.542 245.382 27.4985 247.37 26.338C248.314 25.7867 249.475 24.4811 249.997 23.3786C250.621 22.0295 250.722 20.2017 250.258 18.7946C249.257 15.8062 245.977 13.7898 242.988 14.3411Z" fill="#697791"/>
<path d="M286.014 35.7518C282.735 36.0854 280.689 36.5061 278.091 37.362C271.401 39.538 265.321 44.1946 261.287 50.2003C258.864 53.8414 257.079 58.5995 256.397 63.2996C256.049 65.6787 256.049 70.1032 256.397 72.3662C257.5 79.721 260.765 86.0604 265.989 91.0506C271.111 95.9393 277.148 98.7971 284.49 99.798C286.333 100.045 290.498 100.016 292.53 99.7255C296.941 99.1017 301.512 97.477 305.082 95.243C307.998 93.4297 311.118 90.7605 311.699 89.5564C313.15 86.6116 311.205 83.3912 307.984 83.3912C306.634 83.3912 305.735 83.8119 304.342 85.1029C302.847 86.4956 301.73 87.3514 300.264 88.2363C294.213 91.892 286.304 92.5158 279.586 89.8756C276.771 88.7731 274.1 87.0178 271.88 84.8273C267.614 80.6059 265.234 75.5867 264.726 69.7405C264.276 64.5037 265.641 59.2523 268.586 54.8133C272.2 49.4024 277.699 45.7322 283.983 44.5717C286.188 44.151 290.817 44.1946 292.907 44.6443C297.318 45.5872 300.67 47.2989 304.197 50.4324C305.43 51.5203 305.996 51.9265 306.562 52.1006C310.074 53.2321 313.164 50.0407 311.902 46.5881C311.655 45.9063 311.365 45.5146 310.407 44.5862C305.938 40.1762 299.495 37.0428 292.907 36.0419C291.412 35.8098 287.16 35.6357 286.014 35.7518Z" fill="#697791"/>
<path d="M387.229 35.8245C377.927 36.7674 371.353 42.1784 370.106 49.9103C369.815 51.6946 369.989 55.2777 370.439 57.004C371.818 62.2554 375.417 65.7079 381.642 67.7098C383.906 68.4497 385.85 68.8704 390.581 69.6682C397.502 70.8432 399.592 71.4815 401.972 73.1643C402.944 73.8606 403.394 74.3973 403.96 75.4998C404.729 77.023 405.005 79.7938 404.569 81.8682C403.916 84.9871 401.203 88.1785 397.749 89.8613C393.744 91.8052 388.201 92.0228 383.369 90.4125C380.902 89.5857 377.796 87.8159 375.692 86.0025C374.328 84.8275 373.864 84.6244 372.5 84.6244C371.528 84.6244 371.223 84.697 370.613 85.0161C369.743 85.4658 369.104 86.1331 368.64 87.018C368.161 87.9174 368.147 89.7162 368.611 90.5866C369.191 91.6891 372.065 94.0972 374.749 95.7654C379.639 98.7828 386.227 100.364 392.017 99.9288C402.785 99.1019 410.969 92.6901 412.942 83.4929C413.392 81.3895 413.392 77.8644 412.928 75.7029C411.694 69.9148 408.27 66.1141 402.088 63.6625C400.637 63.0823 397.648 62.2989 395.137 61.8637C388.752 60.7177 387.272 60.4421 385.763 60.0504C381.497 58.9769 379.625 57.7003 378.841 55.3068C378.014 52.8552 378.42 49.7943 379.799 48.1115C381.119 46.4578 383.601 45.1377 386.576 44.4849C387.142 44.3688 388.433 44.2963 390.203 44.3108C394.426 44.3253 396.603 44.8766 400.724 47.009L402.973 48.1696L404.221 48.1115C405.571 48.0535 406.34 47.7198 407.138 46.8785C408.067 45.9065 408.458 44.2238 408.067 42.9037C407.588 41.2354 406.514 40.3215 402.973 38.6243C398.097 36.2887 392.54 35.2878 387.229 35.8245Z" fill="#697791"/>
<path d="M97.0066 36.7809C96.6003 36.926 96.0488 37.3177 95.5264 37.8399C94.8299 38.5362 94.6558 38.8264 94.3801 39.7113C94.1479 40.5236 94.0898 40.9588 94.1624 41.5826C94.351 43.1493 95.2507 44.4839 96.6293 45.2092L97.3693 45.6009L109.631 45.688C120.471 45.7605 121.98 45.7895 122.691 46.0071C126.029 47.008 128.641 49.7498 129.511 53.1588C129.903 54.682 129.903 56.974 129.511 58.4972C128.641 61.8917 126.275 64.5174 123.127 65.5909C122.198 65.91 122.082 65.91 109.921 65.9826L97.6596 66.0551L96.8469 66.4323C95.8167 66.911 95.0331 67.6943 94.5542 68.7243L94.1769 69.5367L94.1334 82.3024C94.1043 94.8941 94.1043 95.0826 94.3946 96.0691C94.6558 96.8814 94.8444 97.2006 95.4684 97.8244C96.4987 98.8543 97.5435 99.2605 99.0381 99.1735C100.837 99.0574 102.26 98.1145 102.985 96.5188L103.319 95.7935L103.362 85.5228L103.406 75.2667H110.632H117.874L124.868 86.2482C132.53 98.2886 132.733 98.5497 134.257 98.9994C137.304 99.8843 140.293 97.7228 140.322 94.6329C140.322 94.0672 140.235 93.3854 140.119 93.1098C140.003 92.8341 137.202 88.3806 133.908 83.2163C130.614 78.052 127.915 73.7726 127.915 73.7145C127.915 73.642 128.409 73.3374 129.033 73.0327C133.052 70.9583 136.462 66.969 138.059 62.4575C138.857 60.1655 139.132 58.4972 139.147 55.9005C139.147 50.5331 137.376 46.0941 133.691 42.2644C131.441 39.9144 128.946 38.3186 126.101 37.4192C123.315 36.5198 123.547 36.5343 110.009 36.5488C99.1252 36.5488 97.587 36.5779 97.0066 36.7809Z" fill="#697791"/>
<path d="M242.597 37.825C241.305 38.2602 240.522 39.0146 239.985 40.3201C239.738 40.9294 239.724 42.1915 239.724 67.9405V94.9227L240.057 95.6045C241.726 98.941 246.283 98.9265 247.835 95.59L248.14 94.9227V67.868V40.8134L247.792 40.0445C247.342 39.0436 246.254 38.0571 245.267 37.767C244.309 37.4769 243.526 37.4914 242.597 37.825Z" fill="#697791"/>
<path d="M149.638 87.2207C144.908 88.9034 143.674 94.8076 147.346 98.2311C149.914 100.639 153.847 100.552 156.357 98.0425C158.389 96.0116 158.882 93.0378 157.59 90.4992C157.112 89.5562 155.936 88.2797 155.08 87.7864C153.44 86.829 151.38 86.6114 149.638 87.2207Z" fill="#697791"/>
</svg>
