<svg width="588" height="100" viewBox="0 0 588 100" fill="none" xmlns="http://www.w3.org/2000/svg">
<path d="M584.923 79.2312C583.358 80.7955 581.511 81.5776 579.381 81.5776C577.284 81.5776 575.454 80.7955 573.889 79.2312C572.325 77.6668 571.543 75.8362 571.543 73.7394C571.543 71.6093 572.325 69.762 573.889 68.1977C575.454 66.6334 577.284 65.8512 579.381 65.8512C581.511 65.8512 583.358 66.6334 584.923 68.1977C586.487 69.762 587.269 71.6093 587.269 73.7394C587.269 75.8362 586.487 77.6668 584.923 79.2312Z" fill="#181C1D"/>
<path d="M518.872 80.7788H504.344V21.5677H518.872V30.654H519.071C522.766 23.4315 528.491 19.8203 536.246 19.8203C543.069 19.8203 548.61 22.1668 552.871 26.8597C557.131 31.5194 559.261 37.5603 559.261 44.9825V80.7788H544.733V46.031C544.733 42.4031 543.468 39.3244 540.939 36.7948C538.409 34.232 535.38 32.9506 531.852 32.9506C528.224 32.9506 525.146 34.232 522.616 36.7948C520.12 39.3244 518.872 42.4031 518.872 46.031V80.7788Z" fill="#181C1D"/>
<path d="M478.932 51.1233C478.932 46.1308 477.168 41.8539 473.64 38.2926C470.145 34.7312 465.885 32.9506 460.859 32.9506C455.866 32.9506 451.589 34.7479 448.028 38.3425C444.5 41.9038 442.736 46.1641 442.736 51.1233C442.736 56.1824 444.5 60.5092 448.028 64.1039C451.589 67.6652 455.866 69.4458 460.859 69.4458C465.918 69.4458 470.195 67.6652 473.69 64.1039C477.184 60.5092 478.932 56.1824 478.932 51.1233ZM494.059 51.1233C494.059 59.9767 490.764 67.4322 484.174 73.4898C477.617 79.5141 469.845 82.5262 460.859 82.5262C451.939 82.5262 444.167 79.5141 437.544 73.4898C430.92 67.4322 427.609 59.9767 427.609 51.1233C427.609 42.3365 430.904 34.9309 437.494 28.9067C444.117 22.8491 451.889 19.8203 460.809 19.8203C469.762 19.8203 477.534 22.8491 484.124 28.9067C490.747 34.9309 494.059 42.3365 494.059 51.1233Z" fill="#181C1D"/>
<path d="M402.896 21.5676H417.424V80.7788H402.896V21.5676ZM404.044 14.6281C402.38 12.9306 401.548 10.917 401.548 8.58712C401.548 6.25728 402.38 4.24363 404.044 2.54618C405.741 0.848727 407.772 0 410.135 0C412.531 0 414.561 0.848727 416.226 2.54618C417.89 4.24363 418.722 6.25728 418.722 8.58712C418.722 10.917 417.89 12.9306 416.226 14.6281C414.561 16.3255 412.531 17.1742 410.135 17.1742C407.772 17.1742 405.741 16.3255 404.044 14.6281Z" fill="#181C1D"/>
<path d="M376.136 80.7788V4.09387H390.664V80.7788H376.136Z" fill="#181C1D"/>
<path d="M349.326 51.1233C349.326 46.1308 347.562 41.8539 344.034 38.2926C340.539 34.7312 336.279 32.9506 331.253 32.9506C326.261 32.9506 321.984 34.7479 318.422 38.3425C314.894 41.9038 313.13 46.1641 313.13 51.1233C313.13 56.1824 314.894 60.5092 318.422 64.1039C321.984 67.6652 326.261 69.4458 331.253 69.4458C336.312 69.4458 340.589 67.6652 344.084 64.1039C347.579 60.5092 349.326 56.1824 349.326 51.1233ZM349.326 80.7788V71.2931H349.126C347.229 74.4217 344.6 77.0844 341.238 79.2811C337.91 81.4445 333.966 82.5262 329.406 82.5262C320.686 82.5262 313.263 79.5307 307.139 73.5397C301.048 67.5154 298.003 60.0433 298.003 51.1233C298.003 42.2699 301.048 34.8477 307.139 28.8567C313.263 22.8324 320.686 19.8203 329.406 19.8203C337.46 19.8203 344.034 23.2651 349.126 30.1548H349.326V21.5677H363.854V80.7788H349.326Z" fill="#181C1D"/>
<path d="M217.424 80.7788H202.896V21.5677H217.424V30.2546H217.624C221.385 23.2984 226.261 19.8203 232.252 19.8203C236.279 19.8203 239.641 20.8854 242.336 23.0155C245.066 25.1123 247.113 27.8083 248.477 31.1034C249.775 28.1744 251.972 25.5617 255.067 23.2651C258.196 20.9686 261.657 19.8203 265.452 19.8203C272.341 19.8203 277.783 21.9671 281.777 26.2606C285.771 30.5542 287.768 36.3289 287.768 43.5846V80.7788H273.24V43.335C273.24 40.4061 272.242 37.9431 270.245 35.9461C268.281 33.9491 265.835 32.9506 262.906 32.9506C260.043 32.9506 257.597 33.9491 255.567 35.9461C253.57 37.9431 252.571 40.4061 252.571 43.335V80.7788H238.043V43.335C238.043 40.4061 237.061 37.9431 235.097 35.9461C233.134 33.9491 230.687 32.9506 227.758 32.9506C224.896 32.9506 222.45 33.9491 220.419 35.9461C218.422 37.9431 217.424 40.4061 217.424 43.335V80.7788Z" fill="#181C1D"/>
<path d="M159.561 100C151.639 100 144.999 98.0696 139.64 94.2087C134.315 90.3811 131.17 85.2887 130.205 78.9316H145.432C146.097 81.5943 147.728 83.7078 150.324 85.2721C152.921 86.8364 155.999 87.6186 159.561 87.6186C164.819 87.6186 168.88 86.3871 171.742 83.9241C174.638 81.4944 176.086 77.8166 176.086 72.8907V68.2976L175.786 68.0979C173.523 70.6274 170.777 72.7575 167.549 74.4883C164.32 76.219 160.875 77.0844 157.214 77.0844C148.893 77.0844 141.954 74.4051 136.395 69.0464C130.837 63.6545 128.058 56.7982 128.058 48.4773C128.058 40.223 130.837 33.3833 136.395 27.9581C141.954 22.5329 148.893 19.8203 157.214 19.8203C161.508 19.8203 165.235 20.8021 168.397 22.7659C171.559 24.6963 174.022 26.9929 175.786 29.6555L176.086 29.4558V21.5677H190.614V73.8393C190.614 82.0935 187.802 88.5172 182.177 93.1104C176.585 97.7035 169.046 100 159.561 100ZM147.928 60.1598C151.09 63.355 154.951 64.9526 159.511 64.9526C164.104 64.9526 168.015 63.355 171.243 60.1598C174.472 56.9313 176.086 53.0371 176.086 48.4773C176.086 43.9175 174.472 40.04 171.243 36.8447C168.015 33.6163 164.104 32.002 159.511 32.002C154.951 32.002 151.09 33.6163 147.928 36.8447C144.766 40.04 143.185 43.9175 143.185 48.4773C143.185 53.0371 144.766 56.9313 147.928 60.1598Z" fill="#181C1D"/>
<path d="M125.711 21.5677L96.0559 98.2526H81.1283L88.3674 79.4309L65.9011 21.5677H80.9286L95.7563 61.0584H95.956L110.684 21.5677H125.711Z" fill="#181C1D"/>
<path d="M52.8208 11.6326C58.0795 16.6251 60.7089 22.8491 60.7089 30.3046C60.7089 37.7268 58.0795 43.9508 52.8208 48.9766C47.5953 53.9691 41.2381 56.4653 33.7494 56.4653H14.5282V80.7788H0V4.09387H33.7494C41.2381 4.09387 47.5953 6.60677 52.8208 11.6326ZM42.0869 39.6905C44.4167 37.0944 45.5816 33.9657 45.5816 30.3046C45.5816 26.6101 44.4167 23.4648 42.0869 20.8687C39.7903 18.2726 37.0111 16.9746 33.7494 16.9746H14.5282V43.5846H33.7494C37.0111 43.5846 39.7903 42.2866 42.0869 39.6905Z" fill="#181C1D"/>
</svg>
