<svg width="588" height="100" viewBox="0 0 588 100" fill="none" xmlns="http://www.w3.org/2000/svg">
<path d="M584.923 79.2315C583.359 80.7958 581.511 81.578 579.381 81.578C577.284 81.578 575.454 80.7958 573.889 79.2315C572.325 77.6672 571.543 75.8366 571.543 73.7397C571.543 71.6096 572.325 69.7624 573.889 68.198C575.454 66.6337 577.284 65.8516 579.381 65.8516C581.511 65.8516 583.359 66.6337 584.923 68.198C586.487 69.7624 587.269 71.6096 587.269 73.7397C587.269 75.8366 586.487 77.6672 584.923 79.2315Z" fill="#697791"/>
<path d="M518.872 80.7789H504.344V21.5677H518.872V30.6541H519.072C522.766 23.4316 528.491 19.8203 536.246 19.8203C543.069 19.8203 548.611 22.1668 552.871 26.8598C557.131 31.5194 559.261 37.5604 559.261 44.9826V80.7789H544.733V46.031C544.733 42.4031 543.468 39.3244 540.939 36.7949C538.409 34.232 535.381 32.9506 531.852 32.9506C528.225 32.9506 525.146 34.232 522.616 36.7949C520.12 39.3244 518.872 42.4031 518.872 46.031V80.7789Z" fill="#697791"/>
<path d="M478.931 51.1234C478.931 46.1308 477.167 41.8539 473.639 38.2926C470.145 34.7313 465.884 32.9506 460.859 32.9506C455.866 32.9506 451.589 34.7479 448.028 38.3425C444.5 41.9039 442.736 46.1641 442.736 51.1234C442.736 56.1824 444.5 60.5093 448.028 64.1039C451.589 67.6652 455.866 69.4459 460.859 69.4459C465.918 69.4459 470.195 67.6652 473.689 64.1039C477.184 60.5093 478.931 56.1824 478.931 51.1234ZM494.059 51.1234C494.059 59.9767 490.764 67.4322 484.174 73.4898C477.617 79.5141 469.845 82.5263 460.859 82.5263C451.939 82.5263 444.167 79.5141 437.543 73.4898C430.92 67.4322 427.608 59.9767 427.608 51.1234C427.608 42.3365 430.903 34.931 437.494 28.9067C444.117 22.8491 451.889 19.8203 460.809 19.8203C469.762 19.8203 477.534 22.8491 484.124 28.9067C490.747 34.931 494.059 42.3365 494.059 51.1234Z" fill="#697791"/>
<path d="M402.896 21.5676H417.424V80.7788H402.896V21.5676ZM404.044 14.6281C402.38 12.9306 401.548 10.917 401.548 8.58712C401.548 6.25728 402.38 4.24363 404.044 2.54618C405.742 0.848727 407.772 0 410.135 0C412.531 0 414.562 0.848727 416.226 2.54618C417.89 4.24363 418.722 6.25728 418.722 8.58712C418.722 10.917 417.89 12.9306 416.226 14.6281C414.562 16.3255 412.531 17.1742 410.135 17.1742C407.772 17.1742 405.742 16.3255 404.044 14.6281Z" fill="#697791"/>
<path d="M376.136 80.7787V4.09375H390.664V80.7787H376.136Z" fill="#697791"/>
<path d="M349.326 51.1234C349.326 46.1308 347.562 41.8539 344.034 38.2926C340.539 34.7313 336.279 32.9506 331.253 32.9506C326.261 32.9506 321.984 34.7479 318.422 38.3425C314.894 41.9039 313.13 46.1641 313.13 51.1234C313.13 56.1824 314.894 60.5093 318.422 64.1039C321.984 67.6652 326.261 69.4459 331.253 69.4459C336.312 69.4459 340.589 67.6652 344.084 64.1039C347.579 60.5093 349.326 56.1824 349.326 51.1234ZM349.326 80.7789V71.2931H349.126C347.229 74.4217 344.6 77.0844 341.238 79.2811C337.91 81.4445 333.966 82.5263 329.406 82.5263C320.686 82.5263 313.263 79.5307 307.139 73.5397C301.048 67.5154 298.003 60.0433 298.003 51.1234C298.003 42.27 301.048 34.8478 307.139 28.8568C313.263 22.8325 320.686 19.8203 329.406 19.8203C337.46 19.8203 344.034 23.2651 349.126 30.1548H349.326V21.5677H363.854V80.7789H349.326Z" fill="#697791"/>
<path d="M217.424 80.7789H202.896V21.5677H217.424V30.2547H217.623C221.384 23.2984 226.26 19.8203 232.251 19.8203C236.279 19.8203 239.64 20.8854 242.336 23.0155C245.066 25.1124 247.113 27.8083 248.477 31.1034C249.775 28.1744 251.972 25.5617 255.067 23.2651C258.196 20.9686 261.657 19.8203 265.452 19.8203C272.341 19.8203 277.783 21.9671 281.777 26.2607C285.771 30.5542 287.768 36.3289 287.768 43.5847V80.7789H273.24V43.335C273.24 40.4061 272.241 37.9431 270.244 35.9461C268.281 33.9491 265.834 32.9506 262.905 32.9506C260.043 32.9506 257.597 33.9491 255.567 35.9461C253.569 37.9431 252.571 40.4061 252.571 43.335V80.7789H238.043V43.335C238.043 40.4061 237.061 37.9431 235.097 35.9461C233.133 33.9491 230.687 32.9506 227.758 32.9506C224.896 32.9506 222.45 33.9491 220.419 35.9461C218.422 37.9431 217.424 40.4061 217.424 43.335V80.7789Z" fill="#697791"/>
<path d="M159.56 100C151.639 100 144.999 98.0696 139.64 94.2087C134.315 90.3811 131.17 85.2888 130.204 78.9316H145.432C146.097 81.5943 147.728 83.7078 150.324 85.2721C152.92 86.8365 155.999 87.6186 159.56 87.6186C164.819 87.6186 168.88 86.3871 171.742 83.9242C174.638 81.4945 176.086 77.8167 176.086 72.8907V68.2976L175.786 68.0979C173.523 70.6274 170.777 72.7576 167.548 74.4883C164.32 76.2191 160.875 77.0844 157.214 77.0844C148.893 77.0844 141.953 74.4051 136.395 69.0465C130.837 63.6546 128.058 56.7982 128.058 48.4773C128.058 40.223 130.837 33.3833 136.395 27.9581C141.953 22.5329 148.893 19.8203 157.214 19.8203C161.507 19.8203 165.235 20.8022 168.397 22.7659C171.559 24.6963 174.022 26.9929 175.786 29.6556L176.086 29.4559V21.5677H190.614V73.8393C190.614 82.0936 187.801 88.5173 182.176 93.1104C176.585 97.7035 169.046 100 159.56 100ZM147.928 60.1598C151.09 63.355 154.951 64.9526 159.51 64.9526C164.104 64.9526 168.014 63.355 171.243 60.1598C174.471 56.9313 176.086 53.0372 176.086 48.4773C176.086 43.9175 174.471 40.04 171.243 36.8448C168.014 33.6163 164.104 32.002 159.51 32.002C154.951 32.002 151.09 33.6163 147.928 36.8448C144.766 40.04 143.185 43.9175 143.185 48.4773C143.185 53.0372 144.766 56.9313 147.928 60.1598Z" fill="#697791"/>
<path d="M125.712 21.5684L96.0561 98.2533H81.1285L88.3677 79.4316L65.9014 21.5684H80.9288L95.7566 61.0591H95.9563L110.684 21.5684H125.712Z" fill="#697791"/>
<path d="M52.8208 11.6324C58.0795 16.625 60.7089 22.849 60.7089 30.3044C60.7089 37.7266 58.0795 43.9506 52.8208 48.9764C47.5953 53.9689 41.2381 56.4652 33.7494 56.4652H14.5282V80.7787H0V4.09375H33.7494C41.2381 4.09375 47.5953 6.60665 52.8208 11.6324ZM42.0869 39.6904C44.4167 37.0943 45.5816 33.9656 45.5816 30.3044C45.5816 26.61 44.4167 23.4647 42.0869 20.8686C39.7903 18.2725 37.0111 16.9744 33.7494 16.9744H14.5282V43.5845H33.7494C37.0111 43.5845 39.7903 42.2865 42.0869 39.6904Z" fill="#697791"/>
</svg>
