<svg width="546" height="100" viewBox="0 0 546 100" fill="none" xmlns="http://www.w3.org/2000/svg">
<path d="M47.7937 48.0329V56.839H0V49.8742L32.9833 9.60659H0.560395V0.800548H46.753V7.76532L13.7697 48.0329H47.7937Z" fill="#697791"/>
<path d="M99.3569 48.113V56.839H57.3273V0.800548H98.2361V9.52653H67.7346V24.0965H94.7937V32.6624H67.7346V48.113H99.3569Z" fill="#697791"/>
<path d="M160.754 0.800548V56.839H152.188L121.286 18.893V56.839H110.959V0.800548H119.525L150.427 38.7466V0.800548H160.754Z" fill="#697791"/>
<path d="M197.895 0.800548H208.302V48.0329H237.603V56.839H197.895V0.800548Z" fill="#697791"/>
<path d="M270.982 57.6395C265.271 57.6395 260.121 56.412 255.531 53.957C250.941 51.4486 247.338 48.0063 244.723 43.6299C242.108 39.2002 240.8 34.2635 240.8 28.8198C240.8 23.376 242.108 18.466 244.723 14.0897C247.338 9.65996 250.941 6.2176 255.531 3.76258C260.121 1.25419 265.271 0 270.982 0C276.692 0 281.843 1.25419 286.433 3.76258C291.022 6.2176 294.625 9.63327 297.24 14.0096C299.855 18.3859 301.163 23.3227 301.163 28.8198C301.163 34.3169 299.855 39.2536 297.24 43.6299C294.625 48.0063 291.022 51.4486 286.433 53.957C281.843 56.412 276.692 57.6395 270.982 57.6395ZM270.982 48.5133C274.718 48.5133 278.08 47.686 281.069 46.0316C284.058 44.3237 286.406 41.9754 288.114 38.9867C289.822 35.9446 290.676 32.5557 290.676 28.8198C290.676 25.0839 289.822 21.7216 288.114 18.7328C286.406 15.6908 284.058 13.3425 281.069 11.688C278.08 9.98018 274.718 9.12626 270.982 9.12626C267.246 9.12626 263.883 9.98018 260.895 11.688C257.906 13.3425 255.557 15.6908 253.85 18.7328C252.142 21.7216 251.288 25.0839 251.288 28.8198C251.288 32.5557 252.142 35.9446 253.85 38.9867C255.557 41.9754 257.906 44.3237 260.895 46.0316C263.883 47.686 267.246 48.5133 270.982 48.5133Z" fill="#697791"/>
<path d="M336.291 57.6395C328.553 57.6395 322.522 55.478 318.199 51.1551C313.876 46.7787 311.714 40.5345 311.714 32.4222V0.800548H322.121V32.022C322.121 43.0162 326.872 48.5133 336.372 48.5133C345.818 48.5133 350.542 43.0162 350.542 32.022V0.800548H360.789V32.4222C360.789 40.5345 358.627 46.7787 354.304 51.1551C350.035 55.478 344.03 57.6395 336.291 57.6395Z" fill="#697791"/>
<path d="M425.159 0.800548V56.839H416.593L385.691 18.893V56.839H375.364V0.800548H383.93L414.832 38.7466V0.800548H425.159Z" fill="#697791"/>
<path d="M478.442 28.1793H488.289V50.5146C485.407 52.8095 482.045 54.5708 478.202 55.7983C474.359 57.0258 470.41 57.6395 466.354 57.6395C460.643 57.6395 455.493 56.412 450.903 53.957C446.313 51.4486 442.71 48.0063 440.095 43.6299C437.48 39.2536 436.173 34.3169 436.173 28.8198C436.173 23.3227 437.48 18.3859 440.095 14.0096C442.71 9.63327 446.313 6.2176 450.903 3.76258C455.546 1.25419 460.75 0 466.514 0C471.211 0 475.48 0.773864 479.323 2.32159C483.166 3.86932 486.395 6.13754 489.01 9.12626L482.445 15.5306C478.175 11.2611 473.025 9.12626 466.994 9.12626C463.045 9.12626 459.522 9.95349 456.427 11.608C453.385 13.2624 450.983 15.584 449.222 18.5727C447.514 21.5615 446.66 24.9771 446.66 28.8198C446.66 32.5557 447.514 35.918 449.222 38.9067C450.983 41.8954 453.385 44.2437 456.427 45.9515C459.522 47.6593 463.018 48.5133 466.914 48.5133C471.291 48.5133 475.133 47.5526 478.442 45.6313V28.1793Z" fill="#697791"/>
<path d="M544.045 48.113V56.839H502.016V0.800548H542.925V9.52653H512.423V24.0965H539.482V32.6624H512.423V48.113H544.045Z" fill="#697791"/>
<path d="M22.5874 99.7255L22.553 82.2278L13.8726 96.8092H12.2944L3.61398 82.3307V99.7255H0.320226V75.7091H3.13364L13.1521 92.5892L23.0334 75.7091H25.8468L25.8811 99.7255H22.5874Z" fill="#697791"/>
<path d="M62.4581 93.7214H49.6949L47.053 99.7255H43.5191L54.3953 75.7091H57.792L68.7025 99.7255H65.1L62.4581 93.7214ZM61.2573 90.9767L56.0765 79.2086L50.8957 90.9767H61.2573Z" fill="#697791"/>
<path d="M93.3515 100C91.5445 100 89.7947 99.7255 88.1021 99.1766C86.4324 98.6048 85.1172 97.8728 84.1565 96.9808L85.4259 94.3047C86.3409 95.1281 87.5074 95.8028 88.9256 96.3289C90.3666 96.8321 91.8419 97.0837 93.3515 97.0837C95.3415 97.0837 96.8283 96.7521 97.8118 96.0887C98.7954 95.4026 99.2872 94.4991 99.2872 93.3783C99.2872 92.5549 99.0127 91.8916 98.4637 91.3884C97.9376 90.8623 97.2743 90.462 96.4737 90.1876C95.696 89.9131 94.5867 89.6043 93.1457 89.2612C91.3387 88.8266 89.8748 88.392 88.754 87.9575C87.6561 87.5229 86.7068 86.8596 85.9063 85.9675C85.1286 85.0526 84.7397 83.8289 84.7397 82.2964C84.7397 81.0155 85.0714 79.8605 85.7347 78.8312C86.4209 77.8019 87.4502 76.9785 88.8226 76.3609C90.195 75.7434 91.8991 75.4346 93.9348 75.4346C95.3529 75.4346 96.7482 75.6176 98.1206 75.9835C99.493 76.3495 100.671 76.8756 101.655 77.5618L100.522 80.3065C99.5159 79.6661 98.4408 79.1857 97.2972 78.8655C96.1535 78.5224 95.0327 78.3509 93.9348 78.3509C91.9906 78.3509 90.5267 78.7054 89.5431 79.4145C88.5825 80.1235 88.1021 81.0384 88.1021 82.1592C88.1021 82.9826 88.3766 83.6574 88.9256 84.1834C89.4745 84.6866 90.1493 85.0869 90.9498 85.3843C91.7733 85.6587 92.8826 85.9561 94.2779 86.2763C96.0849 86.7109 97.5373 87.1455 98.6353 87.5801C99.7332 88.0146 100.671 88.6779 101.449 89.57C102.249 90.462 102.65 91.6629 102.65 93.1725C102.65 94.4305 102.306 95.5855 101.62 96.6377C100.934 97.667 99.8933 98.4904 98.498 99.108C97.1028 99.7027 95.3873 100 93.3515 100Z" fill="#697791"/>
<path d="M128.728 100C126.921 100 125.171 99.7255 123.479 99.1766C121.809 98.6048 120.494 97.8728 119.533 96.9808L120.803 94.3047C121.718 95.1281 122.884 95.8028 124.302 96.3289C125.743 96.8321 127.219 97.0837 128.728 97.0837C130.718 97.0837 132.205 96.7521 133.189 96.0887C134.172 95.4026 134.664 94.4991 134.664 93.3783C134.664 92.5549 134.389 91.8916 133.84 91.3884C133.314 90.8623 132.651 90.462 131.85 90.1876C131.073 89.9131 129.963 89.6043 128.522 89.2612C126.715 88.8266 125.252 88.392 124.131 87.9575C123.033 87.5229 122.084 86.8596 121.283 85.9675C120.505 85.0526 120.116 83.8289 120.116 82.2964C120.116 81.0155 120.448 79.8605 121.111 78.8312C121.798 77.8019 122.827 76.9785 124.199 76.3609C125.572 75.7434 127.276 75.4346 129.312 75.4346C130.73 75.4346 132.125 75.6176 133.497 75.9835C134.87 76.3495 136.048 76.8756 137.031 77.5618L135.899 80.3065C134.893 79.6661 133.818 79.1857 132.674 78.8655C131.53 78.5224 130.409 78.3509 129.312 78.3509C127.367 78.3509 125.903 78.7054 124.92 79.4145C123.959 80.1235 123.479 81.0384 123.479 82.1592C123.479 82.9826 123.753 83.6574 124.302 84.1834C124.851 84.6866 125.526 85.0869 126.327 85.3843C127.15 85.6587 128.259 85.9561 129.655 86.2763C131.462 86.7109 132.914 87.1455 134.012 87.5801C135.11 88.0146 136.048 88.6779 136.825 89.57C137.626 90.462 138.026 91.6629 138.026 93.1725C138.026 94.4305 137.683 95.5855 136.997 96.6377C136.311 97.667 135.27 98.4904 133.875 99.108C132.479 99.7027 130.764 100 128.728 100Z" fill="#697791"/>
<path d="M172.408 93.7214H159.645L157.003 99.7255H153.469L164.345 75.7091H167.742L178.652 99.7255H175.05L172.408 93.7214ZM171.207 90.9767L166.026 79.2086L160.846 90.9767H171.207Z" fill="#697791"/>
<path d="M212.607 87.5801H215.901V96.9465C214.712 97.93 213.328 98.6848 211.75 99.2109C210.171 99.737 208.525 100 206.809 100C204.384 100 202.2 99.4739 200.256 98.4218C198.312 97.3467 196.779 95.8829 195.658 94.0302C194.56 92.1546 194.011 90.0503 194.011 87.7173C194.011 85.3843 194.56 83.28 195.658 81.4044C196.779 79.5288 198.312 78.065 200.256 77.0128C202.223 75.9607 204.43 75.4346 206.878 75.4346C208.799 75.4346 210.537 75.7548 212.093 76.3952C213.671 77.0128 215.009 77.9277 216.107 79.14L213.98 81.2671C212.058 79.4145 209.737 78.4881 207.015 78.4881C205.185 78.4881 203.538 78.8884 202.074 79.6889C200.633 80.4666 199.501 81.5645 198.678 82.9826C197.854 84.3779 197.442 85.9561 197.442 87.7173C197.442 89.4556 197.854 91.0339 198.678 92.452C199.501 93.8472 200.633 94.9451 202.074 95.7457C203.538 96.5462 205.174 96.9465 206.981 96.9465C209.131 96.9465 211.006 96.4318 212.607 95.4026V87.5801Z" fill="#697791"/>
<path d="M253.967 96.7406V99.7255H236.537V75.7091H253.486V78.694H239.968V86.0704H252.011V88.9867H239.968V96.7406H253.967Z" fill="#697791"/>
<path d="M301.639 78.694H293.405V75.7091H313.271V78.694H305.036V99.7255H301.639V78.694Z" fill="#697791"/>
<path d="M351.729 75.7091V99.7255H348.298V89.021H334.505V99.7255H331.074V75.7091H334.505V86.0361H348.298V75.7091H351.729Z" fill="#697791"/>
<path d="M390.414 96.7406V99.7255H372.985V75.7091H389.934V78.694H376.416V86.0704H388.459V88.9867H376.416V96.7406H390.414Z" fill="#697791"/>
<path d="M426.094 99.7255L420.913 92.349C420.273 92.3948 419.769 92.4177 419.403 92.4177H413.468V99.7255H410.037V75.7091H419.403C422.514 75.7091 424.962 76.4524 426.746 77.9392C428.53 79.4259 429.422 81.473 429.422 84.0805C429.422 85.9332 428.964 87.5114 428.049 88.8152C427.135 90.1189 425.831 91.0682 424.138 91.6629L429.834 99.7255H426.094ZM419.3 89.5014C421.473 89.5014 423.132 89.0325 424.275 88.0947C425.419 87.1569 425.991 85.8188 425.991 84.0805C425.991 82.3422 425.419 81.0156 424.275 80.1006C423.132 79.1629 421.473 78.694 419.3 78.694H413.468V89.5014H419.3Z" fill="#697791"/>
<path d="M464.334 93.7214H451.571L448.929 99.7255H445.395L456.272 75.7091H459.668L470.579 99.7255H466.976L464.334 93.7214ZM463.134 90.9767L457.953 79.2086L452.772 90.9767H463.134Z" fill="#697791"/>
<path d="M497.595 75.7091C500.706 75.7091 503.153 76.4524 504.937 77.9392C506.722 79.4259 507.614 81.473 507.614 84.0805C507.614 86.688 506.722 88.7351 504.937 90.2219C503.153 91.7086 500.706 92.452 497.595 92.452H491.66V99.7255H488.229V75.7091H497.595ZM497.492 89.4671C499.665 89.4671 501.323 89.0096 502.467 88.0947C503.611 87.1569 504.183 85.8188 504.183 84.0805C504.183 82.3422 503.611 81.0156 502.467 80.1006C501.323 79.1629 499.665 78.694 497.492 78.694H491.66V89.4671H497.492Z" fill="#697791"/>
<path d="M535.916 91.4227V99.7255H532.52V91.3541L522.982 75.7091H526.653L534.338 88.3692L542.058 75.7091H545.455L535.916 91.4227Z" fill="#697791"/>
</svg>
